RobotoMono-Regular.ufo
<glyph name="dollar" format="2">
  <advance width="1229"/>
  <unicode hex="0024"/>
  <outline>
    <contour>
      <point x="907" y="375" type="qcurve" smooth="yes"/>
      <point x="907" y="420"/>
      <point x="876" y="497"/>
      <point x="842" y="530" type="qcurve" smooth="yes"/>
      <point x="808" y="563"/>
      <point x="700" y="620"/>
      <point x="626" y="644" type="qcurve" smooth="yes"/>
      <point x="533" y="673"/>
      <point x="383" y="749"/>
      <point x="330" y="802" type="qcurve" smooth="yes" name="inserted"/>
      <point x="276" y="854"/>
      <point x="218" y="990"/>
      <point x="218" y="1079" type="qcurve" smooth="yes"/>
      <point x="218" y="1163"/>
      <point x="269" y="1299"/>
      <point x="316" y="1350" type="qcurve" smooth="yes" name="inserted"/>
      <point x="362" y="1400"/>
      <point x="495" y="1462"/>
      <point x="576" y="1472" type="qcurve"/>
      <point x="576" y="1692" type="line"/>
      <point x="725" y="1692" type="line"/>
      <point x="725" y="1472" type="line"/>
      <point x="798" y="1462"/>
      <point x="918" y="1405"/>
      <point x="962" y="1360" type="qcurve" smooth="yes"/>
      <point x="1019" y="1300"/>
      <point x="1079" y="1123"/>
      <point x="1080" y="1008" type="qcurve"/>
      <point x="896" y="1008" type="line"/>
      <point x="896" y="1075"/>
      <point x="863" y="1188"/>
      <point x="832" y="1229" type="qcurve" smooth="yes" name="inserted"/>
      <point x="800" y="1269"/>
      <point x="708" y="1315"/>
      <point x="649" y="1315" type="qcurve" smooth="yes"/>
      <point x="585" y="1315"/>
      <point x="490" y="1279"/>
      <point x="460" y="1246" type="qcurve" smooth="yes"/>
      <point x="432" y="1216"/>
      <point x="403" y="1133"/>
      <point x="403" y="1082" type="qcurve"/>
      <point x="403" y="1032"/>
      <point x="435" y="954"/>
      <point x="470" y="922" type="qcurve" smooth="yes" name="inserted"/>
      <point x="504" y="890"/>
      <point x="613" y="835"/>
      <point x="690" y="809" type="qcurve" smooth="yes"/>
      <point x="784" y="778"/>
      <point x="934" y="702"/>
      <point x="986" y="651" type="qcurve" smooth="yes" name="inserted"/>
      <point x="1038" y="600"/>
      <point x="1093" y="466"/>
      <point x="1093" y="377" type="qcurve" smooth="yes"/>
      <point x="1093" y="290"/>
      <point x="1038" y="152"/>
      <point x="988" y="103" type="qcurve" smooth="yes" name="inserted"/>
      <point x="938" y="53"/>
      <point x="795" y="-7"/>
      <point x="708" y="-16" type="qcurve"/>
      <point x="708" y="-208" type="line"/>
      <point x="559" y="-208" type="line"/>
      <point x="559" y="-17" type="line"/>
      <point x="481" y="-9"/>
      <point x="338" y="47"/>
      <point x="283" y="101" type="qcurve" smooth="yes" name="inserted"/>
      <point x="228" y="154"/>
      <point x="162" y="316"/>
      <point x="162" y="429" type="qcurve"/>
      <point x="347" y="429" type="line"/>
      <point x="347" y="345"/>
      <point x="397" y="234"/>
      <point x="437" y="201" type="qcurve" smooth="yes" name="inserted"/>
      <point x="476" y="168"/>
      <point x="576" y="140"/>
      <point x="627" y="140" type="qcurve" smooth="yes"/>
      <point x="692" y="140"/>
      <point x="796" y="172"/>
      <point x="832" y="203" type="qcurve" smooth="yes" name="inserted"/>
      <point x="868" y="233"/>
      <point x="907" y="320"/>
    </contour>
  </outline>
</glyph>
<glyph name="asterisk" format="2">
  <advance width="1229"/>
  <unicode hex="002A"/>
  <outline>
    <contour>
      <point x="537" y="915" type="line"/>
      <point x="160" y="1011" type="line"/>
      <point x="214" y="1186" type="line"/>
      <point x="579" y="1035" type="line"/>
      <point x="554" y="1456" type="line"/>
      <point x="732" y="1456" type="line"/>
      <point x="703" y="1029" type="line"/>
      <point x="1066" y="1179" type="line"/>
      <point x="1120" y="1001" type="line"/>
      <point x="738" y="907" type="line"/>
      <point x="994" y="583" type="line"/>
      <point x="848" y="473" type="line"/>
      <point x="634" y="836" type="line"/>
      <point x="422" y="482" type="line"/>
      <point x="276" y="588" type="line"/>
    </contour>
  </outline>
</glyph>
<glyph name="slash" format="2">
  <advance width="1229"/>
  <unicode hex="002F"/>
  <unicode hex="2215"/>
  <outline>
    <contour>
      <point x="418" y="-125" type="line"/>
      <point x="252" y="-125" type="line"/>
      <point x="860" y="1456" type="line"/>
      <point x="1025" y="1456" type="line"/>
    </contour>
  </outline>
</glyph>
<glyph name="one" format="2">
  <advance width="1229"/>
  <unicode hex="0031"/>
  <outline>
    <contour>
      <point x="774" y="0" type="line"/>
      <point x="589" y="0" type="line"/>
      <point x="589" y="1220" type="line"/>
      <point x="208" y="1075" type="line"/>
      <point x="208" y="1244" type="line"/>
      <point x="759" y="1456" type="line"/>
      <point x="774" y="1456" type="line"/>
    </contour>
  </outline>
</glyph>
<glyph name="three" format="2">
  <advance width="1229"/>
  <unicode hex="0033"/>
  <outline>
    <contour>
      <point x="390" y="817" type="line"/>
      <point x="522" y="817" type="line" smooth="yes"/>
      <point x="592" y="817"/>
      <point x="699" y="855"/>
      <point x="736" y="888" type="qcurve" smooth="yes" name="inserted"/>
      <point x="772" y="921"/>
      <point x="810" y="1013"/>
      <point x="810" y="1068" type="qcurve" smooth="yes"/>
      <point x="810" y="1133"/>
      <point x="776" y="1230"/>
      <point x="743" y="1262" type="qcurve" smooth="yes"/>
      <point x="711" y="1293"/>
      <point x="616" y="1324"/>
      <point x="555" y="1324" type="qcurve" smooth="yes"/>
      <point x="496" y="1324"/>
      <point x="399" y="1289"/>
      <point x="365" y="1256" type="qcurve" smooth="yes" name="inserted"/>
      <point x="330" y="1223"/>
      <point x="292" y="1131"/>
      <point x="292" y="1074" type="qcurve"/>
      <point x="106" y="1074" type="line"/>
      <point x="106" y="1157"/>
      <point x="171" y="1304"/>
      <point x="230" y="1359" type="qcurve" smooth="yes" name="inserted"/>
      <point x="289" y="1413"/>
      <point x="454" y="1476"/>
      <point x="555" y="1476" type="qcurve" smooth="yes"/>
      <point x="653" y="1476"/>
      <point x="815" y="1423"/>
      <point x="873" y="1371" type="qcurve" smooth="yes" name="inserted"/>
      <point x="931" y="1319"/>
      <point x="995" y="1165"/>
      <point x="995" y="1064" type="qcurve" smooth="yes"/>
      <point x="995" y="1022"/>
      <point x="969" y="932"/>
      <point x="942" y="890" type="qcurve" smooth="yes" name="inserted"/>
      <point x="915" y="847"/>
      <point x="830" y="772"/>
      <point x="771" y="747" type="qcurve"/>
      <point x="842" y="724"/>
      <point x="937" y="650"/>
      <point x="966" y="604" type="qcurve" smooth="yes" name="inserted"/>
      <point x="994" y="558"/>
      <point x="1017" y="456"/>
      <point x="1017" y="406" type="qcurve" smooth="yes"/>
      <point x="1017" y="304"/>
      <point x="947" y="146"/>
      <point x="885" y="92" type="qcurve" smooth="yes" name="inserted"/>
      <point x="823" y="37"/>
      <point x="654" y="-20"/>
      <point x="556" y="-20" type="qcurve" smooth="yes"/>
      <point x="460" y="-20"/>
      <point x="291" y="34"/>
      <point x="229" y="86" type="qcurve" smooth="yes" name="inserted"/>
      <point x="167" y="138"/>
      <point x="94" y="288"/>
      <point x="94" y="384" type="qcurve"/>
      <point x="279" y="384" type="line"/>
      <point x="279" y="327"/>
      <point x="318" y="233"/>
      <point x="354" y="200" type="qcurve" smooth="yes" name="inserted"/>
      <point x="390" y="167"/>
      <point x="493" y="131"/>
      <point x="556" y="131" type="qcurve" smooth="yes"/>
      <point x="619" y="131"/>
      <point x="721" y="164"/>
      <point x="757" y="198" type="qcurve" smooth="yes" name="inserted"/>
      <point x="793" y="232"/>
      <point x="832" y="333"/>
      <point x="832" y="402" type="qcurve" smooth="yes"/>
      <point x="832" y="470"/>
      <point x="787" y="569"/>
      <point x="747" y="602" type="qcurve" smooth="yes" name="inserted"/>
      <point x="706" y="635"/>
      <point x="591" y="667"/>
      <point x="522" y="667" type="qcurve" smooth="yes"/>
      <point x="390" y="667" type="line"/>
    </contour>
  </outline>
</glyph>
<glyph name="six" format="2">
  <advance width="1229"/>
  <unicode hex="0036"/>
  <outline>
    <contour>
      <point x="856" y="1457" type="line"/>
      <point x="856" y="1291" type="line"/>
      <point x="840" y="1291" type="line" smooth="yes"/>
      <point x="708" y="1291"/>
      <point x="524" y="1216"/>
      <point x="464" y="1153" type="qcurve" smooth="yes"/>
      <point x="401" y="1087"/>
      <point x="336" y="905"/>
      <point x="330" y="809" type="qcurve"/>
      <point x="356" y="840"/>
      <point x="424" y="893"/>
      <point x="464" y="913" type="qcurve" smooth="yes" name="inserted"/>
      <point x="503" y="932"/>
      <point x="594" y="955"/>
      <point x="644" y="955" type="qcurve" smooth="yes"/>
      <point x="753" y="955"/>
      <point x="911" y="872"/>
      <point x="962" y="804" type="qcurve" smooth="yes" name="inserted"/>
      <point x="1013" y="736"/>
      <point x="1061" y="564"/>
      <point x="1061" y="475" type="qcurve" smooth="yes"/>
      <point x="1061" y="373"/>
      <point x="1004" y="193"/>
      <point x="947" y="126" type="qcurve" smooth="yes" name="inserted"/>
      <point x="890" y="58"/>
      <point x="721" y="-20"/>
      <point x="610" y="-20" type="qcurve" smooth="yes"/>
      <point x="498.2427964164048" y="-20.0"/>
      <point x="327.998615665489" y="70.35465123674881"/>
      <point x="270" y="142" type="qcurve" smooth="yes"/>
      <point x="204.62711061176225" y="220.99224134412069"/>
      <point x="141.0" y="432.1339690368073"/>
      <point x="141" y="538" type="qcurve" smooth="yes"/>
      <point x="141" y="625" type="line" smooth="yes"/>
      <point x="141" y="807"/>
      <point x="227" y="1159"/>
      <point x="352" y="1284" type="qcurve" smooth="yes"/>
      <point x="438" y="1370"/>
      <point x="684" y="1457"/>
      <point x="840" y="1457" type="qcurve" smooth="yes"/>
    </contour>
    <contour>
      <point x="614" y="801" type="qcurve" smooth="yes"/>
      <point x="567" y="801"/>
      <point x="479" y="771"/>
      <point x="441.0" y="744.0" type="qcurve" smooth="yes" name="inserted"/>
      <point x="403" y="717"/>
      <point x="345" y="641"/>
      <point x="328" y="595" type="qcurve"/>
      <point x="328" y="533" type="line" smooth="yes"/>
      <point x="328" y="437"/>
      <point x="374" y="288"/>
      <point x="413.0" y="237.0" type="qcurve" smooth="yes" name="inserted"/>
      <point x="452" y="186"/>
      <point x="554" y="133"/>
      <point x="610" y="133" type="qcurve" smooth="yes"/>
      <point x="675" y="133"/>
      <point x="775" y="183"/>
      <point x="809.5" y="227.0" type="qcurve" smooth="yes" name="inserted"/>
      <point x="844" y="271"/>
      <point x="879" y="394"/>
      <point x="879" y="466" type="qcurve" smooth="yes"/>
      <point x="879" y="530"/>
      <point x="847" y="651"/>
      <point x="814.0" y="698.0" type="qcurve" smooth="yes" name="inserted"/>
      <point x="781" y="745"/>
      <point x="681" y="801"/>
    </contour>
  </outline>
</glyph>
<glyph name="nine" format="2">
  <advance width="1229"/>
  <unicode hex="0039"/>
  <outline>
    <contour>
      <point x="373" y="164" type="line" smooth="yes"/>
      <point x="513" y="164"/>
      <point x="700" y="231"/>
      <point x="757" y="292" type="qcurve" smooth="yes"/>
      <point x="826" y="367"/>
      <point x="874" y="539"/>
      <point x="879" y="631" type="qcurve"/>
      <point x="879" y="633" type="line"/>
      <point x="855" y="603"/>
      <point x="793" y="550"/>
      <point x="754" y="530" type="qcurve" smooth="yes" name="inserted"/>
      <point x="715" y="510"/>
      <point x="620" y="487"/>
      <point x="564" y="487" type="qcurve" smooth="yes"/>
      <point x="456" y="487"/>
      <point x="299" y="572"/>
      <point x="248" y="641" type="qcurve" smooth="yes" name="inserted"/>
      <point x="197" y="710"/>
      <point x="149" y="884"/>
      <point x="149" y="972" type="qcurve" smooth="yes"/>
      <point x="149" y="1075"/>
      <point x="206" y="1258"/>
      <point x="263" y="1327" type="qcurve" smooth="yes" name="inserted"/>
      <point x="319" y="1395"/>
      <point x="488" y="1476"/>
      <point x="600" y="1476" type="qcurve" smooth="yes"/>
      <point x="712" y="1476"/>
      <point x="877" y="1393"/>
      <point x="933" y="1325" type="qcurve" smooth="yes"/>
      <point x="999" y="1245"/>
      <point x="1065" y="1006"/>
      <point x="1065" y="887" type="qcurve" smooth="yes"/>
      <point x="1065" y="820" type="line" smooth="yes"/>
      <point x="1065.0" y="651.1379121004138"/>
      <point x="993" y="310"/>
      <point x="875" y="178" type="qcurve" smooth="yes"/>
      <point x="804" y="98"/>
      <point x="552.7734099392105" y="-1.0"/>
      <point x="373" y="-1" type="qcurve" smooth="yes"/>
      <point x="354" y="-1" type="line"/>
      <point x="354" y="164" type="line"/>
    </contour>
    <contour>
      <point x="594" y="640" type="qcurve" smooth="yes"/>
      <point x="641" y="640"/>
      <point x="730" y="671"/>
      <point x="767.5" y="699.5" type="qcurve" smooth="yes" name="inserted"/>
      <point x="805" y="728"/>
      <point x="864" y="805"/>
      <point x="881" y="852" type="qcurve"/>
      <point x="881" y="912" type="line" smooth="yes"/>
      <point x="881" y="1009"/>
      <point x="836" y="1161"/>
      <point x="797.5" y="1213.5" type="qcurve" smooth="yes" name="inserted"/>
      <point x="759" y="1266"/>
      <point x="658" y="1322"/>
      <point x="601" y="1322" type="qcurve" smooth="yes"/>
      <point x="536" y="1322"/>
      <point x="436" y="1270"/>
      <point x="401.5" y="1224.5" type="qcurve" smooth="yes" name="inserted"/>
      <point x="367" y="1179"/>
      <point x="331" y="1054"/>
      <point x="331" y="982" type="qcurve" smooth="yes"/>
      <point x="331" y="918"/>
      <point x="363" y="795"/>
      <point x="395.5" y="747.0" type="qcurve" smooth="yes" name="inserted"/>
      <point x="428" y="699"/>
      <point x="527" y="640"/>
    </contour>
  </outline>
</glyph>
<glyph name="less" format="2">
  <advance width="1229"/>
  <unicode hex="003C"/>
  <outline>
    <contour>
      <point x="1018" y="196" type="line"/>
      <point x="170" y="575" type="line"/>
      <point x="170" y="721" type="line"/>
      <point x="1018" y="1099" type="line"/>
      <point x="1018" y="903" type="line"/>
      <point x="406" y="663" type="line"/>
      <point x="353" y="646" type="line"/>
      <point x="406" y="628" type="line"/>
      <point x="1018" y="392" type="line"/>
    </contour>
  </outline>
</glyph>
<glyph name="equal" format="2">
  <advance width="1229"/>
  <unicode hex="003D"/>
  <outline>
    <contour>
      <point x="1066" y="780" type="line"/>
      <point x="173" y="780" type="line"/>
      <point x="173" y="941" type="line"/>
      <point x="1066" y="941" type="line"/>
    </contour>
    <contour>
      <point x="1066" y="365" type="line"/>
      <point x="173" y="365" type="line"/>
      <point x="173" y="525" type="line"/>
      <point x="1066" y="525" type="line"/>
    </contour>
  </outline>
</glyph>
<glyph name="A" format="2">
  <advance width="1229"/>
  <unicode hex="0041"/>
  <outline>
    <contour>
      <point x="869" y="377" type="line"/>
      <point x="383" y="377" type="line"/>
      <point x="266" y="0" type="line"/>
      <point x="81" y="0" type="line"/>
      <point x="551" y="1456" type="line"/>
      <point x="706" y="1456" type="line"/>
      <point x="1168" y="0" type="line"/>
      <point x="984" y="0" type="line"/>
    </contour>
    <contour>
      <point x="433" y="538" type="line"/>
      <point x="820" y="538" type="line"/>
      <point x="628" y="1170" type="line"/>
    </contour>
  </outline>
</glyph>
<glyph name="B" format="2">
  <advance width="1229"/>
  <unicode hex="0042"/>
  <outline>
    <contour>
      <point x="172" y="0" type="line"/>
      <point x="172" y="1456" type="line"/>
      <point x="605" y="1456" type="line" smooth="yes"/>
      <point x="695" y="1455"/>
      <point x="867" y="1410"/>
      <point x="934" y="1363" type="qcurve" smooth="yes" name="inserted"/>
      <point x="1001" y="1316"/>
      <point x="1081" y="1170"/>
      <point x="1080" y="1068" type="qcurve" smooth="yes"/>
      <point x="1079" y="1011"/>
      <point x="1044" y="917"/>
      <point x="1014" y="880" type="qcurve" smooth="yes" name="inserted"/>
      <point x="983" y="842"/>
      <point x="908" y="790"/>
      <point x="855" y="767" type="qcurve"/>
      <point x="855" y="764" type="line"/>
      <point x="910" y="751"/>
      <point x="1012" y="683"/>
      <point x="1045" y="642" type="qcurve" smooth="yes" name="inserted"/>
      <point x="1080" y="597"/>
      <point x="1119" y="485"/>
      <point x="1119" y="420" type="qcurve" smooth="yes"/>
      <point x="1120" y="318"/>
      <point x="1040" y="162"/>
      <point x="973" y="110" type="qcurve" smooth="yes" name="inserted"/>
      <point x="906" y="57"/>
      <point x="731" y="1"/>
      <point x="638" y="0" type="qcurve" smooth="yes"/>
    </contour>
    <contour>
      <point x="358" y="681" type="line"/>
      <point x="358" y="157" type="line"/>
      <point x="643" y="157" type="line" smooth="yes"/>
      <point x="701" y="158"/>
      <point x="805" y="195"/>
      <point x="845.0" y="228.0" type="qcurve" smooth="yes" name="inserted"/>
      <point x="885" y="261"/>
      <point x="932" y="357"/>
      <point x="932" y="418" type="qcurve" smooth="yes"/>
      <point x="933" y="480"/>
      <point x="890" y="576"/>
      <point x="852.0" y="609.5" type="qcurve" smooth="yes" name="inserted"/>
      <point x="814" y="643"/>
      <point x="712" y="679"/>
      <point x="653" y="681" type="qcurve" smooth="yes"/>
    </contour>
    <contour>
      <point x="358" y="835" type="line"/>
      <point x="616" y="835" type="line" smooth="yes"/>
      <point x="668" y="836"/>
      <point x="768" y="867"/>
      <point x="807.0" y="896.5" type="qcurve" smooth="yes" name="inserted"/>
      <point x="846" y="926"/>
      <point x="894" y="1012"/>
      <point x="894" y="1069" type="qcurve" smooth="yes"/>
      <point x="894" y="1130"/>
      <point x="847" y="1216"/>
      <point x="807.5" y="1243.5" type="qcurve" smooth="yes" name="inserted"/>
      <point x="768" y="1271"/>
      <point x="665" y="1297"/>
      <point x="611" y="1298" type="qcurve" smooth="yes"/>
      <point x="358" y="1298" type="line"/>
    </contour>
  </outline>
</glyph>
<glyph name="C" format="2">
  <advance width="1229"/>
  <unicode hex="0043"/>
  <outline>
    <contour>
      <point x="1117" y="438" type="line"/>
      <point x="1104" y="337"/>
      <point x="1026" y="168"/>
      <point x="963.5" y="107.5" type="qcurve" smooth="yes" name="inserted"/>
      <point x="901" y="47"/>
      <point x="730" y="-20"/>
      <point x="625" y="-20" type="qcurve" smooth="yes"/>
      <point x="535" y="-20"/>
      <point x="388" y="31"/>
      <point x="330.5" y="76.0" type="qcurve" smooth="yes" name="inserted"/>
      <point x="273" y="121"/>
      <point x="190" y="243"/>
      <point x="162.5" y="315.0" type="qcurve" smooth="yes" name="inserted"/>
      <point x="135" y="387"/>
      <point x="108" y="545"/>
      <point x="107" y="626" type="qcurve" smooth="yes"/>
      <point x="107" y="829" type="line" smooth="yes"/>
      <point x="108" y="910"/>
      <point x="135" y="1068"/>
      <point x="162.5" y="1140.0" type="qcurve" smooth="yes" name="inserted"/>
      <point x="190" y="1212"/>
      <point x="273" y="1335"/>
      <point x="330.5" y="1380.0" type="qcurve" smooth="yes" name="inserted"/>
      <point x="388" y="1425"/>
      <point x="534" y="1476"/>
      <point x="625" y="1476" type="qcurve" smooth="yes"/>
      <point x="734" y="1476"/>
      <point x="906" y="1409"/>
      <point x="968.0" y="1347.5" type="qcurve" smooth="yes" name="inserted"/>
      <point x="1030" y="1286"/>
      <point x="1105" y="1114"/>
      <point x="1117" y="1010" type="qcurve"/>
      <point x="932" y="1010" type="line"/>
      <point x="923" y="1076"/>
      <point x="879" y="1190"/>
      <point x="842.0" y="1233.0" type="qcurve" smooth="yes" name="inserted"/>
      <point x="805" y="1276"/>
      <point x="698" y="1325"/>
      <point x="625" y="1325" type="qcurve" smooth="yes"/>
      <point x="559" y="1325"/>
      <point x="458" y="1282"/>
      <point x="421.5" y="1245.0" type="qcurve" smooth="yes" name="inserted"/>
      <point x="385" y="1208"/>
      <point x="336" y="1110"/>
      <point x="321.0" y="1055.0" type="qcurve" smooth="yes" name="inserted"/>
      <point x="306" y="1000"/>
      <point x="293" y="885"/>
      <point x="293" y="831" type="qcurve" smooth="yes"/>
      <point x="293" y="626" type="line" smooth="yes"/>
      <point x="293" y="572"/>
      <point x="306" y="457"/>
      <point x="321.0" y="401.5" type="qcurve" smooth="yes" name="inserted"/>
      <point x="336" y="346"/>
      <point x="384" y="248"/>
      <point x="421.0" y="210.5" type="qcurve" smooth="yes" name="inserted"/>
      <point x="458" y="173"/>
      <point x="558" y="130"/>
      <point x="625" y="130" type="qcurve" smooth="yes"/>
      <point x="698" y="130"/>
      <point x="805" y="176"/>
      <point x="842.0" y="217.5" type="qcurve" smooth="yes" name="inserted"/>
      <point x="879" y="259"/>
      <point x="923" y="372"/>
      <point x="932" y="438" type="qcurve"/>
    </contour>
  </outline>
</glyph>
<glyph name="G" format="2">
  <advance width="1229"/>
  <unicode hex="0047"/>
  <outline>
    <contour>
      <point x="1116" y="191" type="line"/>
      <point x="1082" y="151"/>
      <point x="1006" y="86"/>
      <point x="965" y="62" type="qcurve" smooth="yes"/>
      <point x="895" y="20"/>
      <point x="733" y="-21"/>
      <point x="644" y="-20" type="qcurve" smooth="yes"/>
      <point x="554" y="-19"/>
      <point x="403" y="34"/>
      <point x="343" y="81" type="qcurve" smooth="yes" name="inserted"/>
      <point x="283" y="127"/>
      <point x="193" y="253"/>
      <point x="163" y="327" type="qcurve" smooth="yes" name="inserted"/>
      <point x="132" y="400"/>
      <point x="101" y="561"/>
      <point x="100" y="643" type="qcurve" smooth="yes"/>
      <point x="100" y="812" type="line" smooth="yes"/>
      <point x="101" y="893"/>
      <point x="128" y="1054"/>
      <point x="156" y="1128" type="qcurve" smooth="yes" name="inserted"/>
      <point x="184" y="1202"/>
      <point x="268" y="1329"/>
      <point x="327" y="1376" type="qcurve" smooth="yes" name="inserted"/>
      <point x="385" y="1422"/>
      <point x="533" y="1476"/>
      <point x="625" y="1476" type="qcurve" smooth="yes"/>
      <point x="727" y="1476"/>
      <point x="899" y="1413"/>
      <point x="963" y="1355" type="qcurve" smooth="yes" name="inserted"/>
      <point x="1027" y="1296"/>
      <point x="1105" y="1131"/>
      <point x="1114" y="1029" type="qcurve"/>
      <point x="931" y="1029" type="line"/>
      <point x="920" y="1092"/>
      <point x="874" y="1199"/>
      <point x="837" y="1237" type="qcurve" smooth="yes" name="inserted"/>
      <point x="799" y="1275"/>
      <point x="695" y="1318"/>
      <point x="626" y="1318" type="qcurve" smooth="yes"/>
      <point x="560" y="1318"/>
      <point x="458" y="1273"/>
      <point x="420" y="1235" type="qcurve" smooth="yes" name="inserted"/>
      <point x="382" y="1197"/>
      <point x="332" y="1096"/>
      <point x="316" y="1040" type="qcurve" smooth="yes" name="inserted"/>
      <point x="300" y="984"/>
      <point x="286" y="868"/>
      <point x="286" y="814" type="qcurve" smooth="yes"/>
      <point x="286" y="643" type="line" smooth="yes"/>
      <point x="287" y="588"/>
      <point x="304" y="471"/>
      <point x="322" y="415" type="qcurve" smooth="yes" name="inserted"/>
      <point x="340" y="359"/>
      <point x="396" y="259"/>
      <point x="436" y="221" type="qcurve" smooth="yes" name="inserted"/>
      <point x="475" y="183"/>
      <point x="579" y="138"/>
      <point x="645" y="137" type="qcurve" smooth="yes"/>
      <point x="683" y="136"/>
      <point x="766" y="144"/>
      <point x="805" y="156" type="qcurve" smooth="yes" name="inserted"/>
      <point x="844" y="168"/>
      <point x="912" y="209"/>
      <point x="935" y="242" type="qcurve"/>
      <point x="937" y="569" type="line"/>
      <point x="641" y="569" type="line"/>
      <point x="641" y="725" type="line"/>
      <point x="1113" y="725" type="line"/>
    </contour>
  </outline>
</glyph>
<glyph name="M" format="2">
  <advance width="1229"/>
  <unicode hex="004D"/>
  <outline>
    <contour>
      <point x="377" y="1456" type="line"/>
      <point x="614" y="728" type="line"/>
      <point x="870" y="1456" type="line"/>
      <point x="1100" y="1456" type="line"/>
      <point x="1100" y="0" type="line"/>
      <point x="920" y="0" type="line"/>
      <point x="920" y="581" type="line"/>
      <point x="935" y="1189" type="line"/>
      <point x="666" y="405" type="line"/>
      <point x="560" y="405" type="line"/>
      <point x="313" y="1168" type="line"/>
      <point x="328" y="581" type="line"/>
      <point x="328" y="0" type="line"/>
      <point x="148" y="0" type="line"/>
      <point x="148" y="1456" type="line"/>
    </contour>
  </outline>
</glyph>
<glyph name="Q" format="2">
  <advance width="1229"/>
  <unicode hex="0051"/>
  <outline>
    <contour>
      <point x="1134" y="663" type="line"/>
      <point x="1133" y="582"/>
      <point x="1107" y="418"/>
      <point x="1080.5" y="342.0" type="qcurve" smooth="yes" name="inserted"/>
      <point x="1054" y="266"/>
      <point x="971" y="133"/>
      <point x="913" y="84" type="qcurve"/>
      <point x="1164" y="-125" type="line"/>
      <point x="1037" y="-246" type="line"/>
      <point x="749" y="-2" type="line"/>
      <point x="718.0" y="-11.0" name="inserted"/>
      <point x="651.0" y="-20.0"/>
      <point x="615" y="-20" type="qcurve" smooth="yes"/>
      <point x="522" y="-20"/>
      <point x="374" y="37"/>
      <point x="316.5" y="86.0" type="qcurve" smooth="yes" name="inserted"/>
      <point x="259" y="135"/>
      <point x="175" y="268"/>
      <point x="148.0" y="344.0" type="qcurve" smooth="yes" name="inserted"/>
      <point x="121" y="420"/>
      <point x="95" y="583"/>
      <point x="94" y="663" type="qcurve" smooth="yes"/>
      <point x="94" y="791" type="line" smooth="yes"/>
      <point x="95" y="871"/>
      <point x="121" y="1035"/>
      <point x="148.0" y="1111.0" type="qcurve" smooth="yes" name="inserted"/>
      <point x="175" y="1187"/>
      <point x="257" y="1320"/>
      <point x="314.5" y="1369.5" type="qcurve" smooth="yes" name="inserted"/>
      <point x="372" y="1419"/>
      <point x="521" y="1476"/>
      <point x="614" y="1476" type="qcurve" smooth="yes"/>
      <point x="707" y="1476"/>
      <point x="856" y="1419"/>
      <point x="913.5" y="1370.0" type="qcurve" smooth="yes" name="inserted"/>
      <point x="971" y="1321"/>
      <point x="1054" y="1188"/>
      <point x="1080.5" y="1112.0" type="qcurve" smooth="yes" name="inserted"/>
      <point x="1107" y="1036"/>
      <point x="1133" y="871"/>
      <point x="1134" y="791" type="qcurve" smooth="yes"/>
    </contour>
    <contour>
      <point x="950" y="793" type="line" smooth="yes"/>
      <point x="949" y="848"/>
      <point x="938" y="967"/>
      <point x="923.5" y="1024.5" type="qcurve" smooth="yes" name="inserted"/>
      <point x="909" y="1082"/>
      <point x="860" y="1186"/>
      <point x="823.0" y="1225.5" type="qcurve" smooth="yes" name="inserted"/>
      <point x="786" y="1265"/>
      <point x="683" y="1311"/>
      <point x="614" y="1311" type="qcurve" smooth="yes"/>
      <point x="546" y="1311"/>
      <point x="444" y="1264"/>
      <point x="407.0" y="1224.5" type="qcurve" smooth="yes" name="inserted"/>
      <point x="370" y="1185"/>
      <point x="321" y="1081"/>
      <point x="306.0" y="1023.5" type="qcurve" smooth="yes" name="inserted"/>
      <point x="291" y="966"/>
      <point x="278" y="847"/>
      <point x="278" y="793" type="qcurve" smooth="yes"/>
      <point x="278" y="663" type="line" smooth="yes"/>
      <point x="278" y="609"/>
      <point x="291" y="490"/>
      <point x="306.0" y="432.0" type="qcurve" smooth="yes" name="inserted"/>
      <point x="321" y="374"/>
      <point x="370" y="270"/>
      <point x="407.0" y="230.0" type="qcurve" smooth="yes" name="inserted"/>
      <point x="444" y="190"/>
      <point x="547" y="143"/>
      <point x="615" y="143" type="qcurve" smooth="yes"/>
      <point x="684" y="143"/>
      <point x="787" y="190"/>
      <point x="824.0" y="229.5" type="qcurve" smooth="yes" name="inserted"/>
      <point x="861" y="269"/>
      <point x="909" y="373"/>
      <point x="923.5" y="431.0" type="qcurve" smooth="yes" name="inserted"/>
      <point x="938" y="489"/>
      <point x="949" y="608"/>
      <point x="950" y="663" type="qcurve" smooth="yes"/>
    </contour>
  </outline>
</glyph>
<glyph name="R" format="2">
  <advance width="1229"/>
  <unicode hex="0052"/>
  <outline>
    <contour>
      <point x="656" y="594" type="line"/>
      <point x="365" y="594" type="line"/>
      <point x="365" y="0" type="line"/>
      <point x="181" y="0" type="line"/>
      <point x="181" y="1456" type="line"/>
      <point x="608" y="1456" type="line" smooth="yes"/>
      <point x="710" y="1454"/>
      <point x="890" y="1400"/>
      <point x="957.5" y="1346.0" type="qcurve" smooth="yes" name="inserted"/>
      <point x="1025" y="1292"/>
      <point x="1102" y="1129"/>
      <point x="1102" y="1019" type="qcurve" smooth="yes"/>
      <point x="1102" y="948"/>
      <point x="1061" y="830"/>
      <point x="1025.0" y="782.0" type="qcurve" smooth="yes" name="inserted"/>
      <point x="989" y="734"/>
      <point x="889" y="660"/>
      <point x="829" y="634" type="qcurve"/>
      <point x="1138" y="12" type="line"/>
      <point x="1137" y="0" type="line"/>
      <point x="942" y="0" type="line"/>
    </contour>
    <contour>
      <point x="365" y="746" type="line"/>
      <point x="613" y="746" type="line" smooth="yes"/>
      <point x="675" y="747"/>
      <point x="785" y="784"/>
      <point x="826.5" y="819.0" type="qcurve" smooth="yes" name="inserted"/>
      <point x="868" y="854"/>
      <point x="916" y="955"/>
      <point x="916" y="1021" type="qcurve" smooth="yes"/>
      <point x="916" y="1091"/>
      <point x="870" y="1196"/>
      <point x="829.0" y="1231.5" type="qcurve" smooth="yes" name="inserted"/>
      <point x="788" y="1267"/>
      <point x="675" y="1303"/>
      <point x="608" y="1304" type="qcurve" smooth="yes"/>
      <point x="365" y="1304" type="line"/>
    </contour>
  </outline>
</glyph>
<glyph name="S" format="2">
  <advance width="1229"/>
  <unicode hex="0053"/>
  <outline>
    <contour>
      <point x="936" y="368" type="qcurve" smooth="yes"/>
      <point x="936" y="435"/>
      <point x="875" y="527"/>
      <point x="827" y="559" type="qcurve" smooth="yes" name="inserted"/>
      <point x="779" y="590"/>
      <point x="664" y="632"/>
      <point x="611" y="649" type="qcurve" smooth="yes"/>
      <point x="534" y="674"/>
      <point x="375" y="745"/>
      <point x="310" y="795" type="qcurve" smooth="yes" name="inserted"/>
      <point x="244" y="846"/>
      <point x="161" y="985"/>
      <point x="161" y="1079" type="qcurve" smooth="yes"/>
      <point x="161" y="1173"/>
      <point x="244" y="1321"/>
      <point x="311" y="1372" type="qcurve" smooth="yes" name="inserted"/>
      <point x="378" y="1423"/>
      <point x="548" y="1476"/>
      <point x="634" y="1476" type="qcurve" smooth="yes"/>
      <point x="729" y="1476"/>
      <point x="905" y="1413"/>
      <point x="973" y="1356" type="qcurve" smooth="yes" name="inserted"/>
      <point x="1041" y="1299"/>
      <point x="1123" y="1137"/>
      <point x="1125" y="1037" type="qcurve"/>
      <point x="935" y="1037" type="line"/>
      <point x="927" y="1100"/>
      <point x="881" y="1203"/>
      <point x="843" y="1240" type="qcurve" smooth="yes" name="inserted"/>
      <point x="805" y="1277"/>
      <point x="700" y="1318"/>
      <point x="634" y="1318" type="qcurve" smooth="yes"/>
      <point x="581" y="1318"/>
      <point x="480" y="1288"/>
      <point x="441" y="1258" type="qcurve" smooth="yes" name="inserted"/>
      <point x="401" y="1228"/>
      <point x="354" y="1140"/>
      <point x="354" y="1082" type="qcurve" smooth="yes"/>
      <point x="355" y="1019"/>
      <point x="417" y="932"/>
      <point x="465" y="902" type="qcurve" smooth="yes" name="inserted"/>
      <point x="512" y="872"/>
      <point x="623" y="832"/>
      <point x="672" y="817" type="qcurve" smooth="yes"/>
      <point x="753" y="792"/>
      <point x="915" y="721"/>
      <point x="982" y="666" type="qcurve" smooth="yes"/>
      <point x="1048" y="615"/>
      <point x="1129" y="467"/>
      <point x="1129" y="370" type="qcurve" smooth="yes"/>
      <point x="1129" y="272"/>
      <point x="1042" y="126"/>
      <point x="973" y="78" type="qcurve" smooth="yes" name="inserted"/>
      <point x="904" y="29"/>
      <point x="730" y="-20"/>
      <point x="643" y="-20" type="qcurve" smooth="yes"/>
      <point x="538.6449740273631" y="-20.0"/>
      <point x="338.24568158754164" y="49.70921286826638"/>
      <point x="264" y="116" type="qcurve" smooth="yes"/>
      <point x="198.00000000000006" y="173.0"/>
      <point x="121.00000000000001" y="325.5"/>
      <point x="118" y="420" type="qcurve"/>
      <point x="307" y="420" type="line"/>
      <point x="316" y="352"/>
      <point x="372" y="247"/>
      <point x="416" y="211" type="qcurve" smooth="yes" name="inserted"/>
      <point x="460" y="174"/>
      <point x="575" y="137"/>
      <point x="643" y="137" type="qcurve" smooth="yes"/>
      <point x="697" y="137"/>
      <point x="802" y="164"/>
      <point x="843" y="193" type="qcurve" smooth="yes" name="inserted"/>
      <point x="884" y="221"/>
      <point x="936" y="308"/>
    </contour>
  </outline>
</glyph>
<glyph name="T" format="2">
  <advance width="1229"/>
  <unicode hex="0054"/>
  <outline>
    <contour>
      <point x="1156" y="1298" type="line"/>
      <point x="706" y="1298" type="line"/>
      <point x="706" y="0" type="line"/>
      <point x="526" y="0" type="line"/>
      <point x="526" y="1298" type="line"/>
      <point x="76" y="1298" type="line"/>
      <point x="76" y="1456" type="line"/>
      <point x="1156" y="1456" type="line"/>
    </contour>
  </outline>
</glyph>
<glyph name="bracketright" format="2">
  <advance width="1229"/>
  <unicode hex="005D"/>
  <outline>
    <contour>
      <point x="405" y="1664" type="line"/>
      <point x="802" y="1664" type="line"/>
      <point x="802" y="-312" type="line"/>
      <point x="405" y="-312" type="line"/>
      <point x="405" y="-160" type="line"/>
      <point x="627" y="-160" type="line"/>
      <point x="627" y="1512" type="line"/>
      <point x="405" y="1512" type="line"/>
    </contour>
  </outline>
</glyph>
<glyph name="underscore" format="2">
  <advance width="1229"/>
  <unicode hex="005F"/>
  <outline>
    <contour>
      <point x="1072" y="-151" type="line"/>
      <point x="155" y="-151" type="line"/>
      <point x="155" y="0" type="line"/>
      <point x="1072" y="0" type="line"/>
    </contour>
  </outline>
</glyph>
<glyph name="b" format="2">
  <advance width="1229"/>
  <unicode hex="0062"/>
  <outline>
    <contour>
      <point x="1091" y="529" type="line" smooth="yes"/>
      <point x="1091" y="458"/>
      <point x="1070" y="327"/>
      <point x="1050" y="270" type="qcurve" smooth="yes"/>
      <point x="1023" y="195"/>
      <point x="936" y="76"/>
      <point x="875" y="37" type="qcurve" smooth="yes"/>
      <point x="831" y="10"/>
      <point x="726" y="-20"/>
      <point x="665" y="-20" type="qcurve" smooth="yes"/>
      <point x="595" y="-20"/>
      <point x="480" y="14"/>
      <point x="434" y="46" type="qcurve" smooth="yes"/>
      <point x="412" y="62"/>
      <point x="372" y="100"/>
      <point x="354" y="123" type="qcurve"/>
      <point x="345" y="0" type="line"/>
      <point x="175" y="0" type="line"/>
      <point x="175" y="1536" type="line"/>
      <point x="360" y="1536" type="line"/>
      <point x="360" y="966" type="line"/>
      <point x="383" y="995"/>
      <point x="439" y="1042"/>
      <point x="471" y="1059" type="qcurve" smooth="yes"/>
      <point x="511" y="1080"/>
      <point x="607" y="1102"/>
      <point x="663" y="1102" type="qcurve" smooth="yes"/>
      <point x="733" y="1102"/>
      <point x="851" y="1064"/>
      <point x="899" y="1030" type="qcurve" smooth="yes"/>
      <point x="942.2405807997477" y="998.0395707132301"/>
      <point x="1010.3640276565857" y="906.5446067440643"/>
      <point x="1036" y="851" type="qcurve" smooth="yes"/>
      <point x="1063" y="788"/>
      <point x="1091" y="635"/>
      <point x="1091" y="550" type="qcurve" smooth="yes"/>
    </contour>
    <contour>
      <point x="906" y="550" type="line" smooth="yes"/>
      <point x="906" y="601"/>
      <point x="893" y="698"/>
      <point x="880" y="741" type="qcurve" smooth="yes"/>
      <point x="861.6210418501071" y="793.839504680942"/>
      <point x="804.4989665848091" y="882.2089361588614"/>
      <point x="762" y="907" type="qcurve" smooth="yes"/>
      <point x="733" y="925"/>
      <point x="661" y="945"/>
      <point x="617" y="945" type="qcurve" smooth="yes"/>
      <point x="569" y="945"/>
      <point x="489" y="920"/>
      <point x="458" y="898" type="qcurve" smooth="yes" name="inserted"/>
      <point x="426" y="875"/>
      <point x="377" y="814"/>
      <point x="360" y="778" type="qcurve"/>
      <point x="360" y="305" type="line"/>
      <point x="378" y="269"/>
      <point x="427" y="208"/>
      <point x="459" y="185" type="qcurve" smooth="yes" name="inserted"/>
      <point x="491" y="162"/>
      <point x="571" y="137"/>
      <point x="619" y="137" type="qcurve" smooth="yes"/>
      <point x="665" y="137"/>
      <point x="741" y="160"/>
      <point x="771" y="182" type="qcurve" smooth="yes"/>
      <point x="811" y="210"/>
      <point x="865" y="296"/>
      <point x="881" y="349" type="qcurve" smooth="yes"/>
      <point x="894" y="389"/>
      <point x="906" y="481"/>
      <point x="906" y="529" type="qcurve" smooth="yes"/>
    </contour>
  </outline>
</glyph>
<glyph name="g" format="2">
  <advance width="1229"/>
  <unicode hex="0067"/>
  <outline>
    <contour>
      <point x="140" y="550" type="line" smooth="yes"/>
      <point x="140" y="671"/>
      <point x="199" y="874"/>
      <point x="255" y="947" type="qcurve" smooth="yes" name="inserted"/>
      <point x="311" y="1020"/>
      <point x="471" y="1102"/>
      <point x="572" y="1102" type="qcurve" smooth="yes"/>
      <point x="637" y="1102"/>
      <point x="746" y="1072"/>
      <point x="790" y="1043" type="qcurve" smooth="yes"/>
      <point x="814" y="1028"/>
      <point x="857" y="988"/>
      <point x="876" y="964" type="qcurve"/>
      <point x="885" y="1082" type="line"/>
      <point x="1053" y="1082" type="line"/>
      <point x="1053" y="23" type="line" smooth="yes"/>
      <point x="1053" y="-84"/>
      <point x="986" y="-250"/>
      <point x="926" y="-308" type="qcurve" smooth="yes" name="inserted"/>
      <point x="865" y="-366"/>
      <point x="697" y="-426"/>
      <point x="595" y="-426" type="qcurve" smooth="yes"/>
      <point x="553" y="-426"/>
      <point x="445" y="-407"/>
      <point x="390" y="-385" type="qcurve" smooth="yes" name="inserted"/>
      <point x="334" y="-364"/>
      <point x="231" y="-292"/>
      <point x="194" y="-239" type="qcurve"/>
      <point x="290" y="-128" type="line"/>
      <point x="324" y="-169"/>
      <point x="396" y="-226"/>
      <point x="433" y="-243" type="qcurve" smooth="yes" name="inserted"/>
      <point x="470" y="-260"/>
      <point x="544" y="-275"/>
      <point x="581" y="-275" type="qcurve" smooth="yes"/>
      <point x="647" y="-275"/>
      <point x="753" y="-237"/>
      <point x="791" y="-200" type="qcurve" smooth="yes" name="inserted"/>
      <point x="828" y="-164"/>
      <point x="868" y="-56"/>
      <point x="868" y="14" type="qcurve" smooth="yes"/>
      <point x="868" y="107" type="line"/>
      <point x="847" y="83"/>
      <point x="800" y="43"/>
      <point x="773" y="28" type="qcurve" smooth="yes"/>
      <point x="731" y="5"/>
      <point x="629" y="-20"/>
      <point x="570" y="-20" type="qcurve" smooth="yes"/>
      <point x="471" y="-20"/>
      <point x="311" y="64"/>
      <point x="256" y="138" type="qcurve" smooth="yes" name="inserted"/>
      <point x="200" y="212"/>
      <point x="140" y="413"/>
      <point x="140" y="529" type="qcurve" smooth="yes"/>
    </contour>
    <contour>
      <point x="325" y="529" type="line" smooth="yes"/>
      <point x="325" y="450"/>
      <point x="358" y="308"/>
      <point x="393.5" y="254.0" type="qcurve" smooth="yes" name="inserted"/>
      <point x="429" y="200"/>
      <point x="539" y="137"/>
      <point x="616" y="137" type="qcurve" smooth="yes"/>
      <point x="664" y="137"/>
      <point x="741" y="160"/>
      <point x="771.5" y="181.0" type="qcurve" smooth="yes" name="inserted"/>
      <point x="802" y="202"/>
      <point x="850" y="260"/>
      <point x="868" y="295" type="qcurve"/>
      <point x="868" y="791" type="line"/>
      <point x="850" y="825"/>
      <point x="802" y="881"/>
      <point x="771.0" y="901.5" type="qcurve" smooth="yes" name="inserted"/>
      <point x="740" y="922"/>
      <point x="664" y="945"/>
      <point x="618" y="945" type="qcurve" smooth="yes"/>
      <point x="540" y="945"/>
      <point x="429" y="881"/>
      <point x="393.5" y="826.5" type="qcurve" smooth="yes" name="inserted"/>
      <point x="358" y="772"/>
      <point x="325" y="629"/>
      <point x="325" y="550" type="qcurve" smooth="yes"/>
    </contour>
  </outline>
</glyph>
<glyph name="h" format="2">
  <advance width="1229"/>
  <unicode hex="0068"/>
  <outline>
    <contour>
      <point x="359" y="921" type="line"/>
      <point x="381" y="954"/>
      <point x="435" y="1009"/>
      <point x="465" y="1030" type="qcurve" smooth="yes"/>
      <point x="513" y="1065"/>
      <point x="628" y="1101"/>
      <point x="693" y="1102" type="qcurve" smooth="yes"/>
      <point x="778" y="1102"/>
      <point x="917" y="1053"/>
      <point x="966" y="1001" type="qcurve" smooth="yes" name="inserted"/>
      <point x="1015" y="949"/>
      <point x="1068" y="790"/>
      <point x="1068" y="681" type="qcurve" smooth="yes"/>
      <point x="1068" y="0" type="line"/>
      <point x="883" y="0" type="line"/>
      <point x="883" y="683" type="line" smooth="yes"/>
      <point x="883" y="747"/>
      <point x="853" y="844"/>
      <point x="824" y="876" type="qcurve" smooth="yes"/>
      <point x="793" y="911"/>
      <point x="699" y="946"/>
      <point x="638" y="945" type="qcurve" smooth="yes"/>
      <point x="588" y="945"/>
      <point x="498" y="917"/>
      <point x="460" y="891" type="qcurve" smooth="yes"/>
      <point x="430" y="871"/>
      <point x="379" y="818"/>
      <point x="359" y="786" type="qcurve"/>
      <point x="359" y="0" type="line"/>
      <point x="174" y="0" type="line"/>
      <point x="174" y="1536" type="line"/>
      <point x="359" y="1536" type="line"/>
    </contour>
  </outline>
</glyph>
<glyph name="i" format="2">
  <advance width="1229"/>
  <unicode hex="0069"/>
  <outline>
    <contour>
      <point x="203" y="1082" type="line"/>
      <point x="756" y="1082" type="line"/>
      <point x="756" y="160" type="line"/>
      <point x="1109" y="160" type="line"/>
      <point x="1109" y="0" type="line"/>
      <point x="203" y="0" type="line"/>
      <point x="203" y="160" type="line"/>
      <point x="571" y="160" type="line"/>
      <point x="571" y="921" type="line"/>
      <point x="203" y="921" type="line"/>
    </contour>
    <contour>
      <point x="547" y="1366" type="qcurve" smooth="yes"/>
      <point x="547" y="1390"/>
      <point x="562" y="1432"/>
      <point x="578" y="1447" type="qcurve" smooth="yes"/>
      <point x="591" y="1460"/>
      <point x="632" y="1475"/>
      <point x="658" y="1475" type="qcurve" smooth="yes"/>
      <point x="684" y="1475"/>
      <point x="724" y="1460"/>
      <point x="737" y="1447" type="qcurve" smooth="yes"/>
      <point x="753" y="1433"/>
      <point x="769" y="1391"/>
      <point x="769" y="1366" type="qcurve" smooth="yes"/>
      <point x="769" y="1321"/>
      <point x="713" y="1261"/>
      <point x="658" y="1261" type="qcurve" smooth="yes"/>
      <point x="602" y="1261"/>
      <point x="547" y="1321"/>
    </contour>
  </outline>
</glyph>
<glyph name="k" format="2">
  <advance width="1229"/>
  <unicode hex="006B"/>
  <outline>
    <contour>
      <point x="498" y="505" type="line"/>
      <point x="362" y="374" type="line"/>
      <point x="362" y="0" type="line"/>
      <point x="176" y="0" type="line"/>
      <point x="176" y="1536" type="line"/>
      <point x="362" y="1536" type="line"/>
      <point x="362" y="596" type="line"/>
      <point x="483" y="726" type="line"/>
      <point x="838" y="1082" type="line"/>
      <point x="1063" y="1082" type="line"/>
      <point x="625" y="631" type="line"/>
      <point x="1130" y="0" type="line"/>
      <point x="895" y="0" type="line"/>
    </contour>
  </outline>
</glyph>
<glyph name="m" format="2">
  <advance width="1229"/>
  <unicode hex="006D"/>
  <outline>
    <contour>
      <point x="259" y="1082" type="line"/>
      <point x="264" y="980" type="line"/>
      <point x="297" y="1037"/>
      <point x="404" y="1101"/>
      <point x="480" y="1102" type="qcurve" smooth="yes"/>
      <point x="523" y="1102"/>
      <point x="592" y="1083"/>
      <point x="618" y="1065" type="qcurve" smooth="yes"/>
      <point x="637" y="1051"/>
      <point x="668" y="1011"/>
      <point x="679" y="986" type="qcurve"/>
      <point x="693" y="1009"/>
      <point x="731" y="1049"/>
      <point x="753" y="1064" type="qcurve" smooth="yes"/>
      <point x="781" y="1081"/>
      <point x="850" y="1101"/>
      <point x="891" y="1102" type="qcurve" smooth="yes"/>
      <point x="947" y="1102"/>
      <point x="1037" y="1069"/>
      <point x="1068" y="1037" type="qcurve" smooth="yes"/>
      <point x="1102" y="1001"/>
      <point x="1138" y="886"/>
      <point x="1138" y="808" type="qcurve" smooth="yes"/>
      <point x="1138" y="0" type="line"/>
      <point x="962" y="0" type="line"/>
      <point x="962" y="810" type="line" smooth="yes"/>
      <point x="962" y="844"/>
      <point x="946" y="896"/>
      <point x="931" y="913" type="qcurve" smooth="yes"/>
      <point x="915" y="929"/>
      <point x="868" y="945"/>
      <point x="837" y="945" type="qcurve" smooth="yes"/>
      <point x="804" y="945"/>
      <point x="756" y="927"/>
      <point x="740" y="912" type="qcurve" smooth="yes" name="inserted"/>
      <point x="724" y="896"/>
      <point x="706" y="855"/>
      <point x="703" y="830" type="qcurve"/>
      <point x="703.0" y="825.0"/>
      <point x="703" y="816"/>
      <point x="703" y="810" type="qcurve"/>
      <point x="703" y="0" type="line"/>
      <point x="527" y="0" type="line"/>
      <point x="527" y="811" type="line" smooth="yes"/>
      <point x="527" y="845"/>
      <point x="512" y="897"/>
      <point x="496" y="914" type="qcurve" smooth="yes"/>
      <point x="481" y="930"/>
      <point x="436" y="945"/>
      <point x="406" y="945" type="qcurve" smooth="yes"/>
      <point x="373" y="945"/>
      <point x="324" y="930"/>
      <point x="307" y="916" type="qcurve" smooth="yes"/>
      <point x="294" y="905"/>
      <point x="275" y="877"/>
      <point x="269" y="861" type="qcurve"/>
      <point x="269" y="0" type="line"/>
      <point x="93" y="0" type="line"/>
      <point x="93" y="1082" type="line"/>
    </contour>
  </outline>
</glyph>
<glyph name="n" format="2">
  <advance width="1229"/>
  <unicode hex="006E"/>
  <outline>
    <contour>
      <point x="174" y="0" type="line"/>
      <point x="174" y="1082" type="line"/>
      <point x="340" y="1082" type="line"/>
      <point x="353" y="922" type="line"/>
      <point x="377" y="956"/>
      <point x="434" y="1013"/>
      <point x="466" y="1034" type="qcurve" smooth="yes"/>
      <point x="514" y="1066"/>
      <point x="627" y="1101"/>
      <point x="690" y="1102" type="qcurve" smooth="yes"/>
      <point x="775" y="1102"/>
      <point x="914" y="1054"/>
      <point x="963" y="1003" type="qcurve" smooth="yes" name="inserted"/>
      <point x="1012" y="952"/>
      <point x="1065" y="795"/>
      <point x="1065" y="687" type="qcurve" smooth="yes"/>
      <point x="1065" y="0" type="line"/>
      <point x="880" y="0" type="line"/>
      <point x="880" y="683" type="line" smooth="yes"/>
      <point x="880" y="755"/>
      <point x="848" y="855"/>
      <point x="817" y="886" type="qcurve" smooth="yes" name="inserted"/>
      <point x="785" y="917"/>
      <point x="694" y="945"/>
      <point x="635" y="945" type="qcurve" smooth="yes"/>
      <point x="584" y="945"/>
      <point x="496" y="916"/>
      <point x="459" y="891" type="qcurve" smooth="yes"/>
      <point x="429" y="869"/>
      <point x="378" y="811"/>
      <point x="359" y="776" type="qcurve"/>
      <point x="359" y="0" type="line"/>
    </contour>
  </outline>
</glyph>
<glyph name="s" format="2">
  <advance width="1229"/>
  <unicode hex="0073"/>
  <outline>
    <contour>
      <point x="893" y="287" type="qcurve" smooth="yes"/>
      <point x="893" y="320"/>
      <point x="867" y="373"/>
      <point x="836" y="395" type="qcurve" smooth="yes" name="inserted"/>
      <point x="805" y="417"/>
      <point x="703" y="454"/>
      <point x="627" y="469" type="qcurve" smooth="yes"/>
      <point x="534" y="488"/>
      <point x="381" y="542"/>
      <point x="327" y="580" type="qcurve" smooth="yes" name="inserted"/>
      <point x="272" y="617"/>
      <point x="212" y="718"/>
      <point x="212" y="785" type="qcurve" smooth="yes"/>
      <point x="212" y="851"/>
      <point x="274" y="966"/>
      <point x="330" y="1009" type="qcurve" smooth="yes" name="inserted"/>
      <point x="386" y="1052"/>
      <point x="541" y="1102"/>
      <point x="634" y="1102" type="qcurve" smooth="yes"/>
      <point x="734" y="1102"/>
      <point x="894" y="1050"/>
      <point x="950" y="1004" type="qcurve" smooth="yes" name="inserted"/>
      <point x="1006" y="958"/>
      <point x="1067" y="835"/>
      <point x="1067" y="764" type="qcurve"/>
      <point x="882" y="764" type="line"/>
      <point x="882" y="799"/>
      <point x="846" y="866"/>
      <point x="814" y="892" type="qcurve" smooth="yes" name="inserted"/>
      <point x="782" y="918"/>
      <point x="691" y="950"/>
      <point x="634" y="950" type="qcurve" smooth="yes"/>
      <point x="575" y="950"/>
      <point x="486" y="924"/>
      <point x="457" y="902" type="qcurve" smooth="yes" name="inserted"/>
      <point x="427" y="880"/>
      <point x="397" y="822"/>
      <point x="397" y="791" type="qcurve" smooth="yes"/>
      <point x="397" y="759"/>
      <point x="421" y="709"/>
      <point x="451" y="689" type="qcurve" smooth="yes" name="inserted"/>
      <point x="480" y="669"/>
      <point x="579" y="637"/>
      <point x="655" y="622" type="qcurve" smooth="yes"/>
      <point x="755" y="601"/>
      <point x="913" y="546"/>
      <point x="967" y="508" type="qcurve" smooth="yes" name="inserted"/>
      <point x="1021" y="469"/>
      <point x="1078" y="367"/>
      <point x="1078" y="300" type="qcurve" smooth="yes"/>
      <point x="1078" y="228"/>
      <point x="1013" y="110"/>
      <point x="955" y="68" type="qcurve" smooth="yes" name="inserted"/>
      <point x="897" y="26"/>
      <point x="735" y="-20"/>
      <point x="639" y="-20" type="qcurve" smooth="yes"/>
      <point x="529" y="-20"/>
      <point x="357" y="39"/>
      <point x="298" y="88" type="qcurve" smooth="yes" name="inserted"/>
      <point x="238" y="136"/>
      <point x="175" y="264"/>
      <point x="175" y="333" type="qcurve"/>
      <point x="360" y="333" type="line"/>
      <point x="364" y="276"/>
      <point x="417" y="198"/>
      <point x="457" y="174" type="qcurve" smooth="yes" name="inserted"/>
      <point x="496" y="150"/>
      <point x="592" y="130"/>
      <point x="639" y="130" type="qcurve" smooth="yes"/>
      <point x="713" y="130"/>
      <point x="823" y="165"/>
      <point x="854" y="196" type="qcurve" smooth="yes"/>
      <point x="873" y="215"/>
      <point x="893" y="261"/>
    </contour>
  </outline>
</glyph>
<glyph name="t" format="2">
  <advance width="1229"/>
  <unicode hex="0074"/>
  <outline>
    <contour>
      <point x="612" y="1344" type="line"/>
      <point x="612" y="1082" type="line"/>
      <point x="1024" y="1082" type="line"/>
      <point x="1024" y="939" type="line"/>
      <point x="612" y="939" type="line"/>
      <point x="612" y="351" type="line" smooth="yes"/>
      <point x="612" y="288"/>
      <point x="644" y="206"/>
      <point x="672.0" y="181.5" type="qcurve" smooth="yes" name="inserted"/>
      <point x="700" y="157"/>
      <point x="773" y="137"/>
      <point x="814" y="137" type="qcurve" smooth="yes"/>
      <point x="844" y="137"/>
      <point x="908" y="144"/>
      <point x="938.5" y="149.0" type="qcurve" smooth="yes" name="inserted"/>
      <point x="969" y="154"/>
      <point x="1022" y="165"/>
      <point x="1039" y="169" type="qcurve"/>
      <point x="1065" y="38" type="line"/>
      <point x="1042" y="24"/>
      <point x="976" y="3"/>
      <point x="937.0" y="-4.5" type="qcurve" smooth="yes" name="inserted"/>
      <point x="898" y="-12"/>
      <point x="811" y="-20"/>
      <point x="768" y="-20" type="qcurve" smooth="yes"/>
      <point x="696" y="-20"/>
      <point x="571" y="21"/>
      <point x="525.0" y="65.5" type="qcurve" smooth="yes" name="inserted"/>
      <point x="479" y="110"/>
      <point x="426" y="251"/>
      <point x="426" y="351" type="qcurve" smooth="yes"/>
      <point x="426" y="939" type="line"/>
      <point x="142" y="939" type="line"/>
      <point x="142" y="1082" type="line"/>
      <point x="426" y="1082" type="line"/>
      <point x="426" y="1344" type="line"/>
    </contour>
  </outline>
</glyph>
<glyph name="u" format="2">
  <advance width="1229"/>
  <unicode hex="0075"/>
  <outline>
    <contour>
      <point x="887" y="0" type="line"/>
      <point x="876" y="149" type="line"/>
      <point x="822" y="69"/>
      <point x="660" y="-20"/>
      <point x="554" y="-20" type="qcurve" smooth="yes"/>
      <point x="469" y="-20"/>
      <point x="331" y="33"/>
      <point x="282" y="89" type="qcurve" smooth="yes" name="inserted"/>
      <point x="233" y="145"/>
      <point x="180" y="318"/>
      <point x="180" y="439" type="qcurve" smooth="yes"/>
      <point x="180" y="1082" type="line"/>
      <point x="365" y="1082" type="line"/>
      <point x="365" y="437" type="line" smooth="yes"/>
      <point x="365" y="349"/>
      <point x="393" y="233"/>
      <point x="421" y="199" type="qcurve" smooth="yes" name="inserted"/>
      <point x="449" y="164"/>
      <point x="530" y="136"/>
      <point x="583" y="136" type="qcurve" smooth="yes"/>
      <point x="645" y="136"/>
      <point x="743" y="165"/>
      <point x="779" y="191" type="qcurve" smooth="yes"/>
      <point x="809" y="212"/>
      <point x="854" y="271"/>
      <point x="869" y="306" type="qcurve"/>
      <point x="869" y="1082" type="line"/>
      <point x="1055" y="1082" type="line"/>
      <point x="1055" y="0" type="line"/>
    </contour>
  </outline>
</glyph>
<glyph name="y" format="2">
  <advance width="1229"/>
  <unicode hex="0079"/>
  <outline>
    <contour>
      <point x="261" y="-437" type="qcurve" smooth="yes"/>
      <point x="235.12322552986512" y="-437.0"/>
      <point x="165.08612636428154" y="-425.0191391920626"/>
      <point x="147" y="-421" type="qcurve"/>
      <point x="177" y="-270" type="line"/>
      <point x="202.0" y="-272.0"/>
      <point x="251.0" y="-275.0"/>
      <point x="265" y="-275" type="qcurve" smooth="yes"/>
      <point x="303" y="-275"/>
      <point x="366" y="-233"/>
      <point x="391" y="-204" type="qcurve" smooth="yes" name="inserted"/>
      <point x="415" y="-175"/>
      <point x="450" y="-113"/>
      <point x="460" y="-93" type="qcurve"/>
      <point x="534" y="51" type="line"/>
      <point x="68" y="1082" type="line"/>
      <point x="275" y="1082" type="line"/>
      <point x="572" y="384" type="line"/>
      <point x="620" y="253" type="line"/>
      <point x="671" y="380" type="line"/>
      <point x="950" y="1082" type="line"/>
      <point x="1157" y="1082" type="line"/>
      <point x="608" y="-167" type="line"/>
      <point x="589" y="-209"/>
      <point x="530" y="-303"/>
      <point x="488" y="-343" type="qcurve" smooth="yes" name="inserted"/>
      <point x="446" y="-383"/>
      <point x="334" y="-437"/>
    </contour>
  </outline>
</glyph>
<glyph name="bar" format="2">
  <advance width="1229"/>
  <unicode hex="007C"/>
  <outline>
    <contour>
      <point x="689" y="-398" type="line"/>
      <point x="540" y="-398" type="line"/>
      <point x="540" y="1456" type="line"/>
      <point x="689" y="1456" type="line"/>
    </contour>
  </outline>
</glyph>
<glyph name="braceright" format="2">
  <advance width="1229"/>
  <unicode hex="007D"/>
  <outline>
    <contour>
      <point x="323" y="-251" type="line"/>
      <point x="384" y="-249"/>
      <point x="466" y="-185"/>
      <point x="491" y="-135" type="qcurve" smooth="yes" name="inserted"/>
      <point x="515" y="-86"/>
      <point x="536" y="37"/>
      <point x="536" y="99" type="qcurve" smooth="yes"/>
      <point x="536" y="268" type="line" smooth="yes"/>
      <point x="536" y="347"/>
      <point x="583" y="481"/>
      <point x="632" y="530" type="qcurve" smooth="yes"/>
      <point x="658" y="556"/>
      <point x="723" y="598"/>
      <point x="762" y="614" type="qcurve"/>
      <point x="722" y="630"/>
      <point x="655" y="674"/>
      <point x="630" y="701" type="qcurve" smooth="yes"/>
      <point x="582" y="751"/>
      <point x="536" y="884"/>
      <point x="536" y="962" type="qcurve" smooth="yes"/>
      <point x="536" y="1132" type="line" smooth="yes"/>
      <point x="536" y="1193"/>
      <point x="523" y="1317"/>
      <point x="502" y="1367" type="qcurve" smooth="yes" name="inserted"/>
      <point x="480" y="1416"/>
      <point x="396" y="1480"/>
      <point x="324" y="1482" type="qcurve"/>
      <point x="344" y="1597" type="line"/>
      <point x="441" y="1594"/>
      <point x="580" y="1518"/>
      <point x="625" y="1457" type="qcurve" smooth="yes"/>
      <point x="676" y="1388"/>
      <point x="721" y="1216"/>
      <point x="721" y="1132" type="qcurve" smooth="yes"/>
      <point x="721" y="962" type="line" smooth="yes"/>
      <point x="721" y="902"/>
      <point x="744" y="811"/>
      <point x="767" y="778" type="qcurve" smooth="yes"/>
      <point x="800" y="731"/>
      <point x="917" y="688"/>
      <point x="999" y="688" type="qcurve"/>
      <point x="999" y="543" type="line"/>
      <point x="927" y="542"/>
      <point x="820" y="509"/>
      <point x="786" y="474" type="qcurve" smooth="yes"/>
      <point x="753" y="440"/>
      <point x="721" y="338"/>
      <point x="721" y="268" type="qcurve" smooth="yes"/>
      <point x="721" y="99" type="line" smooth="yes"/>
      <point x="721" y="19"/>
      <point x="677" y="-144"/>
      <point x="631" y="-211" type="qcurve" smooth="yes" name="inserted"/>
      <point x="584" y="-278"/>
      <point x="442" y="-364"/>
      <point x="344" y="-366" type="qcurve"/>
    </contour>
  </outline>
</glyph>
<glyph name="asciitilde" format="2">
  <advance width="1229"/>
  <unicode hex="007E"/>
  <outline>
    <contour>
      <point x="1180" y="740" type="line"/>
      <point x="1180" y="674"/>
      <point x="1136" y="552"/>
      <point x="1096" y="505" type="qcurve" smooth="yes" name="inserted"/>
      <point x="1056" y="458"/>
      <point x="946" y="402"/>
      <point x="879" y="402" type="qcurve" smooth="yes"/>
      <point x="832" y="402"/>
      <point x="751" y="420"/>
      <point x="713" y="438" type="qcurve" smooth="yes" name="inserted"/>
      <point x="674" y="456"/>
      <point x="599" y="508"/>
      <point x="559" y="542" type="qcurve" smooth="yes"/>
      <point x="526" y="569"/>
      <point x="465" y="610"/>
      <point x="435" y="622" type="qcurve" smooth="yes"/>
      <point x="414" y="631"/>
      <point x="371" y="639"/>
      <point x="348" y="639" type="qcurve" smooth="yes"/>
      <point x="313" y="639"/>
      <point x="252" y="610"/>
      <point x="230" y="586" type="qcurve" smooth="yes" name="inserted"/>
      <point x="208" y="561"/>
      <point x="182" y="494"/>
      <point x="182" y="456" type="qcurve"/>
      <point x="48" y="473" type="line"/>
      <point x="48" y="539"/>
      <point x="92" y="659"/>
      <point x="132" y="704" type="qcurve" smooth="yes" name="inserted"/>
      <point x="171" y="749"/>
      <point x="281" y="802"/>
      <point x="348" y="802" type="qcurve" smooth="yes"/>
      <point x="394" y="802"/>
      <point x="477" y="783"/>
      <point x="516" y="765" type="qcurve" smooth="yes" name="inserted"/>
      <point x="555" y="747"/>
      <point x="630" y="695"/>
      <point x="669" y="663" type="qcurve" smooth="yes"/>
      <point x="695" y="641"/>
      <point x="743" y="606"/>
      <point x="766" y="594" type="qcurve" smooth="yes"/>
      <point x="793" y="579"/>
      <point x="849" y="564"/>
      <point x="879" y="565" type="qcurve" smooth="yes"/>
      <point x="914" y="565"/>
      <point x="975" y="597"/>
      <point x="998" y="624" type="qcurve" smooth="yes" name="inserted"/>
      <point x="1020" y="650"/>
      <point x="1046" y="720"/>
      <point x="1046" y="758" type="qcurve"/>
    </contour>
  </outline>
</glyph>
<glyph name="exclamdown" format="2">
  <advance width="1229"/>
  <unicode hex="00A1"/>
  <outline>
    <contour>
      <point x="522" y="611" type="line"/>
      <point x="707" y="611" type="line"/>
      <point x="707" y="-372" type="line"/>
      <point x="522" y="-372" type="line"/>
    </contour>
    <contour>
      <point x="728" y="990" type="qcurve" smooth="yes"/>
      <point x="728" y="944"/>
      <point x="669" y="881"/>
      <point x="613" y="881" type="qcurve" smooth="yes"/>
      <point x="556" y="881"/>
      <point x="498" y="944"/>
      <point x="498" y="990" type="qcurve" smooth="yes"/>
      <point x="498" y="1038"/>
      <point x="556" y="1103"/>
      <point x="613" y="1103" type="qcurve" smooth="yes"/>
      <point x="669" y="1103"/>
      <point x="728" y="1038"/>
    </contour>
  </outline>
</glyph>
<glyph name="yen" format="2">
  <advance width="1229"/>
  <unicode hex="00A5"/>
  <outline>
    <contour>
      <point x="518" y="0" type="line"/>
      <point x="518" y="326" type="line"/>
      <point x="138" y="326" type="line"/>
      <point x="138" y="446" type="line"/>
      <point x="518" y="446" type="line"/>
      <point x="518" y="615" type="line"/>
      <point x="138" y="615" type="line"/>
      <point x="138" y="736" type="line"/>
      <point x="454" y="736" type="line"/>
      <point x="33" y="1456" type="line"/>
      <point x="245" y="1456" type="line"/>
      <point x="567" y="866" type="line"/>
      <point x="613" y="780" type="line"/>
      <point x="615" y="780" type="line"/>
      <point x="661" y="865" type="line"/>
      <point x="983" y="1456" type="line"/>
      <point x="1195" y="1456" type="line"/>
      <point x="774" y="736" type="line"/>
      <point x="1092" y="736" type="line"/>
      <point x="1092" y="615" type="line"/>
      <point x="703" y="615" type="line"/>
      <point x="703" y="446" type="line"/>
      <point x="1092" y="446" type="line"/>
      <point x="1092" y="326" type="line"/>
      <point x="703" y="326" type="line"/>
      <point x="703" y="0" type="line"/>
    </contour>
  </outline>
</glyph>
<glyph name="dieresis" format="2">
  <advance width="1229"/>
  <unicode hex="00A8"/>
  <outline>
    <contour>
      <point x="287" y="1371" type="qcurve" smooth="yes"/>
      <point x="287" y="1416"/>
      <point x="342" y="1477"/>
      <point x="396" y="1477" type="qcurve" smooth="yes"/>
      <point x="450" y="1477"/>
      <point x="506" y="1416"/>
      <point x="506" y="1371" type="qcurve" smooth="yes"/>
      <point x="506" y="1326"/>
      <point x="450" y="1266"/>
      <point x="396" y="1266" type="qcurve" smooth="yes"/>
      <point x="342" y="1266"/>
      <point x="287" y="1326"/>
    </contour>
    <contour>
      <point x="717" y="1369" type="qcurve" smooth="yes"/>
      <point x="717" y="1414"/>
      <point x="772" y="1476"/>
      <point x="826" y="1476" type="qcurve" smooth="yes"/>
      <point x="880" y="1476"/>
      <point x="936" y="1414"/>
      <point x="936" y="1369" type="qcurve" smooth="yes"/>
      <point x="936" y="1325"/>
      <point x="880" y="1264"/>
      <point x="826" y="1264" type="qcurve" smooth="yes"/>
      <point x="772" y="1264"/>
      <point x="717" y="1325"/>
    </contour>
  </outline>
</glyph>
<glyph name="ordfeminine" format="2">
  <advance width="1229"/>
  <unicode hex="00AA"/>
  <outline>
    <contour>
      <point x="780" y="705" type="line"/>
      <point x="773" y="727" name="inserted"/>
      <point x="762" y="776"/>
      <point x="759" y="802" type="qcurve"/>
      <point x="746" y="784"/>
      <point x="711" y="749"/>
      <point x="689" y="735" type="qcurve" smooth="yes"/>
      <point x="659" y="716"/>
      <point x="581" y="692"/>
      <point x="533" y="691" type="qcurve" smooth="yes"/>
      <point x="473" y="691"/>
      <point x="379" y="724"/>
      <point x="347" y="754" type="qcurve" smooth="yes"/>
      <point x="316" y="783"/>
      <point x="284" y="866"/>
      <point x="284" y="918" type="qcurve" smooth="yes"/>
      <point x="284" y="975"/>
      <point x="330" y="1063"/>
      <point x="373" y="1092" type="qcurve" smooth="yes"/>
      <point x="415" y="1120"/>
      <point x="538" y="1149"/>
      <point x="615" y="1149" type="qcurve" smooth="yes"/>
      <point x="756" y="1149" type="line"/>
      <point x="756" y="1201" type="line" smooth="yes"/>
      <point x="755" y="1234"/>
      <point x="739" y="1286"/>
      <point x="723" y="1303" type="qcurve" smooth="yes"/>
      <point x="707" y="1319"/>
      <point x="661" y="1336"/>
      <point x="630" y="1336" type="qcurve" smooth="yes"/>
      <point x="593" y="1336"/>
      <point x="534" y="1320"/>
      <point x="515" y="1304" type="qcurve" smooth="yes"/>
      <point x="499" y="1291"/>
      <point x="481" y="1254"/>
      <point x="481" y="1231" type="qcurve"/>
      <point x="320" y="1243" type="line"/>
      <point x="321" y="1294"/>
      <point x="366" y="1380"/>
      <point x="407" y="1411" type="qcurve" smooth="yes" name="inserted"/>
      <point x="447" y="1442"/>
      <point x="561" y="1476"/>
      <point x="630" y="1476" type="qcurve" smooth="yes"/>
      <point x="695" y="1476"/>
      <point x="802" y="1441"/>
      <point x="840" y="1407" type="qcurve" smooth="yes" name="inserted"/>
      <point x="877" y="1372"/>
      <point x="919" y="1268"/>
      <point x="919" y="1200" type="qcurve" smooth="yes"/>
      <point x="919" y="886" type="line" smooth="yes"/>
      <point x="919" y="838"/>
      <point x="931" y="750"/>
      <point x="945" y="705" type="qcurve"/>
    </contour>
    <contour>
      <point x="572" y="828" type="qcurve" smooth="yes"/>
      <point x="599" y="828"/>
      <point x="658" y="845"/>
      <point x="684" y="860" type="qcurve" smooth="yes" name="inserted"/>
      <point x="709" y="874"/>
      <point x="748" y="910"/>
      <point x="756" y="928" type="qcurve"/>
      <point x="756" y="1037" type="line"/>
      <point x="616" y="1037" type="line" smooth="yes"/>
      <point x="572" y="1037"/>
      <point x="503" y="1015"/>
      <point x="482" y="997" type="qcurve" smooth="yes"/>
      <point x="464" y="982"/>
      <point x="446" y="944"/>
      <point x="446" y="922" type="qcurve" smooth="yes"/>
      <point x="446" y="902"/>
      <point x="458" y="870"/>
      <point x="470" y="859" type="qcurve" smooth="yes"/>
      <point x="486" y="844"/>
      <point x="537" y="828"/>
    </contour>
  </outline>
</glyph>
<glyph name="registered" format="2">
  <advance width="1229"/>
  <unicode hex="00AE"/>
  <outline>
    <contour>
      <point x="87" y="540" type="qcurve" smooth="yes"/>
      <point x="87" y="657"/>
      <point x="169" y="862"/>
      <point x="240.5" y="938.0" type="qcurve" smooth="yes" name="inserted"/>
      <point x="312" y="1014"/>
      <point x="507" y="1101"/>
      <point x="620" y="1101" type="qcurve" smooth="yes"/>
      <point x="733" y="1101"/>
      <point x="927" y="1014"/>
      <point x="998.5" y="938.0" type="qcurve" smooth="yes" name="inserted"/>
      <point x="1070" y="862"/>
      <point x="1152" y="657"/>
      <point x="1152" y="540" type="qcurve" smooth="yes"/>
      <point x="1152" y="423"/>
      <point x="1070" y="218"/>
      <point x="998.5" y="142.5" type="qcurve" smooth="yes" name="inserted"/>
      <point x="927" y="67"/>
      <point x="733" y="-21"/>
      <point x="620" y="-21" type="qcurve" smooth="yes"/>
      <point x="507" y="-21"/>
      <point x="312" y="67"/>
      <point x="240.5" y="142.5" type="qcurve" smooth="yes" name="inserted"/>
      <point x="169" y="218"/>
      <point x="87" y="423"/>
    </contour>
    <contour>
      <point x="174" y="540" type="qcurve" smooth="yes"/>
      <point x="174" y="442"/>
      <point x="242" y="271"/>
      <point x="302.0" y="207.0" type="qcurve" smooth="yes" name="inserted"/>
      <point x="362" y="143"/>
      <point x="525" y="69"/>
      <point x="620" y="69" type="qcurve" smooth="yes"/>
      <point x="714" y="69"/>
      <point x="877" y="143"/>
      <point x="937.0" y="207.0" type="qcurve" smooth="yes" name="inserted"/>
      <point x="997" y="271"/>
      <point x="1065" y="442"/>
      <point x="1065" y="540" type="qcurve" smooth="yes"/>
      <point x="1065" y="638"/>
      <point x="997" y="810"/>
      <point x="937.0" y="873.5" type="qcurve" smooth="yes" name="inserted"/>
      <point x="877" y="937"/>
      <point x="714" y="1010"/>
      <point x="620" y="1010" type="qcurve" smooth="yes"/>
      <point x="525" y="1010"/>
      <point x="362" y="937"/>
      <point x="302.0" y="873.5" type="qcurve" smooth="yes" name="inserted"/>
      <point x="242" y="810"/>
      <point x="174" y="638"/>
    </contour>
    <contour>
      <point x="508" y="485" type="line"/>
      <point x="508" y="232" type="line"/>
      <point x="401" y="232" type="line"/>
      <point x="401" y="867" type="line"/>
      <point x="612" y="867" type="line" smooth="yes"/>
      <point x="720.9063134057598" y="867.0"/>
      <point x="852.0" y="771.9738554393134"/>
      <point x="852" y="675" type="qcurve" smooth="yes"/>
      <point x="852" y="619"/>
      <point x="782" y="541"/>
      <point x="716" y="519" type="qcurve"/>
      <point x="863" y="232" type="line"/>
      <point x="753" y="232" type="line"/>
      <point x="633" y="485" type="line"/>
    </contour>
    <contour>
      <point x="508" y="582" type="line"/>
      <point x="627" y="582" type="line" smooth="yes"/>
      <point x="651" y="583"/>
      <point x="695" y="595"/>
      <point x="711" y="606" type="qcurve" smooth="yes"/>
      <point x="726" y="618"/>
      <point x="745" y="650"/>
      <point x="745" y="671" type="qcurve" smooth="yes"/>
      <point x="745" y="726"/>
      <point x="685" y="770"/>
      <point x="612" y="770" type="qcurve" smooth="yes"/>
      <point x="508" y="770" type="line"/>
    </contour>
  </outline>
</glyph>
<glyph name="macron" format="2">
  <advance width="1229"/>
  <unicode hex="00AF"/>
  <unicode hex="02C9"/>
  <outline>
    <contour>
      <point x="971" y="1313" type="line"/>
      <point x="257" y="1313" type="line"/>
      <point x="257" y="1456" type="line"/>
      <point x="971" y="1456" type="line"/>
    </contour>
  </outline>
</glyph>
<glyph name="degree" format="2">
  <advance width="1229"/>
  <unicode hex="00B0"/>
  <outline>
    <contour>
      <point x="361" y="1216" type="qcurve" smooth="yes"/>
      <point x="361" y="1269"/>
      <point x="402" y="1364"/>
      <point x="436.5" y="1399.5" type="qcurve" smooth="yes" name="inserted"/>
      <point x="471" y="1435"/>
      <point x="564" y="1476"/>
      <point x="616" y="1476" type="qcurve" smooth="yes"/>
      <point x="667" y="1476"/>
      <point x="758" y="1435"/>
      <point x="792.0" y="1399.5" type="qcurve" smooth="yes" name="inserted"/>
      <point x="826" y="1364"/>
      <point x="866" y="1269"/>
      <point x="866" y="1216" type="qcurve" smooth="yes"/>
      <point x="866" y="1163"/>
      <point x="826" y="1069"/>
      <point x="792.0" y="1034.5" type="qcurve" smooth="yes" name="inserted"/>
      <point x="758" y="1000"/>
      <point x="667" y="960"/>
      <point x="616" y="960" type="qcurve" smooth="yes"/>
      <point x="564" y="960"/>
      <point x="471" y="1000"/>
      <point x="436.5" y="1034.5" type="qcurve" smooth="yes" name="inserted"/>
      <point x="402" y="1069"/>
      <point x="361" y="1162"/>
    </contour>
    <contour>
      <point x="485" y="1216" type="qcurve" smooth="yes"/>
      <point x="485" y="1189"/>
      <point x="506" y="1142"/>
      <point x="523.5" y="1124.5" type="qcurve" smooth="yes" name="inserted"/>
      <point x="541" y="1107"/>
      <point x="589" y="1088"/>
      <point x="616" y="1088" type="qcurve" smooth="yes"/>
      <point x="643" y="1088"/>
      <point x="689" y="1107"/>
      <point x="706.5" y="1124.5" type="qcurve" smooth="yes" name="inserted"/>
      <point x="724" y="1142"/>
      <point x="743" y="1189"/>
      <point x="743" y="1216" type="qcurve" smooth="yes"/>
      <point x="743" y="1244"/>
      <point x="724" y="1293"/>
      <point x="706.5" y="1311.0" type="qcurve" smooth="yes" name="inserted"/>
      <point x="689" y="1329"/>
      <point x="643" y="1349"/>
      <point x="616" y="1349" type="qcurve" smooth="yes"/>
      <point x="589" y="1349"/>
      <point x="541" y="1329"/>
      <point x="523.5" y="1311.0" type="qcurve" smooth="yes" name="inserted"/>
      <point x="506" y="1293"/>
      <point x="485" y="1244"/>
    </contour>
  </outline>
</glyph>
<glyph name="twosuperior" format="2">
  <advance width="1229"/>
  <unicode hex="00B2"/>
  <outline>
    <contour>
      <point x="934" y="667" type="line"/>
      <point x="335" y="667" type="line"/>
      <point x="335" y="775" type="line"/>
      <point x="623" y="1046" type="line" smooth="yes"/>
      <point x="649" y="1070"/>
      <point x="690" y="1113"/>
      <point x="704" y="1132" type="qcurve" smooth="yes"/>
      <point x="725" y="1160"/>
      <point x="744" y="1207"/>
      <point x="744" y="1228" type="qcurve" smooth="yes"/>
      <point x="744" y="1252"/>
      <point x="728" y="1292"/>
      <point x="712" y="1307" type="qcurve" smooth="yes"/>
      <point x="696" y="1322"/>
      <point x="649" y="1338"/>
      <point x="620" y="1338" type="qcurve" smooth="yes"/>
      <point x="583" y="1338"/>
      <point x="528" y="1318"/>
      <point x="510" y="1300" type="qcurve" smooth="yes"/>
      <point x="492" y="1283"/>
      <point x="474" y="1234"/>
      <point x="474" y="1205" type="qcurve"/>
      <point x="316" y="1205" type="line"/>
      <point x="316" y="1259"/>
      <point x="358" y="1355"/>
      <point x="397" y="1391" type="qcurve" smooth="yes" name="inserted"/>
      <point x="436" y="1426"/>
      <point x="547" y="1467"/>
      <point x="616" y="1467" type="qcurve" smooth="yes"/>
      <point x="682" y="1467"/>
      <point x="788" y="1434"/>
      <point x="825" y="1403" type="qcurve" smooth="yes" name="inserted"/>
      <point x="862" y="1372"/>
      <point x="902" y="1285"/>
      <point x="902" y="1230" type="qcurve" smooth="yes"/>
      <point x="902" y="1190"/>
      <point x="875" y="1119"/>
      <point x="850" y="1085" type="qcurve" smooth="yes" name="inserted"/>
      <point x="824" y="1050"/>
      <point x="753" y="979"/>
      <point x="710" y="940" type="qcurve" smooth="yes"/>
      <point x="535" y="795" type="line"/>
      <point x="934" y="795" type="line"/>
    </contour>
  </outline>
</glyph>
<glyph name="acute" format="2">
  <advance width="1229"/>
  <unicode hex="00B4"/>
  <outline>
    <contour>
      <point x="594" y="1481" type="line"/>
      <point x="818" y="1481" type="line"/>
      <point x="550" y="1215" type="line"/>
      <point x="410" y="1215" type="line"/>
    </contour>
  </outline>
</glyph>
<glyph name="mu" format="2">
  <advance width="1229"/>
  <unicode hex="00B5"/>
  <outline>
    <contour>
      <point x="373" y="1082" type="line"/>
      <point x="373" y="460" type="line" smooth="yes"/>
      <point x="373" y="360"/>
      <point x="405" y="232"/>
      <point x="435" y="195" type="qcurve" smooth="yes" name="inserted"/>
      <point x="464" y="158"/>
      <point x="545" y="130"/>
      <point x="593" y="130" type="qcurve" smooth="yes"/>
      <point x="658" y="130"/>
      <point x="756" y="161"/>
      <point x="789" y="190" type="qcurve" smooth="yes"/>
      <point x="811" y="209"/>
      <point x="843" y="255"/>
      <point x="854" y="283" type="qcurve"/>
      <point x="854" y="1082" type="line"/>
      <point x="1040" y="1082" type="line"/>
      <point x="1040" y="0" type="line"/>
      <point x="873" y="0" type="line"/>
      <point x="864" y="116" type="line"/>
      <point x="845" y="89"/>
      <point x="801" y="44"/>
      <point x="776" y="27" type="qcurve" smooth="yes"/>
      <point x="740" y="4"/>
      <point x="653" y="-20"/>
      <point x="601" y="-20" type="qcurve" smooth="yes"/>
      <point x="528" y="-20" name="inserted"/>
      <point x="414" y="17"/>
      <point x="373" y="53" type="qcurve"/>
      <point x="373" y="-416" type="line"/>
      <point x="188" y="-416" type="line"/>
      <point x="188" y="1082" type="line"/>
    </contour>
  </outline>
</glyph>
<glyph name="paragraph" format="2">
  <advance width="1229"/>
  <unicode hex="00B6"/>
  <outline>
    <contour>
      <point x="790" y="0" type="line"/>
      <point x="790" y="520" type="line"/>
      <point x="703" y="520" type="line" smooth="yes"/>
      <point x="585" y="520"/>
      <point x="402" y="590"/>
      <point x="339.0" y="652.0" type="qcurve" smooth="yes" name="inserted"/>
      <point x="276" y="714"/>
      <point x="211" y="886"/>
      <point x="211" y="988" type="qcurve" smooth="yes"/>
      <point x="211" y="1089"/>
      <point x="276" y="1260"/>
      <point x="339.0" y="1322.5" type="qcurve" smooth="yes" name="inserted"/>
      <point x="402" y="1385"/>
      <point x="585" y="1456"/>
      <point x="703" y="1456" type="qcurve" smooth="yes"/>
      <point x="976" y="1456" type="line"/>
      <point x="976" y="0" type="line"/>
    </contour>
  </outline>
</glyph>
<glyph name="periodcentered" format="2">
  <advance width="1229"/>
  <unicode hex="00B7"/>
  <outline>
    <contour>
      <point x="504" y="729" type="qcurve" smooth="yes"/>
      <point x="504" y="777"/>
      <point x="562" y="841"/>
      <point x="619" y="841" type="qcurve" smooth="yes"/>
      <point x="675" y="841"/>
      <point x="734" y="777"/>
      <point x="734" y="729" type="qcurve" smooth="yes"/>
      <point x="734" y="682"/>
      <point x="675" y="619"/>
      <point x="619" y="619" type="qcurve" smooth="yes"/>
      <point x="562" y="619"/>
      <point x="504" y="682"/>
    </contour>
  </outline>
</glyph>
<glyph name="cedilla" format="2">
  <advance width="1229"/>
  <unicode hex="00B8"/>
  <outline>
    <contour>
      <point x="630" y="0" type="line"/>
      <point x="618" y="-52" type="line"/>
      <point x="647" y="-57"/>
      <point x="702" y="-81"/>
      <point x="724" y="-101" type="qcurve" smooth="yes" name="inserted"/>
      <point x="745" y="-121"/>
      <point x="771" y="-182"/>
      <point x="771" y="-225" type="qcurve" smooth="yes"/>
      <point x="771" y="-281"/>
      <point x="717" y="-367"/>
      <point x="667" y="-394" type="qcurve" smooth="yes"/>
      <point x="630" y="-413"/>
      <point x="529" y="-435"/>
      <point x="468" y="-435" type="qcurve"/>
      <point x="461" y="-328" type="line"/>
      <point x="495" y="-328"/>
      <point x="555" y="-317"/>
      <point x="578" y="-305" type="qcurve" smooth="yes" name="inserted"/>
      <point x="600" y="-293"/>
      <point x="627" y="-256"/>
      <point x="627" y="-229" type="qcurve" smooth="yes"/>
      <point x="627" y="-204"/>
      <point x="607" y="-170"/>
      <point x="587" y="-159" type="qcurve" smooth="yes" name="inserted"/>
      <point x="566" y="-149"/>
      <point x="506" y="-137"/>
      <point x="466" y="-134" type="qcurve"/>
      <point x="497" y="0" type="line"/>
    </contour>
  </outline>
</glyph>
<glyph name="onesuperior" format="2">
  <advance width="1229"/>
  <unicode hex="00B9"/>
  <outline>
    <contour>
      <point x="758" y="665" type="line"/>
      <point x="601" y="665" type="line"/>
      <point x="601" y="1266" type="line"/>
      <point x="386" y="1209" type="line"/>
      <point x="386" y="1337" type="line"/>
      <point x="740" y="1454" type="line"/>
      <point x="758" y="1454" type="line"/>
    </contour>
  </outline>
</glyph>
<glyph name="ordmasculine" format="2">
  <advance width="1229"/>
  <unicode hex="00BA"/>
  <outline>
    <contour>
      <point x="272" y="1141" type="line" smooth="yes"/>
      <point x="272" y="1214"/>
      <point x="320" y="1337"/>
      <point x="364.5" y="1381.5" type="qcurve" smooth="yes" name="inserted"/>
      <point x="409" y="1426"/>
      <point x="535" y="1476"/>
      <point x="614" y="1476" type="qcurve" smooth="yes"/>
      <point x="693" y="1476"/>
      <point x="820" y="1426"/>
      <point x="864.5" y="1381.5" type="qcurve" smooth="yes" name="inserted"/>
      <point x="909" y="1337"/>
      <point x="956" y="1214"/>
      <point x="956" y="1141" type="qcurve" smooth="yes"/>
      <point x="956" y="1024" type="line" smooth="yes"/>
      <point x="956" y="952"/>
      <point x="909" y="829"/>
      <point x="865.0" y="784.5" type="qcurve" smooth="yes" name="inserted"/>
      <point x="821" y="740"/>
      <point x="695" y="690"/>
      <point x="616" y="690" type="qcurve" smooth="yes"/>
      <point x="536" y="690"/>
      <point x="409" y="740"/>
      <point x="364.5" y="784.5" type="qcurve" smooth="yes" name="inserted"/>
      <point x="320" y="829"/>
      <point x="272" y="952"/>
      <point x="272" y="1024" type="qcurve" smooth="yes"/>
    </contour>
    <contour>
      <point x="435" y="1024" type="line" smooth="yes"/>
      <point x="435" y="982"/>
      <point x="457" y="911"/>
      <point x="479.5" y="885.0" type="qcurve" smooth="yes" name="inserted"/>
      <point x="502" y="859"/>
      <point x="570" y="829"/>
      <point x="616" y="829" type="qcurve" smooth="yes"/>
      <point x="660" y="829"/>
      <point x="727" y="859"/>
      <point x="749.0" y="885.0" type="qcurve" smooth="yes" name="inserted"/>
      <point x="771" y="911"/>
      <point x="794" y="982"/>
      <point x="794" y="1024" type="qcurve" smooth="yes"/>
      <point x="794" y="1141" type="line" smooth="yes"/>
      <point x="794" y="1182"/>
      <point x="771" y="1253"/>
      <point x="748.5" y="1279.5" type="qcurve" smooth="yes" name="inserted"/>
      <point x="726" y="1306"/>
      <point x="659" y="1336"/>
      <point x="614" y="1336" type="qcurve" smooth="yes"/>
      <point x="569" y="1336"/>
      <point x="502" y="1306"/>
      <point x="479.5" y="1279.5" type="qcurve" smooth="yes" name="inserted"/>
      <point x="457" y="1253"/>
      <point x="435" y="1182"/>
      <point x="435" y="1141" type="qcurve" smooth="yes"/>
    </contour>
  </outline>
</glyph>
<glyph name="onequarter" format="2">
  <advance width="1229"/>
  <unicode hex="00BC"/>
  <outline>
    <contour>
      <point x="383.1" y="751.0" type="line"/>
      <point x="241.8" y="751.0" type="line"/>
      <point x="241.8" y="1291.9" type="line"/>
      <point x="48.30000000000001" y="1240.6" type="line"/>
      <point x="48.30000000000001" y="1355.8000000000002" type="line"/>
      <point x="366.9" y="1461.1" type="line"/>
      <point x="383.1" y="1461.1" type="line"/>
    </contour>
    <contour>
      <point x="1068.1" y="269.1" type="line"/>
      <point x="1164.4" y="269.1" type="line"/>
      <point x="1164.4" y="152.1" type="line"/>
      <point x="1068.1" y="152.1" type="line"/>
      <point x="1068.1" y="0.0" type="line"/>
      <point x="926.8000000000001" y="0.0" type="line"/>
      <point x="926.8000000000001" y="152.1" type="line"/>
      <point x="589.3" y="152.1" type="line"/>
      <point x="583.9000000000001" y="243.9" type="line"/>
      <point x="923.2" y="710.1" type="line"/>
      <point x="1068.1" y="710.1" type="line"/>
    </contour>
    <contour>
      <point x="726.1" y="269.1" type="line"/>
      <point x="926.8000000000001" y="269.1" type="line"/>
      <point x="926.8000000000001" y="529.2" type="line"/>
      <point x="911.5" y="504.0" type="line"/>
    </contour>
    <component base="fraction" xOffset="-10" yOffset="8"/>
  </outline>
</glyph>
<glyph name="onehalf" format="2">
  <advance width="1229"/>
  <unicode hex="00BD"/>
  <outline>
    <contour>
      <point x="371.1" y="747.0" type="line"/>
      <point x="229.8" y="747.0" type="line"/>
      <point x="229.8" y="1287.9" type="line"/>
      <point x="36.30000000000001" y="1236.6" type="line"/>
      <point x="36.30000000000001" y="1351.8000000000002" type="line"/>
      <point x="354.9" y="1457.1" type="line"/>
      <point x="371.1" y="1457.1" type="line"/>
    </contour>
    <contour>
      <point x="1173.8000000000002" y="0.0" type="line"/>
      <point x="634.7" y="0.0" type="line"/>
      <point x="634.7" y="97.2" type="line"/>
      <point x="893.9" y="341.1" type="line" smooth="yes"/>
      <point x="920.9" y="366.3"/>
      <point x="961.4" y="410.40000000000003"/>
      <point x="974.0" y="429.3" type="qcurve" smooth="yes"/>
      <point x="989.3000000000001" y="450.90000000000003"/>
      <point x="1002.8000000000001" y="487.8"/>
      <point x="1002.8000000000001" y="504.90000000000003" type="qcurve" smooth="yes"/>
      <point x="1002.8000000000001" y="527.4"/>
      <point x="986.6" y="564.3000000000001"/>
      <point x="972.2" y="577.8000000000001" type="qcurve" smooth="yes"/>
      <point x="957.8000000000001" y="590.4"/>
      <point x="917.3000000000001" y="603.9"/>
      <point x="891.2" y="603.9" type="qcurve" smooth="yes"/>
      <point x="858.8000000000001" y="603.9"/>
      <point x="810.2" y="586.8000000000001"/>
      <point x="794.0" y="571.5" type="qcurve" smooth="yes"/>
      <point x="776.9000000000001" y="555.3000000000001"/>
      <point x="760.7" y="511.2"/>
      <point x="759.8" y="484.2" type="qcurve"/>
      <point x="617.6" y="484.2" type="line"/>
      <point x="617.6" y="532.8000000000001"/>
      <point x="655.4000000000001" y="619.2"/>
      <point x="690.5" y="651.6" type="qcurve" smooth="yes" name="inserted"/>
      <point x="725.6" y="683.1"/>
      <point x="825.5" y="720.0"/>
      <point x="887.6" y="720.0" type="qcurve" smooth="yes"/>
      <point x="947.0" y="720.0"/>
      <point x="1042.4" y="690.3000000000001"/>
      <point x="1075.7" y="662.4" type="qcurve" smooth="yes" name="inserted"/>
      <point x="1109.0" y="634.5"/>
      <point x="1145.0" y="556.2"/>
      <point x="1145.0" y="506.7" type="qcurve" smooth="yes"/>
      <point x="1145.0" y="470.7"/>
      <point x="1120.7" y="406.8"/>
      <point x="1098.2" y="376.2" type="qcurve" smooth="yes" name="inserted"/>
      <point x="1074.8000000000002" y="344.7"/>
      <point x="1010.9" y="280.8"/>
      <point x="972.2" y="245.70000000000002" type="qcurve" smooth="yes"/>
      <point x="814.7" y="115.2" type="line"/>
      <point x="1173.8000000000002" y="115.2" type="line"/>
    </contour>
    <component base="fraction" xOffset="-70" yOffset="8"/>
  </outline>
</glyph>
<glyph name="threequarters" format="2">
  <advance width="1229"/>
  <unicode hex="00BE"/>
  <outline>
    <contour>
      <point x="1101.1" y="269.1" type="line"/>
      <point x="1197.4" y="269.1" type="line"/>
      <point x="1197.4" y="152.1" type="line"/>
      <point x="1101.1" y="152.1" type="line"/>
      <point x="1101.1" y="0.0" type="line"/>
      <point x="959.8000000000001" y="0.0" type="line"/>
      <point x="959.8000000000001" y="152.1" type="line"/>
      <point x="622.3" y="152.1" type="line"/>
      <point x="616.9000000000001" y="243.9" type="line"/>
      <point x="956.2" y="710.1" type="line"/>
      <point x="1101.1" y="710.1" type="line"/>
    </contour>
    <contour>
      <point x="759.1" y="269.1" type="line"/>
      <point x="959.8000000000001" y="269.1" type="line"/>
      <point x="959.8000000000001" y="529.2" type="line"/>
      <point x="944.5" y="504.0" type="line"/>
    </contour>
    <contour>
      <point x="220.5" y="1157.1" type="line"/>
      <point x="296.1" y="1157.1" type="line" smooth="yes"/>
      <point x="326.70000000000005" y="1157.1"/>
      <point x="374.4" y="1169.7"/>
      <point x="390.6" y="1181.4" type="qcurve" smooth="yes"/>
      <point x="408.6" y="1194.0"/>
      <point x="427.5" y="1231.8"/>
      <point x="427.5" y="1255.2" type="qcurve" smooth="yes"/>
      <point x="427.5" y="1274.1"/>
      <point x="414.0" y="1307.4"/>
      <point x="401.4" y="1319.1" type="qcurve" smooth="yes"/>
      <point x="386.1" y="1332.6"/>
      <point x="339.30000000000007" y="1347.9"/>
      <point x="307.80000000000007" y="1347.9" type="qcurve" smooth="yes"/>
      <point x="279.0" y="1347.9"/>
      <point x="231.3" y="1333.5"/>
      <point x="215.10000000000002" y="1320.9" type="qcurve" smooth="yes"/>
      <point x="203.40000000000003" y="1310.1"/>
      <point x="189.0" y="1282.2"/>
      <point x="189.0" y="1265.1" type="qcurve"/>
      <point x="47.69999999999999" y="1265.1" type="line"/>
      <point x="47.69999999999999" y="1311.0"/>
      <point x="88.19999999999999" y="1384.8000000000002"/>
      <point x="123.30000000000001" y="1410.9" type="qcurve" smooth="yes" name="inserted"/>
      <point x="157.5" y="1436.1"/>
      <point x="251.10000000000002" y="1464.0"/>
      <point x="305.1" y="1464.0" type="qcurve" smooth="yes"/>
      <point x="362.70000000000005" y="1464.0"/>
      <point x="459.9" y="1437.9"/>
      <point x="495.0" y="1412.7" type="qcurve" smooth="yes" name="inserted"/>
      <point x="530.1" y="1386.6"/>
      <point x="568.8000000000001" y="1311.0"/>
      <point x="568.8000000000001" y="1261.5" type="qcurve" smooth="yes"/>
      <point x="568.8000000000001" y="1231.8"/>
      <point x="546.3000000000001" y="1178.7"/>
      <point x="525.6" y="1157.1" type="qcurve" smooth="yes"/>
      <point x="510.30000000000007" y="1141.8"/>
      <point x="470.70000000000005" y="1116.6"/>
      <point x="446.4" y="1107.6" type="qcurve"/>
      <point x="476.1" y="1099.5"/>
      <point x="522.0" y="1074.3"/>
      <point x="538.2" y="1058.1" type="qcurve" smooth="yes"/>
      <point x="559.8000000000001" y="1036.5"/>
      <point x="581.4" y="978.0"/>
      <point x="581.4" y="942.0" type="qcurve" smooth="yes"/>
      <point x="581.4" y="891.6"/>
      <point x="539.1" y="814.2"/>
      <point x="502.20000000000005" y="788.1" type="qcurve" smooth="yes" name="inserted"/>
      <point x="464.4" y="762.0"/>
      <point x="363.6" y="734.1"/>
      <point x="306.0" y="734.1" type="qcurve" smooth="yes"/>
      <point x="254.7" y="734.1"/>
      <point x="158.40000000000003" y="758.4"/>
      <point x="121.5" y="784.5" type="qcurve" smooth="yes" name="inserted"/>
      <point x="83.69999999999999" y="809.7"/>
      <point x="37.80000000000001" y="888.9"/>
      <point x="37.80000000000001" y="943.8" type="qcurve"/>
      <point x="180.0" y="943.8" type="line"/>
      <point x="180.0" y="925.8"/>
      <point x="194.40000000000003" y="894.3"/>
      <point x="207.90000000000003" y="882.6" type="qcurve" smooth="yes"/>
      <point x="225.0" y="867.3"/>
      <point x="277.20000000000005" y="849.3"/>
      <point x="310.5" y="849.3" type="qcurve" smooth="yes"/>
      <point x="342.9" y="849.3"/>
      <point x="392.4" y="864.6"/>
      <point x="409.5" y="879.0" type="qcurve" smooth="yes"/>
      <point x="423.9" y="891.6"/>
      <point x="439.20000000000005" y="927.6"/>
      <point x="439.20000000000005" y="949.2" type="qcurve" smooth="yes"/>
      <point x="439.20000000000005" y="976.2"/>
      <point x="421.20000000000005" y="1014.9000000000001"/>
      <point x="404.1" y="1026.6" type="qcurve" smooth="yes"/>
      <point x="385.20000000000005" y="1040.1"/>
      <point x="330.30000000000007" y="1052.7"/>
      <point x="296.1" y="1052.7" type="qcurve" smooth="yes"/>
      <point x="220.5" y="1052.7" type="line"/>
    </contour>
    <component base="fraction" xOffset="57" yOffset="7"/>
  </outline>
</glyph>
<glyph name="AE" format="2">
  <advance width="1229"/>
  <unicode hex="00C6"/>
  <outline>
    <contour>
      <point x="1195" y="0" type="line"/>
      <point x="664" y="0" type="line"/>
      <point x="663" y="353" type="line"/>
      <point x="353" y="353" type="line"/>
      <point x="230" y="0" type="line"/>
      <point x="32" y="0" type="line"/>
      <point x="592" y="1456" type="line"/>
      <point x="1172" y="1456" type="line"/>
      <point x="1172" y="1304" type="line"/>
      <point x="835" y="1304" type="line"/>
      <point x="837" y="833" type="line"/>
      <point x="1139" y="833" type="line"/>
      <point x="1139" y="682" type="line"/>
      <point x="837" y="682" type="line"/>
      <point x="838" y="151" type="line"/>
      <point x="1195" y="151" type="line"/>
    </contour>
    <contour>
      <point x="414" y="527" type="line"/>
      <point x="663" y="527" type="line"/>
      <point x="661" y="1233" type="line"/>
    </contour>
  </outline>
</glyph>
<glyph name="aogonek" format="2">
  <advance width="1229"/>
  <unicode hex="0105"/>
  <outline>
    <contour>
      <point x="879" y="14" type="qcurve"/>
      <point x="871" y="35"/>
      <point x="861" y="89"/>
      <point x="858" y="118" type="qcurve"/>
      <point x="830" y="90"/>
      <point x="761" y="40"/>
      <point x="720" y="21" type="qcurve" smooth="yes" name="inserted"/>
      <point x="678" y="2"/>
      <point x="584" y="-20"/>
      <point x="531" y="-20" type="qcurve" smooth="yes"/>
      <point x="445" y="-20"/>
      <point x="306" y="30"/>
      <point x="258" y="73" type="qcurve" smooth="yes" name="inserted"/>
      <point x="209" y="115"/>
      <point x="156" y="232"/>
      <point x="156" y="300" type="qcurve" smooth="yes"/>
      <point x="156" y="389"/>
      <point x="227" y="523"/>
      <point x="292" y="568" type="qcurve" smooth="yes" name="inserted"/>
      <point x="357" y="612"/>
      <point x="540" y="656"/>
      <point x="653" y="656" type="qcurve" smooth="yes"/>
      <point x="855" y="656" type="line"/>
      <point x="855" y="741" type="line" smooth="yes"/>
      <point x="855" y="790"/>
      <point x="819" y="868"/>
      <point x="786" y="896" type="qcurve" smooth="yes" name="inserted"/>
      <point x="753" y="923"/>
      <point x="658" y="953"/>
      <point x="599" y="953" type="qcurve" smooth="yes"/>
      <point x="544" y="953"/>
      <point x="457" y="925"/>
      <point x="427" y="902" type="qcurve" smooth="yes" name="inserted"/>
      <point x="397" y="879"/>
      <point x="364" y="816"/>
      <point x="364" y="782" type="qcurve"/>
      <point x="178" y="782" type="line"/>
      <point x="179" y="841"/>
      <point x="238" y="955"/>
      <point x="294" y="1001" type="qcurve" smooth="yes" name="inserted"/>
      <point x="349" y="1046"/>
      <point x="508" y="1102"/>
      <point x="609" y="1102" type="qcurve" smooth="yes"/>
      <point x="701" y="1102"/>
      <point x="859" y="1057"/>
      <point x="917" y="1012" type="qcurve" smooth="yes" name="inserted"/>
      <point x="974" y="966"/>
      <point x="1040" y="830"/>
      <point x="1040" y="739" type="qcurve" smooth="yes"/>
      <point x="1040" y="236" type="line" smooth="yes"/>
      <point x="1040" y="182"/>
      <point x="1060" y="61"/>
      <point x="1078" y="16" type="qcurve"/>
      <point x="1078" y="0" type="line"/>
      <point x="1040" y="0" type="line"/>
      <point x="997" y="-23"/>
      <point x="929" y="-77"/>
      <point x="907" y="-108" type="qcurve" smooth="yes"/>
      <point x="888" y="-133"/>
      <point x="868" y="-189"/>
      <point x="868" y="-219" type="qcurve" smooth="yes"/>
      <point x="868" y="-253"/>
      <point x="904" y="-294"/>
      <point x="946" y="-294" type="qcurve" smooth="yes"/>
      <point x="978" y="-295"/>
      <point x="1031" y="-276"/>
      <point x="1047" y="-268" type="qcurve"/>
      <point x="1078" y="-389" type="line"/>
      <point x="1050" y="-405"/>
      <point x="965" y="-433"/>
      <point x="900" y="-433" type="qcurve" smooth="yes"/>
      <point x="859" y="-433"/>
      <point x="789" y="-409"/>
      <point x="763" y="-385" type="qcurve" smooth="yes" name="inserted"/>
      <point x="737" y="-361"/>
      <point x="707" y="-290"/>
      <point x="707" y="-243" type="qcurve" smooth="yes"/>
      <point x="707" y="-203"/>
      <point x="740" y="-121"/>
      <point x="770" y="-84" type="qcurve" smooth="yes"/>
      <point x="791" y="-57"/>
      <point x="846" y="-8"/>
    </contour>
    <contour>
      <point x="558" y="141" type="qcurve" smooth="yes"/>
      <point x="612" y="141"/>
      <point x="706" y="169"/>
      <point x="745" y="192" type="qcurve" smooth="yes" name="inserted"/>
      <point x="783" y="215"/>
      <point x="839" y="274"/>
      <point x="855" y="306" type="qcurve"/>
      <point x="855" y="525" type="line"/>
      <point x="683" y="525" type="line" smooth="yes"/>
      <point x="586" y="525"/>
      <point x="442" y="491"/>
      <point x="400" y="456" type="qcurve" smooth="yes"/>
      <point x="371" y="433"/>
      <point x="341" y="368"/>
      <point x="341" y="326" type="qcurve" smooth="yes"/>
      <point x="341" y="286"/>
      <point x="368" y="218"/>
      <point x="395" y="194" type="qcurve" smooth="yes" name="inserted"/>
      <point x="422" y="169"/>
      <point x="504" y="141"/>
    </contour>
  </outline>
</glyph>
<glyph name="Dcroat" format="2">
  <advance width="1229"/>
  <unicode hex="0110"/>
  <outline>
    <contour>
      <point x="170" y="0" type="line"/>
      <point x="170" y="666" type="line"/>
      <point x="-59" y="666" type="line"/>
      <point x="-59" y="817" type="line"/>
      <point x="170" y="817" type="line"/>
      <point x="170" y="1456" type="line"/>
      <point x="507" y="1456" type="line" smooth="yes"/>
      <point x="659" y="1454"/>
      <point x="898" y="1355"/>
      <point x="981" y="1267" type="qcurve" smooth="yes" name="inserted"/>
      <point x="1063" y="1178"/>
      <point x="1150" y="931"/>
      <point x="1151" y="781" type="qcurve" smooth="yes"/>
      <point x="1151" y="674" type="line"/>
      <point x="1150" y="524"/>
      <point x="1063" y="277"/>
      <point x="981" y="189" type="qcurve" smooth="yes" name="inserted"/>
      <point x="898" y="100"/>
      <point x="659" y="1"/>
      <point x="507" y="0" type="qcurve" smooth="yes"/>
    </contour>
    <contour>
      <point x="578" y="666" type="line"/>
      <point x="358" y="666" type="line"/>
      <point x="358" y="151" type="line"/>
      <point x="507" y="151" type="line" smooth="yes"/>
      <point x="625" y="152"/>
      <point x="797" y="233"/>
      <point x="854" y="303.0" type="qcurve" smooth="yes" name="inserted"/>
      <point x="910" y="373"/>
      <point x="965" y="563"/>
      <point x="966" y="674" type="qcurve" smooth="yes"/>
      <point x="966" y="783" type="line" smooth="yes"/>
      <point x="965" y="894"/>
      <point x="909" y="1083"/>
      <point x="853.0" y="1153" type="qcurve" smooth="yes" name="inserted"/>
      <point x="797" y="1222"/>
      <point x="625" y="1302"/>
      <point x="507" y="1304" type="qcurve" smooth="yes"/>
      <point x="358" y="1304" type="line"/>
      <point x="358" y="817" type="line"/>
      <point x="578" y="817" type="line"/>
    </contour>
  </outline>
</glyph>
<glyph name="dcroat" format="2">
  <advance width="1259"/>
  <unicode hex="0111"/>
  <outline>
    <contour>
      <point x="1249" y="1234" type="line"/>
      <point x="1052" y="1234" type="line"/>
      <point x="1052" y="0" type="line"/>
      <point x="882" y="0" type="line"/>
      <point x="874" y="114" type="line"/>
      <point x="850" y="84"/>
      <point x="793" y="38"/>
      <point x="760" y="21" type="qcurve" smooth="yes"/>
      <point x="720" y="1"/>
      <point x="625" y="-20"/>
      <point x="570" y="-20" type="qcurve" smooth="yes"/>
      <point x="472" y="-20"/>
      <point x="313" y="64"/>
      <point x="257" y="138" type="qcurve" smooth="yes" name="inserted"/>
      <point x="201" y="212"/>
      <point x="139" y="413"/>
      <point x="139" y="529" type="qcurve" smooth="yes"/>
      <point x="139" y="550" type="line" smooth="yes"/>
      <point x="139" y="671"/>
      <point x="200" y="874"/>
      <point x="257" y="947" type="qcurve" smooth="yes" name="inserted"/>
      <point x="313" y="1020"/>
      <point x="473" y="1102"/>
      <point x="572" y="1102" type="qcurve" smooth="yes"/>
      <point x="632" y="1102"/>
      <point x="734" y="1077"/>
      <point x="776" y="1052" type="qcurve" smooth="yes"/>
      <point x="802" y="1037"/>
      <point x="847" y="998"/>
      <point x="867" y="975" type="qcurve"/>
      <point x="867" y="1234" type="line"/>
      <point x="612" y="1234" type="line"/>
      <point x="612" y="1385" type="line"/>
      <point x="867" y="1385" type="line"/>
      <point x="867" y="1536" type="line"/>
      <point x="1052" y="1536" type="line"/>
      <point x="1052" y="1385" type="line"/>
      <point x="1249" y="1385" type="line"/>
    </contour>
    <contour>
      <point x="324" y="529" type="line" smooth="yes"/>
      <point x="324" y="450"/>
      <point x="358" y="308"/>
      <point x="394" y="254" type="qcurve" smooth="yes" name="inserted"/>
      <point x="429" y="200"/>
      <point x="539" y="137"/>
      <point x="616" y="137" type="qcurve" smooth="yes"/>
      <point x="663" y="137"/>
      <point x="739" y="159"/>
      <point x="770" y="180" type="qcurve" smooth="yes" name="inserted"/>
      <point x="801" y="200"/>
      <point x="849" y="257"/>
      <point x="867" y="292" type="qcurve"/>
      <point x="867" y="794" type="line"/>
      <point x="847" y="830"/>
      <point x="793" y="890"/>
      <point x="759" y="910" type="qcurve" smooth="yes"/>
      <point x="730" y="926"/>
      <point x="659" y="945"/>
      <point x="618" y="945" type="qcurve" smooth="yes"/>
      <point x="540" y="945"/>
      <point x="429" y="881"/>
      <point x="394" y="827" type="qcurve" smooth="yes" name="inserted"/>
      <point x="358" y="772"/>
      <point x="324" y="629"/>
      <point x="324" y="550" type="qcurve" smooth="yes"/>
    </contour>
  </outline>
</glyph>
<glyph name="Eogonek" format="2">
  <advance width="1229"/>
  <unicode hex="0118"/>
  <outline>
    <contour>
      <point x="975" y="673" type="line"/>
      <point x="367" y="673" type="line"/>
      <point x="367" y="157" type="line"/>
      <point x="1076" y="157" type="line"/>
      <point x="1076" y="0" type="line"/>
      <point x="992" y="0" type="line"/>
      <point x="957" y="-19"/>
      <point x="899" y="-62"/>
      <point x="877" y="-86" type="qcurve" smooth="yes"/>
      <point x="850" y="-115"/>
      <point x="820" y="-183"/>
      <point x="820" y="-219" type="qcurve" smooth="yes"/>
      <point x="820" y="-253"/>
      <point x="856" y="-294"/>
      <point x="898" y="-294" type="qcurve" smooth="yes"/>
      <point x="930" y="-295"/>
      <point x="983" y="-276"/>
      <point x="999" y="-268" type="qcurve"/>
      <point x="1030" y="-389" type="line"/>
      <point x="1002" y="-405"/>
      <point x="917" y="-433"/>
      <point x="852" y="-433" type="qcurve" smooth="yes"/>
      <point x="811" y="-433"/>
      <point x="741" y="-409"/>
      <point x="715" y="-385" type="qcurve" smooth="yes" name="inserted"/>
      <point x="689" y="-361"/>
      <point x="659" y="-290"/>
      <point x="659" y="-243" type="qcurve" smooth="yes"/>
      <point x="659" y="-204"/>
      <point x="690" y="-124"/>
      <point x="720" y="-87" type="qcurve" smooth="yes"/>
      <point x="737" y="-64"/>
      <point x="784" y="-20"/>
      <point x="811" y="0" type="qcurve"/>
      <point x="182" y="0" type="line"/>
      <point x="182" y="1456" type="line"/>
      <point x="1067" y="1456" type="line"/>
      <point x="1067" y="1298" type="line"/>
      <point x="367" y="1298" type="line"/>
      <point x="367" y="830" type="line"/>
      <point x="975" y="830" type="line"/>
    </contour>
  </outline>
</glyph>
<glyph name="eogonek" format="2">
  <advance width="1229"/>
  <unicode hex="0119"/>
  <outline>
    <contour>
      <point x="135" y="503" type="qcurve" smooth="yes"/>
      <point x="135" y="545" type="line" smooth="yes"/>
      <point x="135" y="676"/>
      <point x="219" y="883"/>
      <point x="289" y="955" type="qcurve" smooth="yes" name="inserted"/>
      <point x="358" y="1026"/>
      <point x="535" y="1102"/>
      <point x="628" y="1102" type="qcurve" smooth="yes"/>
      <point x="745" y="1102"/>
      <point x="920" y="1021"/>
      <point x="978" y="950" type="qcurve" smooth="yes" name="inserted"/>
      <point x="1036" y="878"/>
      <point x="1093" y="684"/>
      <point x="1093" y="571" type="qcurve" smooth="yes"/>
      <point x="1093" y="488" type="line"/>
      <point x="320" y="488" type="line"/>
      <point x="320" y="487" type="line" smooth="yes"/>
      <point x="320" y="427"/>
      <point x="370" y="288"/>
      <point x="419" y="235" type="qcurve" smooth="yes" name="inserted"/>
      <point x="462" y="188"/>
      <point x="587" y="131"/>
      <point x="662" y="131" type="qcurve" smooth="yes"/>
      <point x="761" y="131"/>
      <point x="915" y="211"/>
      <point x="966" y="277" type="qcurve"/>
      <point x="1079" y="189" type="line"/>
      <point x="1045.0" y="138.0"/>
      <point x="933" y="43.0"/>
      <point x="864" y="18" type="qcurve"/>
      <point x="831" y="0"/>
      <point x="774" y="-41"/>
      <point x="752" y="-64" type="qcurve" smooth="yes"/>
      <point x="724" y="-94"/>
      <point x="692" y="-163"/>
      <point x="692" y="-201" type="qcurve" smooth="yes"/>
      <point x="692" y="-235"/>
      <point x="728" y="-276"/>
      <point x="770" y="-276" type="qcurve" smooth="yes"/>
      <point x="802" y="-277"/>
      <point x="855" y="-258"/>
      <point x="871" y="-250" type="qcurve"/>
      <point x="902" y="-371" type="line"/>
      <point x="874" y="-387"/>
      <point x="789" y="-415"/>
      <point x="724" y="-415" type="qcurve" smooth="yes"/>
      <point x="683" y="-415"/>
      <point x="613" y="-391"/>
      <point x="587" y="-367" type="qcurve" smooth="yes" name="inserted"/>
      <point x="561" y="-343"/>
      <point x="531" y="-272"/>
      <point x="531" y="-225" type="qcurve" smooth="yes"/>
      <point x="531" y="-172"/>
      <point x="586" y="-67"/>
      <point x="637" y="-19" type="qcurve"/>
      <point x="636" y="-19"/>
      <point x="633" y="-19"/>
      <point x="632" y="-19" type="qcurve" smooth="yes"/>
      <point x="522" y="-15"/>
      <point x="340" y="65"/>
      <point x="275" y="134" type="qcurve" smooth="yes" name="inserted"/>
      <point x="208" y="203"/>
      <point x="135.0" y="392"/>
    </contour>
    <contour>
      <point x="628" y="950" type="qcurve" smooth="yes"/>
      <point x="572" y="950"/>
      <point x="472" y="909"/>
      <point x="432" y="870" type="qcurve" smooth="yes" name="inserted"/>
      <point x="392" y="830"/>
      <point x="337" y="715"/>
      <point x="326" y="640" type="qcurve"/>
      <point x="908" y="640" type="line"/>
      <point x="908" y="647" type="line" smooth="yes"/>
      <point x="908.0" y="702.0"/>
      <point x="867" y="818"/>
      <point x="836" y="856" type="qcurve" smooth="yes" name="inserted"/>
      <point x="801" y="898"/>
      <point x="699" y="950"/>
    </contour>
  </outline>
</glyph>
<glyph name="Hbar" format="2">
  <advance width="1229"/>
  <unicode hex="0126"/>
  <outline>
    <contour>
      <point x="1084" y="1167" type="line"/>
      <point x="1212" y="1167" type="line"/>
      <point x="1212" y="1024" type="line"/>
      <point x="1084" y="1024" type="line"/>
      <point x="1084" y="0" type="line"/>
      <point x="909" y="0" type="line"/>
      <point x="909" y="673" type="line"/>
      <point x="312" y="673" type="line"/>
      <point x="312" y="0" type="line"/>
      <point x="138" y="0" type="line"/>
      <point x="138" y="1024" type="line"/>
      <point x="24" y="1024" type="line"/>
      <point x="24" y="1167" type="line"/>
      <point x="138" y="1167" type="line"/>
      <point x="138" y="1456" type="line"/>
      <point x="312" y="1456" type="line"/>
      <point x="312" y="1167" type="line"/>
      <point x="909" y="1167" type="line"/>
      <point x="909" y="1456" type="line"/>
      <point x="1084" y="1456" type="line"/>
    </contour>
    <contour>
      <point x="312" y="830" type="line"/>
      <point x="909" y="830" type="line"/>
      <point x="909" y="1024" type="line"/>
      <point x="312" y="1024" type="line"/>
    </contour>
  </outline>
</glyph>
<glyph name="hbar" format="2">
  <advance width="1259"/>
  <unicode hex="0127"/>
  <outline>
    <contour>
      <point x="663" y="1234" type="line"/>
      <point x="389" y="1234" type="line"/>
      <point x="389" y="921" type="line"/>
      <point x="416" y="961"/>
      <point x="483" y="1025"/>
      <point x="522" y="1048" type="qcurve" smooth="yes"/>
      <point x="566" y="1074"/>
      <point x="667" y="1101"/>
      <point x="723" y="1102" type="qcurve" smooth="yes"/>
      <point x="808" y="1102"/>
      <point x="947" y="1053"/>
      <point x="996" y="1001" type="qcurve" smooth="yes" name="inserted"/>
      <point x="1045" y="949"/>
      <point x="1098" y="790"/>
      <point x="1098" y="681" type="qcurve" smooth="yes"/>
      <point x="1098" y="0" type="line"/>
      <point x="913" y="0" type="line"/>
      <point x="913" y="683" type="line" smooth="yes"/>
      <point x="913" y="749"/>
      <point x="881" y="848"/>
      <point x="851" y="880" type="qcurve" smooth="yes"/>
      <point x="820" y="913"/>
      <point x="727" y="946"/>
      <point x="668" y="945" type="qcurve" smooth="yes"/>
      <point x="618" y="945"/>
      <point x="527" y="917"/>
      <point x="489" y="891" type="qcurve" smooth="yes"/>
      <point x="459" y="871"/>
      <point x="409" y="818"/>
      <point x="389" y="786" type="qcurve"/>
      <point x="389" y="0" type="line"/>
      <point x="204" y="0" type="line"/>
      <point x="204" y="1234" type="line"/>
      <point x="26" y="1234" type="line"/>
      <point x="26" y="1385" type="line"/>
      <point x="204" y="1385" type="line"/>
      <point x="204" y="1536" type="line"/>
      <point x="389" y="1536" type="line"/>
      <point x="389" y="1385" type="line"/>
      <point x="663" y="1385" type="line"/>
    </contour>
  </outline>
</glyph>
<glyph name="iogonek" format="2">
  <advance width="1229"/>
  <unicode hex="012F"/>
  <outline>
    <contour>
      <point x="203" y="1082" type="line"/>
      <point x="756" y="1082" type="line"/>
      <point x="756" y="160" type="line"/>
      <point x="1109" y="160" type="line"/>
      <point x="1109" y="0" type="line"/>
      <point x="756" y="0" type="line"/>
      <point x="719" y="-20"/>
      <point x="659" y="-65"/>
      <point x="637" y="-91" type="qcurve" smooth="yes"/>
      <point x="612" y="-119"/>
      <point x="584" y="-184"/>
      <point x="584" y="-219" type="qcurve" smooth="yes"/>
      <point x="584" y="-253"/>
      <point x="620" y="-294"/>
      <point x="662" y="-294" type="qcurve" smooth="yes"/>
      <point x="694" y="-295"/>
      <point x="747" y="-276"/>
      <point x="763" y="-268" type="qcurve"/>
      <point x="794" y="-389" type="line"/>
      <point x="766" y="-405"/>
      <point x="681" y="-433"/>
      <point x="616" y="-433" type="qcurve" smooth="yes"/>
      <point x="575" y="-433"/>
      <point x="505" y="-409"/>
      <point x="479" y="-385" type="qcurve" smooth="yes" name="inserted"/>
      <point x="453" y="-361"/>
      <point x="423" y="-290"/>
      <point x="423" y="-243" type="qcurve" smooth="yes"/>
      <point x="423" y="-200"/>
      <point x="460" y="-114"/>
      <point x="495" y="-74" type="qcurve" smooth="yes"/>
      <point x="511" y="-54"/>
      <point x="552" y="-17"/>
      <point x="575" y="0" type="qcurve"/>
      <point x="203" y="0" type="line"/>
      <point x="203" y="160" type="line"/>
      <point x="571" y="160" type="line"/>
      <point x="571" y="921" type="line"/>
      <point x="203" y="921" type="line"/>
    </contour>
    <contour>
      <point x="547" y="1366" type="qcurve" smooth="yes"/>
      <point x="547" y="1412"/>
      <point x="602" y="1475"/>
      <point x="658" y="1475" type="qcurve" smooth="yes"/>
      <point x="713" y="1475"/>
      <point x="769" y="1412"/>
      <point x="769" y="1366" type="qcurve" smooth="yes"/>
      <point x="769" y="1321"/>
      <point x="713" y="1261"/>
      <point x="658" y="1261" type="qcurve" smooth="yes"/>
      <point x="602" y="1261"/>
      <point x="547" y="1321"/>
    </contour>
  </outline>
</glyph>
<glyph name="dotlessi" format="2">
  <advance width="1229"/>
  <unicode hex="0131"/>
  <outline>
    <contour>
      <point x="203" y="1082" type="line"/>
      <point x="756" y="1082" type="line"/>
      <point x="756" y="160" type="line"/>
      <point x="1109" y="160" type="line"/>
      <point x="1109" y="0" type="line"/>
      <point x="203" y="0" type="line"/>
      <point x="203" y="160" type="line"/>
      <point x="571" y="160" type="line"/>
      <point x="571" y="921" type="line"/>
      <point x="203" y="921" type="line"/>
    </contour>
  </outline>
</glyph>
<glyph name="ij" format="2">
  <advance width="1229"/>
  <unicode hex="0133"/>
  <outline>
    <contour>
      <point x="686" y="1082" type="line"/>
      <point x="1093" y="1082" type="line"/>
      <point x="1093" y="-5" type="line" smooth="yes"/>
      <point x="1093" y="-109"/>
      <point x="1036" y="-268"/>
      <point x="982" y="-323" type="qcurve" smooth="yes" name="inserted"/>
      <point x="927" y="-378"/>
      <point x="770" y="-434"/>
      <point x="670" y="-434" type="qcurve" smooth="yes"/>
      <point x="637" y="-434"/>
      <point x="577" y="-432"/>
      <point x="547" y="-429" type="qcurve" smooth="yes"/>
      <point x="526" y="-427"/>
      <point x="482" y="-421"/>
      <point x="459" y="-417" type="qcurve"/>
      <point x="472" y="-259" type="line"/>
      <point x="489" y="-262"/>
      <point x="541" y="-267"/>
      <point x="568" y="-268" type="qcurve" smooth="yes" name="inserted"/>
      <point x="595" y="-270"/>
      <point x="643" y="-271"/>
      <point x="657" y="-271" type="qcurve" smooth="yes"/>
      <point x="709" y="-271"/>
      <point x="801" y="-246"/>
      <point x="835" y="-215" type="qcurve" smooth="yes" name="inserted"/>
      <point x="869" y="-185"/>
      <point x="908" y="-82"/>
      <point x="908" y="-5" type="qcurve" smooth="yes"/>
      <point x="908" y="921" type="line"/>
      <point x="686" y="921" type="line"/>
    </contour>
    <contour>
      <point x="85" y="1082" type="line"/>
      <point x="505" y="1082" type="line"/>
      <point x="505" y="160" type="line"/>
      <point x="728" y="160" type="line"/>
      <point x="728" y="0" type="line"/>
      <point x="80" y="0" type="line"/>
      <point x="80" y="160" type="line"/>
      <point x="319" y="160" type="line"/>
      <point x="319" y="921" type="line"/>
      <point x="85" y="921" type="line"/>
    </contour>
    <contour>
      <point x="303" y="1362" type="qcurve" smooth="yes"/>
      <point x="303" y="1407"/>
      <point x="358" y="1470"/>
      <point x="414" y="1470" type="qcurve" smooth="yes"/>
      <point x="469" y="1470"/>
      <point x="525" y="1407"/>
      <point x="525" y="1362" type="qcurve" smooth="yes"/>
      <point x="525" y="1317"/>
      <point x="469" y="1256"/>
      <point x="414" y="1256" type="qcurve" smooth="yes"/>
      <point x="358" y="1256"/>
      <point x="303" y="1317"/>
    </contour>
    <contour>
      <point x="881" y="1363" type="qcurve" smooth="yes"/>
      <point x="881" y="1408"/>
      <point x="935" y="1471"/>
      <point x="991" y="1471" type="qcurve" smooth="yes"/>
      <point x="1047" y="1471"/>
      <point x="1103" y="1408"/>
      <point x="1103" y="1363" type="qcurve" smooth="yes"/>
      <point x="1103" y="1318"/>
      <point x="1047" y="1257"/>
      <point x="991" y="1257" type="qcurve" smooth="yes"/>
      <point x="935" y="1257"/>
      <point x="881" y="1318"/>
    </contour>
  </outline>
</glyph>
<glyph name="kgreenlandic" format="2">
  <advance width="1229"/>
  <unicode hex="0138"/>
  <outline>
    <contour>
      <point x="521" y="477" type="line"/>
      <point x="371" y="344" type="line"/>
      <point x="371" y="0" type="line"/>
      <point x="186" y="0" type="line"/>
      <point x="186" y="1082" type="line"/>
      <point x="371" y="1082" type="line"/>
      <point x="371" y="551" type="line"/>
      <point x="481" y="671" type="line"/>
      <point x="879" y="1082" type="line"/>
      <point x="1102" y="1082" type="line"/>
      <point x="646" y="603" type="line"/>
      <point x="1138" y="0" type="line"/>
      <point x="904" y="0" type="line"/>
    </contour>
  </outline>
</glyph>
<glyph name="Eng" format="2">
  <advance width="1229"/>
  <unicode hex="014A"/>
  <outline>
    <contour>
      <point x="1052" y="1456" type="line"/>
      <point x="1053" y="-89" type="line" smooth="yes"/>
      <point x="1053" y="-171"/>
      <point x="1010" y="-300"/>
      <point x="970" y="-345" type="qcurve" smooth="yes" name="inserted"/>
      <point x="929" y="-390"/>
      <point x="811" y="-437"/>
      <point x="735" y="-437" type="qcurve" smooth="yes"/>
      <point x="705" y="-437"/>
      <point x="654" y="-429"/>
      <point x="625" y="-419" type="qcurve"/>
      <point x="639" y="-272" type="line"/>
      <point x="659" y="-278"/>
      <point x="717" y="-285.0"/>
      <point x="735" y="-285" type="qcurve" smooth="yes"/>
      <point x="761" y="-285"/>
      <point x="802" y="-267"/>
      <point x="818" y="-251" type="qcurve" smooth="yes"/>
      <point x="842" y="-225"/>
      <point x="867" y="-142"/>
      <point x="867" y="-89" type="qcurve" smooth="yes"/>
      <point x="867" y="2" type="line"/>
      <point x="360" y="1069" type="line"/>
      <point x="360" y="0" type="line"/>
      <point x="175" y="0" type="line"/>
      <point x="175" y="1456" type="line"/>
      <point x="360" y="1456" type="line"/>
      <point x="363" y="1450" type="line"/>
      <point x="867" y="389" type="line"/>
      <point x="867" y="1456" type="line"/>
    </contour>
  </outline>
</glyph>
<glyph name="oe" format="2">
  <advance width="1229"/>
  <unicode hex="0153"/>
  <outline>
    <contour>
      <point x="46" y="639" type="line" smooth="yes"/>
      <point x="46" y="744"/>
      <point x="91" y="914"/>
      <point x="135" y="975" type="qcurve" smooth="yes" name="inserted"/>
      <point x="178" y="1036"/>
      <point x="306" y="1102"/>
      <point x="388" y="1102" type="qcurve" smooth="yes"/>
      <point x="443" y="1102"/>
      <point x="535" y="1073"/>
      <point x="572" y="1046" type="qcurve" smooth="yes"/>
      <point x="593" y="1032"/>
      <point x="629" y="995"/>
      <point x="644" y="973" type="qcurve"/>
      <point x="661" y="997"/>
      <point x="700" y="1037"/>
      <point x="722" y="1052" type="qcurve" smooth="yes"/>
      <point x="756" y="1077"/>
      <point x="836" y="1102"/>
      <point x="879" y="1102" type="qcurve" smooth="yes"/>
      <point x="962" y="1102"/>
      <point x="1083" y="1038"/>
      <point x="1123" y="981" type="qcurve" smooth="yes" name="inserted"/>
      <point x="1162" y="924"/>
      <point x="1200" y="768"/>
      <point x="1200" y="677" type="qcurve"/>
      <point x="1200" y="496" type="line"/>
      <point x="742" y="496" type="line"/>
      <point x="742" y="432" type="line" smooth="yes"/>
      <point x="742" y="393"/>
      <point x="747" y="322"/>
      <point x="755" y="291" type="qcurve" smooth="yes"/>
      <point x="765" y="250"/>
      <point x="795" y="188"/>
      <point x="814" y="168" type="qcurve" smooth="yes"/>
      <point x="832" y="149"/>
      <point x="878" y="130"/>
      <point x="907" y="130" type="qcurve" smooth="yes"/>
      <point x="942" y="130"/>
      <point x="1000" y="142"/>
      <point x="1023" y="152" type="qcurve" smooth="yes"/>
      <point x="1046" y="162"/>
      <point x="1082" y="186"/>
      <point x="1098" y="200" type="qcurve"/>
      <point x="1153" y="74" type="line"/>
      <point x="1136" y="56"/>
      <point x="1091" y="22"/>
      <point x="1061" y="9" type="qcurve" smooth="yes" name="inserted"/>
      <point x="1031" y="-4"/>
      <point x="955" y="-20"/>
      <point x="907" y="-20" type="qcurve" smooth="yes"/>
      <point x="850" y="-20"/>
      <point x="753" y="8"/>
      <point x="715" y="36" type="qcurve" smooth="yes"/>
      <point x="695" y="50"/>
      <point x="659" y="86"/>
      <point x="644" y="107" type="qcurve"/>
      <point x="628" y="84"/>
      <point x="589" y="46"/>
      <point x="568" y="31" type="qcurve" smooth="yes"/>
      <point x="531" y="6"/>
      <point x="442" y="-20"/>
      <point x="390" y="-20" type="qcurve" smooth="yes"/>
      <point x="307" y="-20"/>
      <point x="179" y="46"/>
      <point x="135" y="106" type="qcurve" smooth="yes" name="inserted"/>
      <point x="91" y="166"/>
      <point x="46" y="336"/>
      <point x="46" y="441" type="qcurve" smooth="yes"/>
    </contour>
    <contour>
      <point x="232" y="441" type="line" smooth="yes"/>
      <point x="232" y="373"/>
      <point x="249" y="258"/>
      <point x="268" y="217" type="qcurve" smooth="yes" name="inserted"/>
      <point x="287" y="176"/>
      <point x="347" y="130"/>
      <point x="390" y="130" type="qcurve" smooth="yes"/>
      <point x="416" y="130"/>
      <point x="460" y="149"/>
      <point x="474" y="165" type="qcurve" smooth="yes"/>
      <point x="498" y="191"/>
      <point x="527" y="254"/>
      <point x="532" y="283" type="qcurve" smooth="yes"/>
      <point x="538" y="317"/>
      <point x="547" y="397"/>
      <point x="547" y="441" type="qcurve" smooth="yes"/>
      <point x="547" y="639" type="line" smooth="yes"/>
      <point x="547" y="674"/>
      <point x="542" y="739"/>
      <point x="538" y="767" type="qcurve" smooth="yes"/>
      <point x="533" y="794"/>
      <point x="519" y="843"/>
      <point x="510" y="863" type="qcurve" smooth="yes" name="inserted"/>
      <point x="491" y="904"/>
      <point x="430" y="950"/>
      <point x="388" y="950" type="qcurve" smooth="yes"/>
      <point x="346" y="950"/>
      <point x="287" y="903"/>
      <point x="269" y="862" type="qcurve" smooth="yes" name="inserted"/>
      <point x="250" y="821"/>
      <point x="232" y="706"/>
      <point x="232" y="639" type="qcurve" smooth="yes"/>
    </contour>
    <contour>
      <point x="879" y="950" type="qcurve" smooth="yes"/>
      <point x="860" y="950"/>
      <point x="826" y="935"/>
      <point x="811" y="920" type="qcurve" smooth="yes"/>
      <point x="790" y="898"/>
      <point x="759" y="820"/>
      <point x="752" y="775" type="qcurve" smooth="yes"/>
      <point x="748" y="748"/>
      <point x="742" y="685"/>
      <point x="742" y="651" type="qcurve" smooth="yes"/>
      <point x="742" y="647" type="line"/>
      <point x="1015" y="647" type="line"/>
      <point x="1015" y="732" type="line" smooth="yes"/>
      <point x="1015" y="774"/>
      <point x="1000" y="852"/>
      <point x="984" y="883" type="qcurve" smooth="yes" name="inserted"/>
      <point x="967" y="913"/>
      <point x="916" y="950"/>
    </contour>
  </outline>
</glyph>
<glyph name="uogonek" format="2">
  <advance width="1229"/>
  <unicode hex="0173"/>
  <outline>
    <contour>
      <point x="1054" y="0" type="line"/>
      <point x="1014" y="-22"/>
      <point x="948" y="-73"/>
      <point x="926" y="-101" type="qcurve" smooth="yes"/>
      <point x="905" y="-128"/>
      <point x="882" y="-187"/>
      <point x="882" y="-219" type="qcurve" smooth="yes"/>
      <point x="882" y="-253"/>
      <point x="918" y="-294"/>
      <point x="960" y="-294" type="qcurve" smooth="yes"/>
      <point x="992" y="-295"/>
      <point x="1045" y="-276"/>
      <point x="1061" y="-268" type="qcurve"/>
      <point x="1092" y="-389" type="line"/>
      <point x="1064" y="-405"/>
      <point x="979" y="-433"/>
      <point x="914" y="-433" type="qcurve" smooth="yes"/>
      <point x="873" y="-433"/>
      <point x="803" y="-409"/>
      <point x="777" y="-385" type="qcurve" smooth="yes" name="inserted"/>
      <point x="751" y="-361"/>
      <point x="721" y="-290"/>
      <point x="721" y="-243" type="qcurve" smooth="yes"/>
      <point x="721" y="-198"/>
      <point x="762" y="-107"/>
      <point x="800" y="-65" type="qcurve" smooth="yes"/>
      <point x="818" y="-45"/>
      <point x="861" y="-8"/>
      <point x="886" y="9" type="qcurve"/>
      <point x="876" y="149" type="line"/>
      <point x="822" y="69"/>
      <point x="660" y="-20"/>
      <point x="554" y="-20" type="qcurve" smooth="yes"/>
      <point x="469" y="-20"/>
      <point x="331" y="33"/>
      <point x="282" y="89" type="qcurve" smooth="yes" name="inserted"/>
      <point x="233" y="145"/>
      <point x="180" y="318"/>
      <point x="180" y="439" type="qcurve" smooth="yes"/>
      <point x="180" y="1082" type="line"/>
      <point x="365" y="1082" type="line"/>
      <point x="365" y="437" type="line" smooth="yes"/>
      <point x="365" y="349"/>
      <point x="393" y="233"/>
      <point x="421" y="199" type="qcurve" smooth="yes" name="inserted"/>
      <point x="449" y="164"/>
      <point x="530" y="136"/>
      <point x="583" y="136" type="qcurve" smooth="yes"/>
      <point x="646" y="136"/>
      <point x="744" y="165"/>
      <point x="781" y="192" type="qcurve" smooth="yes"/>
      <point x="810" y="213"/>
      <point x="854" y="271"/>
      <point x="869" y="306" type="qcurve"/>
      <point x="869" y="1082" type="line"/>
      <point x="1055" y="1082" type="line"/>
      <point x="1055" y="0" type="line"/>
    </contour>
  </outline>
</glyph>
<glyph name="longs" format="2">
  <advance width="1229"/>
  <unicode hex="017F"/>
  <outline>
    <contour>
      <point x="456" y="0" type="line"/>
      <point x="456" y="1126" type="line" smooth="yes"/>
      <point x="456" y="1235"/>
      <point x="517" y="1404"/>
      <point x="573.5" y="1461.5" type="qcurve" smooth="yes" name="inserted"/>
      <point x="630" y="1519"/>
      <point x="790" y="1579"/>
      <point x="890" y="1579" type="qcurve" smooth="yes"/>
      <point x="927" y="1579"/>
      <point x="998" y="1567"/>
      <point x="1035" y="1558" type="qcurve"/>
      <point x="1012" y="1416" type="line"/>
      <point x="994" y="1421"/>
      <point x="948" y="1427"/>
      <point x="919" y="1427" type="qcurve" smooth="yes"/>
      <point x="851" y="1427"/>
      <point x="748" y="1385"/>
      <point x="713.0" y="1346.0" type="qcurve" smooth="yes" name="inserted"/>
      <point x="678" y="1307"/>
      <point x="642" y="1195"/>
      <point x="642" y="1126" type="qcurve" smooth="yes"/>
      <point x="642" y="0" type="line"/>
    </contour>
  </outline>
</glyph>
<glyph name="Ohorn" format="2">
  <advance width="1229"/>
  <unicode hex="01A0"/>
  <outline>
    <contour>
      <point x="1114" y="644" type="line"/>
      <point x="1112.4836861671502" y="525.7275210377045"/>
      <point x="1054" y="281"/>
      <point x="992" y="190" type="qcurve" smooth="yes"/>
      <point x="928" y="95"/>
      <point x="741.2796141387605" y="-20.0"/>
      <point x="608" y="-20" type="qcurve" smooth="yes"/>
      <point x="473" y="-20"/>
      <point x="280" y="100"/>
      <point x="220" y="197" type="qcurve" smooth="yes"/>
      <point x="161" y="292"/>
      <point x="99" y="527"/>
      <point x="99" y="644" type="qcurve" smooth="yes"/>
      <point x="99" y="810" type="line" smooth="yes"/>
      <point x="99" y="949"/>
      <point x="181" y="1224"/>
      <point x="261" y="1318" type="qcurve" smooth="yes"/>
      <point x="323" y="1391"/>
      <point x="493" y="1476"/>
      <point x="606" y="1476" type="qcurve" smooth="yes"/>
      <point x="666" y="1476"/>
      <point x="770" y="1452"/>
      <point x="814" y="1429" type="qcurve" smooth="yes"/>
      <point x="853" y="1409"/>
      <point x="920" y="1354"/>
      <point x="949" y="1321" type="qcurve"/>
      <point x="974" y="1329"/>
      <point x="1012" y="1362"/>
      <point x="1025" y="1386" type="qcurve" smooth="yes"/>
      <point x="1039" y="1413"/>
      <point x="1053" y="1486"/>
      <point x="1054" y="1530" type="qcurve"/>
      <point x="1221" y="1530" type="line"/>
      <point x="1222" y="1458"/>
      <point x="1189" y="1340"/>
      <point x="1158" y="1296" type="qcurve" smooth="yes"/>
      <point x="1134" y="1264"/>
      <point x="1068" y="1215"/>
      <point x="1028" y="1200" type="qcurve"/>
      <point x="1072" y="1112"/>
      <point x="1112" y="910"/>
      <point x="1114" y="810" type="qcurve" smooth="yes"/>
    </contour>
    <contour>
      <point x="931" y="812" type="line" smooth="yes"/>
      <point x="931" y="910"/>
      <point x="889" y="1107"/>
      <point x="841" y="1180" type="qcurve" smooth="yes"/>
      <point x="803" y="1238"/>
      <point x="685" y="1311"/>
      <point x="606" y="1311" type="qcurve" smooth="yes"/>
      <point x="529" y="1311"/>
      <point x="418" y="1247"/>
      <point x="382" y="1194" type="qcurve" smooth="yes"/>
      <point x="325" y="1115"/>
      <point x="281" y="903"/>
      <point x="281" y="812" type="qcurve" smooth="yes"/>
      <point x="281" y="644" type="line" smooth="yes"/>
      <point x="281" y="559"/>
      <point x="320" y="365"/>
      <point x="365" y="287" type="qcurve" smooth="yes"/>
      <point x="400" y="225"/>
      <point x="520" y="143"/>
      <point x="608" y="143" type="qcurve" smooth="yes"/>
      <point x="696" y="143.0"/>
      <point x="820" y="228"/>
      <point x="857" y="297" type="qcurve" smooth="yes"/>
      <point x="896" y="369"/>
      <point x="929.3802885970775" y="559.7750070480313"/>
      <point x="931" y="644" type="qcurve" smooth="yes"/>
    </contour>
  </outline>
</glyph>
<glyph name="Uhorn" format="2">
  <advance width="1229"/>
  <unicode hex="01AF"/>
  <outline>
    <contour>
      <point x="1088" y="1456" type="line"/>
      <point x="1088" y="1272" type="line"/>
      <point x="1133" y="1278"/>
      <point x="1193" y="1312"/>
      <point x="1211" y="1342" type="qcurve" smooth="yes" name="inserted"/>
      <point x="1229" y="1371"/>
      <point x="1244" y="1456"/>
      <point x="1244" y="1512" type="qcurve"/>
      <point x="1411" y="1512" type="line"/>
      <point x="1411" y="1419"/>
      <point x="1370" y="1280"/>
      <point x="1328" y="1233" type="qcurve" smooth="yes"/>
      <point x="1289" y="1190"/>
      <point x="1169" y="1141"/>
      <point x="1089" y="1136" type="qcurve"/>
      <point x="1090" y="470" type="line" smooth="yes"/>
      <point x="1090" y="368"/>
      <point x="1018" y="190"/>
      <point x="955" y="124" type="qcurve" smooth="yes" name="inserted"/>
      <point x="892" y="57"/>
      <point x="718" y="-20"/>
      <point x="614" y="-20" type="qcurve" smooth="yes"/>
      <point x="508" y="-20"/>
      <point x="334" y="56"/>
      <point x="272" y="123" type="qcurve" smooth="yes" name="inserted"/>
      <point x="210" y="189"/>
      <point x="140" y="368"/>
      <point x="139" y="470" type="qcurve" smooth="yes"/>
      <point x="141" y="1456" type="line"/>
      <point x="317" y="1456" type="line"/>
      <point x="321" y="470" type="line" smooth="yes"/>
      <point x="322" y="405"/>
      <point x="361" y="285"/>
      <point x="398" y="239" type="qcurve" smooth="yes" name="inserted"/>
      <point x="434" y="193"/>
      <point x="543" y="137"/>
      <point x="614" y="137" type="qcurve" smooth="yes"/>
      <point x="685" y="137"/>
      <point x="793" y="192"/>
      <point x="830" y="239" type="qcurve" smooth="yes" name="inserted"/>
      <point x="866" y="285"/>
      <point x="904" y="405"/>
      <point x="906" y="470" type="qcurve" smooth="yes"/>
      <point x="909" y="1456" type="line"/>
    </contour>
  </outline>
</glyph>
<glyph name="uhorn" format="2">
  <advance width="1229"/>
  <unicode hex="01B0"/>
  <outline>
    <contour>
      <point x="1343" y="1171" type="line"/>
      <point x="1342" y="1001"/>
      <point x="1202" y="821"/>
      <point x="1055" y="802" type="qcurve"/>
      <point x="1055" y="0" type="line"/>
      <point x="887" y="0" type="line"/>
      <point x="876" y="149" type="line"/>
      <point x="822" y="69"/>
      <point x="660" y="-20"/>
      <point x="554" y="-20" type="qcurve" smooth="yes"/>
      <point x="469" y="-20"/>
      <point x="331" y="33"/>
      <point x="282" y="89" type="qcurve" smooth="yes" name="inserted"/>
      <point x="233" y="145"/>
      <point x="180" y="318"/>
      <point x="180" y="439" type="qcurve" smooth="yes"/>
      <point x="180" y="1082" type="line"/>
      <point x="365" y="1082" type="line"/>
      <point x="365" y="437" type="line" smooth="yes"/>
      <point x="365" y="349"/>
      <point x="393" y="233"/>
      <point x="421" y="199" type="qcurve" smooth="yes" name="inserted"/>
      <point x="449" y="164"/>
      <point x="530" y="136"/>
      <point x="583" y="136" type="qcurve" smooth="yes"/>
      <point x="657" y="136"/>
      <point x="768" y="177"/>
      <point x="806" y="213" type="qcurve" smooth="yes"/>
      <point x="826" y="232"/>
      <point x="857" y="279"/>
      <point x="869" y="306" type="qcurve"/>
      <point x="869" y="1082" type="line"/>
      <point x="1055" y="1082" type="line"/>
      <point x="1055" y="941" type="line"/>
      <point x="1087" y="949"/>
      <point x="1132" y="983"/>
      <point x="1146" y="1008" type="qcurve" smooth="yes"/>
      <point x="1162" y="1036"/>
      <point x="1175" y="1118"/>
      <point x="1175" y="1171" type="qcurve"/>
    </contour>
  </outline>
</glyph>
<glyph name="uni0237" format="2">
  <advance width="1229"/>
  <unicode hex="0237"/>
  <outline>
    <contour>
      <point x="260" y="1082" type="line"/>
      <point x="810" y="1082" type="line"/>
      <point x="810" y="-7" type="line" smooth="yes"/>
      <point x="810" y="-111"/>
      <point x="753" y="-271"/>
      <point x="699" y="-325" type="qcurve" smooth="yes" name="inserted"/>
      <point x="644" y="-380"/>
      <point x="487" y="-437"/>
      <point x="387" y="-437" type="qcurve" smooth="yes"/>
      <point x="354" y="-437"/>
      <point x="295" y="-435"/>
      <point x="266" y="-432" type="qcurve" smooth="yes"/>
      <point x="244" y="-430"/>
      <point x="200" y="-424"/>
      <point x="176" y="-420" type="qcurve"/>
      <point x="189" y="-268" type="line"/>
      <point x="206" y="-271"/>
      <point x="257" y="-276"/>
      <point x="284" y="-277" type="qcurve" smooth="yes" name="inserted"/>
      <point x="311" y="-279"/>
      <point x="360" y="-280"/>
      <point x="374" y="-280" type="qcurve" smooth="yes"/>
      <point x="426" y="-280"/>
      <point x="517" y="-253"/>
      <point x="551" y="-221" type="qcurve" smooth="yes" name="inserted"/>
      <point x="585" y="-189"/>
      <point x="624" y="-84"/>
      <point x="624" y="-7" type="qcurve" smooth="yes"/>
      <point x="624" y="921" type="line"/>
      <point x="260" y="921" type="line"/>
    </contour>
  </outline>
</glyph>
<glyph name="circumflex" format="2">
  <advance width="1229"/>
  <unicode hex="02C6"/>
  <outline>
    <contour>
      <point x="798" y="1277" type="line"/>
      <point x="798" y="1252" type="line"/>
      <point x="644" y="1252" type="line"/>
      <point x="494" y="1403" type="line"/>
      <point x="345" y="1252" type="line"/>
      <point x="193" y="1252" type="line"/>
      <point x="193" y="1278" type="line"/>
      <point x="438" y="1517" type="line"/>
      <point x="550" y="1517" type="line"/>
    </contour>
  </outline>
</glyph>
<glyph name="caron" format="2">
  <advance width="1229"/>
  <unicode hex="02C7"/>
  <outline>
    <contour>
      <point x="612" y="1365" type="line"/>
      <point x="763" y="1517" type="line"/>
      <point x="923" y="1517" type="line"/>
      <point x="923" y="1499" type="line"/>
      <point x="669" y="1251" type="line"/>
      <point x="555" y="1251" type="line"/>
      <point x="304" y="1496" type="line"/>
      <point x="304" y="1517" type="line"/>
      <point x="461" y="1517" type="line"/>
    </contour>
  </outline>
</glyph>
<glyph name="ring" format="2">
  <advance width="1229"/>
  <unicode hex="02DA"/>
  <outline>
    <contour>
      <point x="410" y="1312" type="qcurve" smooth="yes"/>
      <point x="410" y="1355"/>
      <point x="443" y="1428"/>
      <point x="470.5" y="1454.5" type="qcurve" smooth="yes" name="inserted"/>
      <point x="498" y="1481"/>
      <point x="573" y="1511"/>
      <point x="615" y="1511" type="qcurve" smooth="yes"/>
      <point x="657" y="1511"/>
      <point x="730" y="1481"/>
      <point x="757.5" y="1454.5" type="qcurve" smooth="yes" name="inserted"/>
      <point x="785" y="1428"/>
      <point x="817" y="1355"/>
      <point x="817" y="1312" type="qcurve" smooth="yes"/>
      <point x="817" y="1269"/>
      <point x="785" y="1197"/>
      <point x="757.5" y="1171.5" type="qcurve" smooth="yes" name="inserted"/>
      <point x="730" y="1146"/>
      <point x="657" y="1118"/>
      <point x="615" y="1118" type="qcurve" smooth="yes"/>
      <point x="573" y="1118"/>
      <point x="498" y="1146"/>
      <point x="470.5" y="1171.5" type="qcurve" smooth="yes" name="inserted"/>
      <point x="443" y="1197"/>
      <point x="410" y="1269"/>
    </contour>
    <contour>
      <point x="509" y="1312" type="qcurve" smooth="yes"/>
      <point x="509" y="1290"/>
      <point x="526" y="1252"/>
      <point x="541" y="1238" type="qcurve" smooth="yes" name="inserted"/>
      <point x="555" y="1223"/>
      <point x="593" y="1207"/>
      <point x="615" y="1207" type="qcurve" smooth="yes"/>
      <point x="637" y="1207"/>
      <point x="674" y="1223"/>
      <point x="688" y="1237" type="qcurve" smooth="yes" name="inserted"/>
      <point x="702" y="1251"/>
      <point x="718" y="1289"/>
      <point x="718" y="1312" type="qcurve" smooth="yes"/>
      <point x="718" y="1336"/>
      <point x="702" y="1377"/>
      <point x="688" y="1392" type="qcurve" smooth="yes"/>
      <point x="674" y="1406"/>
      <point x="637" y="1421"/>
      <point x="615" y="1421" type="qcurve" smooth="yes"/>
      <point x="594" y="1421"/>
      <point x="556" y="1406"/>
      <point x="542" y="1393" type="qcurve" smooth="yes"/>
      <point x="527" y="1378"/>
      <point x="509" y="1337"/>
    </contour>
  </outline>
</glyph>
<glyph name="ogonek" format="2">
  <advance width="1229"/>
  <unicode hex="02DB"/>
  <outline>
    <contour>
      <point x="731" y="0" type="line"/>
      <point x="698" y="-18"/>
      <point x="641" y="-59"/>
      <point x="620" y="-81" type="qcurve" smooth="yes"/>
      <point x="591" y="-112"/>
      <point x="559" y="-181"/>
      <point x="559" y="-219" type="qcurve" smooth="yes"/>
      <point x="559" y="-253"/>
      <point x="595" y="-294"/>
      <point x="637" y="-294" type="qcurve" smooth="yes"/>
      <point x="669" y="-295"/>
      <point x="722" y="-276"/>
      <point x="738" y="-268" type="qcurve"/>
      <point x="769" y="-389" type="line"/>
      <point x="741" y="-405"/>
      <point x="656" y="-433"/>
      <point x="591" y="-433" type="qcurve" smooth="yes"/>
      <point x="550" y="-433"/>
      <point x="480" y="-409"/>
      <point x="454" y="-385" type="qcurve" smooth="yes" name="inserted"/>
      <point x="428" y="-361"/>
      <point x="398" y="-290"/>
      <point x="398" y="-243" type="qcurve" smooth="yes"/>
      <point x="398" y="-202"/>
      <point x="433" y="-119"/>
      <point x="465" y="-80" type="qcurve" smooth="yes" name="inserted"/>
      <point x="497" y="-41"/>
      <point x="588" y="29"/>
      <point x="644" y="56" type="qcurve"/>
    </contour>
  </outline>
</glyph>
<glyph name="hungarumlaut" format="2">
  <advance width="1229"/>
  <unicode hex="02DD"/>
  <outline>
    <contour>
      <point x="757" y="1519" type="line"/>
      <point x="982" y="1519" type="line"/>
      <point x="677" y="1250" type="line"/>
      <point x="508" y="1250" type="line"/>
    </contour>
    <contour>
      <point x="434" y="1519" type="line"/>
      <point x="641" y="1519" type="line"/>
      <point x="396" y="1250" type="line"/>
      <point x="246" y="1250" type="line"/>
    </contour>
  </outline>
</glyph>
<glyph name="uni02F3" format="2">
  <advance width="1229"/>
  <unicode hex="02F3"/>
  <outline>
    <contour>
      <point x="429" y="-233" type="qcurve" smooth="yes"/>
      <point x="429" y="-201"/>
      <point x="453" y="-146"/>
      <point x="474.0" y="-126.5" type="qcurve" smooth="yes" name="inserted"/>
      <point x="495" y="-107"/>
      <point x="551" y="-85"/>
      <point x="583" y="-85" type="qcurve" smooth="yes"/>
      <point x="614" y="-85"/>
      <point x="668" y="-107"/>
      <point x="688.5" y="-126.5" type="qcurve" smooth="yes" name="inserted"/>
      <point x="709" y="-146"/>
      <point x="733" y="-201"/>
      <point x="733" y="-233" type="qcurve" smooth="yes"/>
      <point x="733" y="-265"/>
      <point x="709" y="-319"/>
      <point x="688.5" y="-338.0" type="qcurve" smooth="yes" name="inserted"/>
      <point x="668" y="-357"/>
      <point x="614" y="-378"/>
      <point x="583" y="-378" type="qcurve" smooth="yes"/>
      <point x="551" y="-378"/>
      <point x="495" y="-357"/>
      <point x="474.0" y="-338.0" type="qcurve" smooth="yes" name="inserted"/>
      <point x="453" y="-319"/>
      <point x="429" y="-265"/>
    </contour>
    <contour>
      <point x="515" y="-233" type="qcurve"/>
      <point x="516" y="-260"/>
      <point x="555" y="-298"/>
      <point x="583" y="-298" type="qcurve" smooth="yes"/>
      <point x="609" y="-298"/>
      <point x="647" y="-261"/>
      <point x="647" y="-233" type="qcurve" smooth="yes"/>
      <point x="647" y="-204"/>
      <point x="609" y="-165"/>
      <point x="583" y="-165" type="qcurve" smooth="yes"/>
      <point x="555" y="-165"/>
      <point x="516" y="-204"/>
    </contour>
  </outline>
</glyph>
<glyph name="hook" format="2">
  <advance width="1229"/>
  <unicode hex="0309"/>
  <outline>
    <contour>
      <point x="-657" y="1241" type="line"/>
      <point x="-658" y="1394" type="line"/>
      <point x="-625" y="1396"/>
      <point x="-573" y="1404"/>
      <point x="-555" y="1411" type="qcurve" smooth="yes"/>
      <point x="-534" y="1419"/>
      <point x="-513" y="1446"/>
      <point x="-513" y="1468" type="qcurve" smooth="yes"/>
      <point x="-513" y="1490"/>
      <point x="-540" y="1520"/>
      <point x="-563" y="1529" type="qcurve" smooth="yes" name="inserted"/>
      <point x="-586" y="1538"/>
      <point x="-646" y="1546"/>
      <point x="-679" y="1546" type="qcurve"/>
      <point x="-672" y="1652" type="line"/>
      <point x="-607" y="1652"/>
      <point x="-502" y="1631"/>
      <point x="-464" y="1611" type="qcurve" smooth="yes"/>
      <point x="-418" y="1587"/>
      <point x="-369" y="1512"/>
      <point x="-369" y="1464" type="qcurve" smooth="yes"/>
      <point x="-369" y="1426"/>
      <point x="-396" y="1372"/>
      <point x="-418" y="1354" type="qcurve" smooth="yes" name="inserted"/>
      <point x="-440" y="1336"/>
      <point x="-496" y="1316"/>
      <point x="-524" y="1312" type="qcurve"/>
      <point x="-525" y="1241" type="line"/>
    </contour>
  </outline>
</glyph>
<glyph name="uni030F" format="2">
  <advance width="1229"/>
  <unicode hex="030F"/>
  <outline>
    <contour>
      <point x="-544" y="1252" type="line"/>
      <point x="-713" y="1252" type="line"/>
      <point x="-1019" y="1518" type="line"/>
      <point x="-794" y="1518" type="line"/>
    </contour>
    <contour>
      <point x="-283" y="1252" type="line"/>
      <point x="-433" y="1252" type="line"/>
      <point x="-679" y="1518" type="line"/>
      <point x="-472" y="1518" type="line"/>
    </contour>
  </outline>
</glyph>
<glyph name="dotbelow" format="2">
  <advance width="1229"/>
  <unicode hex="0323"/>
  <outline>
    <contour>
      <point x="-729" y="-235" type="qcurve" smooth="yes"/>
      <point x="-729" y="-187"/>
      <point x="-671" y="-123"/>
      <point x="-614" y="-123" type="qcurve" smooth="yes"/>
      <point x="-557" y="-123"/>
      <point x="-499" y="-187"/>
      <point x="-499" y="-235" type="qcurve" smooth="yes"/>
      <point x="-499" y="-281"/>
      <point x="-557" y="-344"/>
      <point x="-614" y="-344" type="qcurve" smooth="yes"/>
      <point x="-671" y="-344"/>
      <point x="-729" y="-281"/>
    </contour>
  </outline>
</glyph>
<glyph name="dieresistonos" format="2">
  <advance width="1229"/>
  <unicode hex="0385"/>
  <outline>
    <contour>
      <point x="628" y="1727" type="line"/>
      <point x="833" y="1727" type="line"/>
      <point x="715" y="1463" type="line"/>
      <point x="580" y="1463" type="line"/>
    </contour>
    <contour>
      <point x="275" y="1360" type="qcurve" smooth="yes"/>
      <point x="275" y="1408"/>
      <point x="332" y="1472"/>
      <point x="389" y="1472" type="qcurve" smooth="yes"/>
      <point x="446" y="1472"/>
      <point x="504" y="1408"/>
      <point x="504" y="1360" type="qcurve" smooth="yes"/>
      <point x="504" y="1314"/>
      <point x="446" y="1250"/>
      <point x="389" y="1250" type="qcurve" smooth="yes"/>
      <point x="332" y="1250"/>
      <point x="275" y="1314"/>
    </contour>
    <contour>
      <point x="782" y="1360" type="qcurve" smooth="yes"/>
      <point x="782" y="1408"/>
      <point x="839" y="1472"/>
      <point x="896" y="1472" type="qcurve" smooth="yes"/>
      <point x="953" y="1472"/>
      <point x="1011" y="1408"/>
      <point x="1011" y="1360" type="qcurve" smooth="yes"/>
      <point x="1011" y="1314"/>
      <point x="953" y="1250"/>
      <point x="896" y="1250" type="qcurve" smooth="yes"/>
      <point x="839" y="1250"/>
      <point x="782" y="1314"/>
    </contour>
  </outline>
</glyph>
<glyph name="Gamma" format="2">
  <advance width="1229"/>
  <unicode hex="0393"/>
  <outline>
    <contour>
      <point x="1072" y="1304" type="line"/>
      <point x="367" y="1304" type="line"/>
      <point x="367" y="0" type="line"/>
      <point x="181" y="0" type="line"/>
      <point x="181" y="1456" type="line"/>
      <point x="1072" y="1456" type="line"/>
    </contour>
  </outline>
</glyph>
<glyph name="Delta" format="2">
  <advance width="1229"/>
  <unicode hex="0394"/>
  <unicode hex="2206"/>
  <outline>
    <contour>
      <point x="564" y="1456" type="line"/>
      <point x="724" y="1456" type="line"/>
      <point x="1204" y="0" type="line"/>
      <point x="46" y="0" type="line"/>
    </contour>
    <contour>
      <point x="286" y="151" type="line"/>
      <point x="967" y="151" type="line"/>
      <point x="668" y="1113" type="line"/>
      <point x="641" y="1203" type="line"/>
      <point x="611" y="1114" type="line"/>
    </contour>
  </outline>
</glyph>
<glyph name="Lambda" format="2">
  <advance width="1229"/>
  <unicode hex="039B"/>
  <outline>
    <contour>
      <point x="618" y="1180" type="line"/>
      <point x="243" y="0" type="line"/>
      <point x="54" y="0" type="line"/>
      <point x="538" y="1456" type="line"/>
      <point x="699" y="1456" type="line"/>
      <point x="1184" y="0" type="line"/>
      <point x="995" y="0" type="line"/>
    </contour>
  </outline>
</glyph>
<glyph name="Xi" format="2">
  <advance width="1229"/>
  <unicode hex="039E"/>
  <outline>
    <contour>
      <point x="145" y="151" type="line"/>
      <point x="1079" y="151" type="line"/>
      <point x="1079" y="0" type="line"/>
      <point x="145" y="0" type="line"/>
    </contour>
    <contour>
      <point x="230" y="830" type="line"/>
      <point x="984" y="830" type="line"/>
      <point x="984" y="678" type="line"/>
      <point x="230" y="678" type="line"/>
    </contour>
    <contour>
      <point x="147" y="1456" type="line"/>
      <point x="1065" y="1456" type="line"/>
      <point x="1065" y="1304" type="line"/>
      <point x="147" y="1304" type="line"/>
    </contour>
  </outline>
</glyph>
<glyph name="Omega" format="2">
  <advance width="1229"/>
  <unicode hex="03A9"/>
  <unicode hex="2126"/>
  <outline>
    <contour>
      <point x="680" y="193" type="line"/>
      <point x="757" y="210"/>
      <point x="868" y="329"/>
      <point x="901" y="427" type="qcurve" smooth="yes"/>
      <point x="922" y="493"/>
      <point x="944" y="660"/>
      <point x="944" y="759" type="qcurve" smooth="yes"/>
      <point x="944" y="840" type="line" smooth="yes"/>
      <point x="944" y="957"/>
      <point x="899" y="1138"/>
      <point x="857" y="1200" type="qcurve" smooth="yes" name="inserted"/>
      <point x="814" y="1261"/>
      <point x="690" y="1325"/>
      <point x="612" y="1325" type="qcurve" smooth="yes"/>
      <point x="535" y="1325"/>
      <point x="413" y="1261"/>
      <point x="371" y="1200" type="qcurve" smooth="yes" name="inserted"/>
      <point x="328" y="1138"/>
      <point x="282" y="957"/>
      <point x="282" y="840" type="qcurve" smooth="yes"/>
      <point x="282" y="759" type="line" smooth="yes"/>
      <point x="282" y="660"/>
      <point x="305" y="494"/>
      <point x="327" y="429" type="qcurve" smooth="yes"/>
      <point x="360" y="330"/>
      <point x="475" y="211"/>
      <point x="553" y="193" type="qcurve"/>
      <point x="553" y="0" type="line"/>
      <point x="101" y="0" type="line"/>
      <point x="101" y="151" type="line"/>
      <point x="363" y="151" type="line"/>
      <point x="301" y="198"/>
      <point x="202" y="333"/>
      <point x="168" y="414" type="qcurve" smooth="yes" name="inserted"/>
      <point x="133" y="494"/>
      <point x="97" y="670"/>
      <point x="97" y="759" type="qcurve" smooth="yes"/>
      <point x="97" y="838" type="line" smooth="yes"/>
      <point x="97" y="977"/>
      <point x="170" y="1212"/>
      <point x="238" y="1297" type="qcurve" smooth="yes" name="inserted"/>
      <point x="305" y="1381"/>
      <point x="495" y="1476"/>
      <point x="612" y="1476" type="qcurve" smooth="yes"/>
      <point x="729" y="1476"/>
      <point x="920" y="1381"/>
      <point x="988" y="1297" type="qcurve" smooth="yes" name="inserted"/>
      <point x="1055" y="1212"/>
      <point x="1129" y="977"/>
      <point x="1129" y="838" type="qcurve" smooth="yes"/>
      <point x="1129" y="759" type="line"/>
      <point x="1129" y="670"/>
      <point x="1093" y="493"/>
      <point x="1060" y="413" type="qcurve" smooth="yes" name="inserted"/>
      <point x="1026" y="333"/>
      <point x="928" y="198"/>
      <point x="866" y="151" type="qcurve"/>
      <point x="1132" y="151" type="line"/>
      <point x="1132" y="0" type="line"/>
      <point x="680" y="0" type="line"/>
    </contour>
  </outline>
</glyph>
<glyph name="delta" format="2">
  <advance width="1229"/>
  <unicode hex="03B4"/>
  <outline>
    <contour>
      <point x="263" y="1269" type="qcurve" smooth="yes"/>
      <point x="263" y="1338"/>
      <point x="317" y="1448"/>
      <point x="366.5" y="1486.0" type="qcurve" smooth="yes" name="inserted"/>
      <point x="416" y="1524"/>
      <point x="556" y="1564"/>
      <point x="642" y="1564" type="qcurve" smooth="yes"/>
      <point x="722" y="1564"/>
      <point x="881" y="1517"/>
      <point x="956" y="1479" type="qcurve"/>
      <point x="915" y="1349" type="line"/>
      <point x="892" y="1358"/>
      <point x="829" y="1380"/>
      <point x="793.0" y="1389.5" type="qcurve" smooth="yes" name="inserted"/>
      <point x="757" y="1399"/>
      <point x="679" y="1412"/>
      <point x="639" y="1412" type="qcurve" smooth="yes"/>
      <point x="597" y="1412"/>
      <point x="528" y="1392"/>
      <point x="503.0" y="1374.0" type="qcurve" smooth="yes" name="inserted"/>
      <point x="478" y="1356"/>
      <point x="450" y="1305"/>
      <point x="450" y="1274" type="qcurve" smooth="yes"/>
      <point x="450" y="1252"/>
      <point x="473" y="1205"/>
      <point x="500.0" y="1181.0" type="qcurve" smooth="yes" name="inserted"/>
      <point x="527" y="1157"/>
      <point x="616" y="1109"/>
      <point x="683" y="1086" type="qcurve" smooth="yes"/>
      <point x="903" y="1013"/>
      <point x="1126" y="737"/>
      <point x="1126" y="530" type="qcurve" smooth="yes"/>
      <point x="1126" y="509" type="line" smooth="yes"/>
      <point x="1126" y="396"/>
      <point x="1058" y="203"/>
      <point x="993.5" y="132.0" type="qcurve" smooth="yes" name="inserted"/>
      <point x="929" y="61"/>
      <point x="743" y="-20"/>
      <point x="625" y="-20" type="qcurve" smooth="yes"/>
      <point x="505" y="-20"/>
      <point x="318" y="61"/>
      <point x="253.0" y="132.0" type="qcurve" smooth="yes" name="inserted"/>
      <point x="188" y="203"/>
      <point x="120" y="396"/>
      <point x="120" y="509" type="qcurve" smooth="yes"/>
      <point x="120" y="530" type="line" smooth="yes"/>
      <point x="120" y="617"/>
      <point x="174" y="769"/>
      <point x="220.5" y="829.0" type="qcurve" smooth="yes" name="inserted"/>
      <point x="267" y="889"/>
      <point x="394" y="971"/>
      <point x="466" y="988" type="qcurve"/>
      <point x="470" y="999" type="line"/>
      <point x="423" y="1018"/>
      <point x="347" y="1072"/>
      <point x="320.0" y="1106.5" type="qcurve" smooth="yes" name="inserted"/>
      <point x="293" y="1141"/>
      <point x="263" y="1222"/>
    </contour>
    <contour>
      <point x="306" y="509" type="line" smooth="yes"/>
      <point x="306" y="432"/>
      <point x="344" y="294"/>
      <point x="383.5" y="242.5" type="qcurve" smooth="yes" name="inserted"/>
      <point x="423" y="191"/>
      <point x="543" y="130"/>
      <point x="625" y="130" type="qcurve" smooth="yes"/>
      <point x="706" y="130"/>
      <point x="824" y="191"/>
      <point x="863.0" y="242.5" type="qcurve" smooth="yes" name="inserted"/>
      <point x="902" y="294"/>
      <point x="940" y="432"/>
      <point x="940" y="509" type="qcurve" smooth="yes"/>
      <point x="940" y="530" type="line" smooth="yes"/>
      <point x="940" y="593"/>
      <point x="895" y="718"/>
      <point x="854.0" y="770.5" type="qcurve" smooth="yes" name="inserted"/>
      <point x="813" y="823"/>
      <point x="698" y="898"/>
      <point x="627" y="910" type="qcurve"/>
      <point x="546" y="911"/>
      <point x="426" y="850"/>
      <point x="386.0" y="797.5" type="qcurve" smooth="yes" name="inserted"/>
      <point x="346" y="745"/>
      <point x="306" y="606"/>
      <point x="306" y="530" type="qcurve" smooth="yes"/>
    </contour>
  </outline>
</glyph>
<glyph name="zeta" format="2">
  <advance width="1229"/>
  <unicode hex="03B6"/>
  <outline>
    <contour>
      <point x="1071" y="1456" type="line"/>
      <point x="1071" y="1336" type="line"/>
      <point x="662" y="909" type="line" smooth="yes"/>
      <point x="593" y="843"/>
      <point x="483" y="726"/>
      <point x="445" y="666" type="qcurve" smooth="yes" name="inserted"/>
      <point x="406" y="606"/>
      <point x="365" y="476"/>
      <point x="365" y="398" type="qcurve" smooth="yes"/>
      <point x="365" y="348"/>
      <point x="389" y="274"/>
      <point x="412" y="248" type="qcurve" smooth="yes"/>
      <point x="435" y="223"/>
      <point x="503" y="192"/>
      <point x="547" y="183" type="qcurve" smooth="yes"/>
      <point x="768" y="133" type="line" smooth="yes"/>
      <point x="822" y="121"/>
      <point x="918" y="95"/>
      <point x="953" y="72" type="qcurve" smooth="yes" name="inserted"/>
      <point x="988" y="49"/>
      <point x="1029" y="-26"/>
      <point x="1029" y="-88" type="qcurve"/>
      <point x="1028" y="-127"/>
      <point x="993" y="-213"/>
      <point x="967" y="-252" type="qcurve" smooth="yes" name="inserted"/>
      <point x="941" y="-292"/>
      <point x="878" y="-361"/>
      <point x="850" y="-383" type="qcurve"/>
      <point x="752" y="-299" type="line"/>
      <point x="773" y="-275"/>
      <point x="807" y="-233"/>
      <point x="819" y="-214" type="qcurve" smooth="yes"/>
      <point x="835" y="-189"/>
      <point x="851" y="-141"/>
      <point x="851" y="-116" type="qcurve" smooth="yes"/>
      <point x="851" y="-99"/>
      <point x="834" y="-68"/>
      <point x="816" y="-55" type="qcurve" smooth="yes"/>
      <point x="797" y="-41"/>
      <point x="737" y="-17"/>
      <point x="696" y="-9" type="qcurve" smooth="yes"/>
      <point x="515" y="26" type="line" smooth="yes"/>
      <point x="426" y="42"/>
      <point x="299" y="101"/>
      <point x="259" y="146" type="qcurve" smooth="yes" name="inserted"/>
      <point x="218" y="190"/>
      <point x="180" y="312"/>
      <point x="180" y="393" type="qcurve" smooth="yes"/>
      <point x="180" y="450"/>
      <point x="222" y="585"/>
      <point x="266" y="661" type="qcurve" smooth="yes" name="inserted"/>
      <point x="309" y="737"/>
      <point x="443" y="901"/>
      <point x="535" y="988" type="qcurve" smooth="yes"/>
      <point x="841" y="1304" type="line"/>
      <point x="117" y="1304" type="line"/>
      <point x="117" y="1456" type="line"/>
    </contour>
  </outline>
</glyph>
<glyph name="eta" format="2">
  <advance width="1229"/>
  <unicode hex="03B7"/>
  <outline>
    <contour>
      <point x="164" y="0" type="line"/>
      <point x="164" y="1082" type="line"/>
      <point x="331" y="1082" type="line"/>
      <point x="343" y="936" type="line"/>
      <point x="344" y="922" type="line"/>
      <point x="367" y="957"/>
      <point x="423" y="1015"/>
      <point x="456" y="1037" type="qcurve" smooth="yes"/>
      <point x="503" y="1068"/>
      <point x="616" y="1101"/>
      <point x="681" y="1102" type="qcurve" smooth="yes"/>
      <point x="771" y="1102"/>
      <point x="913" y="1058"/>
      <point x="963" y="1009" type="qcurve" smooth="yes" name="inserted"/>
      <point x="1013" y="959"/>
      <point x="1067" y="800"/>
      <point x="1067" y="685" type="qcurve" smooth="yes"/>
      <point x="1067" y="-415" type="line"/>
      <point x="881" y="-415" type="line"/>
      <point x="881" y="681" type="line" smooth="yes"/>
      <point x="881" y="754"/>
      <point x="848" y="858"/>
      <point x="815" y="890" type="qcurve" smooth="yes"/>
      <point x="784" y="921"/>
      <point x="689" y="950"/>
      <point x="626" y="950" type="qcurve" smooth="yes"/>
      <point x="574" y="950"/>
      <point x="488" y="929"/>
      <point x="453" y="910" type="qcurve" smooth="yes"/>
      <point x="421" y="891"/>
      <point x="369" y="840"/>
      <point x="350" y="808" type="qcurve"/>
      <point x="350" y="0" type="line"/>
    </contour>
  </outline>
</glyph>
<glyph name="theta" format="2">
  <advance width="1229"/>
  <unicode hex="03B8"/>
  <outline>
    <contour>
      <point x="618" y="-20" type="qcurve" smooth="yes"/>
      <point x="516" y="-20"/>
      <point x="355" y="57"/>
      <point x="299.5" y="130.5" type="qcurve" smooth="yes" name="inserted"/>
      <point x="244" y="204"/>
      <point x="185" y="419"/>
      <point x="185" y="557" type="qcurve" smooth="yes"/>
      <point x="185" y="898" type="line" smooth="yes"/>
      <point x="185" y="1036"/>
      <point x="243" y="1251"/>
      <point x="298.0" y="1325.5" type="qcurve" smooth="yes" name="inserted"/>
      <point x="353" y="1400"/>
      <point x="514" y="1477"/>
      <point x="616" y="1477" type="qcurve" smooth="yes"/>
      <point x="719" y="1477"/>
      <point x="880" y="1400"/>
      <point x="935.0" y="1325.5" type="qcurve" smooth="yes" name="inserted"/>
      <point x="990" y="1251"/>
      <point x="1048" y="1036"/>
      <point x="1048" y="898" type="qcurve" smooth="yes"/>
      <point x="1048" y="557" type="line" smooth="yes"/>
      <point x="1048" y="419"/>
      <point x="991" y="204"/>
      <point x="936.0" y="130.5" type="qcurve" smooth="yes" name="inserted"/>
      <point x="881" y="57"/>
      <point x="721" y="-20"/>
    </contour>
    <contour>
      <point x="618" y="130" type="qcurve" smooth="yes"/>
      <point x="679" y="130"/>
      <point x="769" y="177"/>
      <point x="799" y="223" type="qcurve" smooth="yes"/>
      <point x="832" y="272"/>
      <point x="863" y="421"/>
      <point x="863" y="518" type="qcurve" smooth="yes"/>
      <point x="863" y="659" type="line"/>
      <point x="370" y="659" type="line"/>
      <point x="370" y="518" type="line" smooth="yes"/>
      <point x="370" y="426"/>
      <point x="399" y="281"/>
      <point x="429" y="232" type="qcurve" smooth="yes"/>
      <point x="460" y="182"/>
      <point x="554" y="130"/>
    </contour>
    <contour>
      <point x="370" y="810" type="line"/>
      <point x="863" y="810" type="line"/>
      <point x="863" y="939" type="line" smooth="yes"/>
      <point x="863" y="1042"/>
      <point x="827" y="1197"/>
      <point x="790" y="1245" type="qcurve" smooth="yes"/>
      <point x="760" y="1284"/>
      <point x="673" y="1325"/>
      <point x="616" y="1325" type="qcurve" smooth="yes"/>
      <point x="559" y="1325"/>
      <point x="471" y="1284"/>
      <point x="441" y="1244" type="qcurve" smooth="yes"/>
      <point x="405" y="1195"/>
      <point x="370" y="1041"/>
      <point x="370" y="939" type="qcurve" smooth="yes"/>
    </contour>
  </outline>
</glyph>
<glyph name="iota" format="2">
  <advance width="1229"/>
  <unicode hex="03B9"/>
  <outline>
    <contour>
      <point x="184" y="1082" type="line"/>
      <point x="721" y="1082" type="line"/>
      <point x="722" y="322" type="line" smooth="yes"/>
      <point x="722" y="257"/>
      <point x="749" y="182"/>
      <point x="773" y="164" type="qcurve" smooth="yes" name="inserted"/>
      <point x="796" y="145"/>
      <point x="856" y="135"/>
      <point x="889" y="135" type="qcurve" smooth="yes"/>
      <point x="934" y="135"/>
      <point x="1012" y="163"/>
      <point x="1041" y="180" type="qcurve"/>
      <point x="1082" y="50" type="line"/>
      <point x="1057" y="32"/>
      <point x="1009" y="8"/>
      <point x="986" y="0" type="qcurve" smooth="yes"/>
      <point x="951" y="-12"/>
      <point x="879" y="-20"/>
      <point x="842" y="-20" type="qcurve" smooth="yes"/>
      <point x="770" y="-20"/>
      <point x="657" y="14"/>
      <point x="618" y="55" type="qcurve" smooth="yes" name="inserted"/>
      <point x="578" y="96"/>
      <point x="536" y="231"/>
      <point x="536" y="332" type="qcurve" smooth="yes"/>
      <point x="536" y="921" type="line"/>
      <point x="184" y="921" type="line"/>
    </contour>
  </outline>
</glyph>
<glyph name="lambda" format="2">
  <advance width="1229"/>
  <unicode hex="03BB"/>
  <outline>
    <contour>
      <point x="263" y="0" type="line"/>
      <point x="57" y="0" type="line"/>
      <point x="452" y="1032" type="line"/>
      <point x="397" y="1175" type="line" smooth="yes"/>
      <point x="383" y="1210"/>
      <point x="349" y="1279"/>
      <point x="327" y="1306" type="qcurve" smooth="yes" name="inserted"/>
      <point x="305" y="1333"/>
      <point x="250" y="1366"/>
      <point x="216" y="1366" type="qcurve" smooth="yes"/>
      <point x="203" y="1366"/>
      <point x="163" y="1362"/>
      <point x="150" y="1361" type="qcurve"/>
      <point x="149" y="1503" type="line"/>
      <point x="167" y="1508"/>
      <point x="227" y="1518"/>
      <point x="252" y="1518" type="qcurve" smooth="yes"/>
      <point x="324" y="1518"/>
      <point x="430" y="1464"/>
      <point x="468" y="1424" type="qcurve" smooth="yes" name="inserted"/>
      <point x="505" y="1383"/>
      <point x="554" y="1288"/>
      <point x="569" y="1248" type="qcurve" smooth="yes"/>
      <point x="931" y="298" type="line"/>
      <point x="942" y="263"/>
      <point x="970" y="209"/>
      <point x="987" y="189" type="qcurve" smooth="yes" name="inserted"/>
      <point x="1004" y="168"/>
      <point x="1046" y="144"/>
      <point x="1070" y="144" type="qcurve" smooth="yes"/>
      <point x="1087" y="144"/>
      <point x="1104" y="146"/>
      <point x="1116" y="149" type="qcurve"/>
      <point x="1114" y="-2" type="line"/>
      <point x="1103" y="-8"/>
      <point x="1067" y="-17"/>
      <point x="1055" y="-17" type="qcurve" smooth="yes"/>
      <point x="996" y="-17"/>
      <point x="904" y="17"/>
      <point x="868" y="51" type="qcurve" smooth="yes" name="inserted"/>
      <point x="831" y="84"/>
      <point x="774" y="184"/>
      <point x="750" y="250" type="qcurve"/>
      <point x="583" y="687" type="line"/>
      <point x="538" y="805" type="line"/>
      <point x="509" y="686" type="line"/>
    </contour>
  </outline>
</glyph>
<glyph name="sigma1" format="2">
  <advance width="1229"/>
  <unicode hex="03C2"/>
  <outline>
    <contour>
      <point x="614" y="1102" type="qcurve" smooth="yes"/>
      <point x="714" y="1102"/>
      <point x="882" y="1049"/>
      <point x="943" y="999" type="qcurve" smooth="yes" name="inserted"/>
      <point x="1003" y="948"/>
      <point x="1072" y="802"/>
      <point x="1072" y="709" type="qcurve"/>
      <point x="897" y="709" type="line"/>
      <point x="897" y="759"/>
      <point x="861" y="847"/>
      <point x="826" y="880" type="qcurve" smooth="yes" name="inserted"/>
      <point x="791" y="912"/>
      <point x="685" y="950"/>
      <point x="614" y="950" type="qcurve" smooth="yes"/>
      <point x="533" y="950"/>
      <point x="416" y="881"/>
      <point x="379" y="826" type="qcurve" smooth="yes" name="inserted"/>
      <point x="341" y="770"/>
      <point x="306" y="632"/>
      <point x="306" y="562" type="qcurve" smooth="yes"/>
      <point x="306" y="520" type="line" smooth="yes"/>
      <point x="306" y="452"/>
      <point x="349" y="329"/>
      <point x="394" y="280" type="qcurve" smooth="yes" name="inserted"/>
      <point x="438" y="231"/>
      <point x="574" y="162"/>
      <point x="666" y="149" type="qcurve" smooth="yes"/>
      <point x="752" y="137"/>
      <point x="890" y="104"/>
      <point x="939" y="76" type="qcurve" smooth="yes" name="inserted"/>
      <point x="988" y="48"/>
      <point x="1040" y="-39"/>
      <point x="1040" y="-105" type="qcurve"/>
      <point x="1039" y="-164"/>
      <point x="993" y="-263"/>
      <point x="957" y="-303" type="qcurve" smooth="yes" name="inserted"/>
      <point x="920" y="-343"/>
      <point x="830" y="-403"/>
      <point x="785" y="-423" type="qcurve"/>
      <point x="708" y="-300" type="line"/>
      <point x="730" y="-290"/>
      <point x="784" y="-259"/>
      <point x="808" y="-236" type="qcurve" smooth="yes" name="inserted"/>
      <point x="831" y="-214"/>
      <point x="863" y="-154"/>
      <point x="863" y="-114" type="qcurve" smooth="yes"/>
      <point x="864" y="-88"/>
      <point x="835" y="-51"/>
      <point x="808" y="-38" type="qcurve" smooth="yes"/>
      <point x="780" y="-25"/>
      <point x="698" y="-7"/>
      <point x="644" y="0" type="qcurve" smooth="yes"/>
      <point x="514" y="19"/>
      <point x="318" y="107"/>
      <point x="253" y="174" type="qcurve" smooth="yes" name="inserted"/>
      <point x="187" y="240"/>
      <point x="120" y="415"/>
      <point x="120" y="520" type="qcurve" smooth="yes"/>
      <point x="120" y="562" type="line" smooth="yes"/>
      <point x="120" y="670"/>
      <point x="186" y="865"/>
      <point x="249" y="940" type="qcurve" smooth="yes" name="inserted"/>
      <point x="312" y="1014"/>
      <point x="495" y="1102"/>
    </contour>
  </outline>
</glyph>
<glyph name="upsilon" format="2">
  <advance width="1229"/>
  <unicode hex="03C5"/>
  <outline>
    <contour>
      <point x="343" y="1082" type="line"/>
      <point x="343" y="463" type="line" smooth="yes"/>
      <point x="343" y="374"/>
      <point x="381" y="248"/>
      <point x="416.0" y="207.5" type="qcurve" smooth="yes" name="inserted"/>
      <point x="451" y="167"/>
      <point x="550" y="130"/>
      <point x="610" y="130" type="qcurve" smooth="yes"/>
      <point x="687" y="130"/>
      <point x="797" y="207"/>
      <point x="832.5" y="268.5" type="qcurve" smooth="yes" name="inserted"/>
      <point x="868" y="330"/>
      <point x="902" y="484"/>
      <point x="902" y="562" type="qcurve" smooth="yes"/>
      <point x="899" y="696"/>
      <point x="830" y="957"/>
      <point x="778" y="1082" type="qcurve"/>
      <point x="973" y="1082" type="line"/>
      <point x="996" y="1034"/>
      <point x="1037" y="921"/>
      <point x="1053.0" y="856.0" type="qcurve" smooth="yes" name="inserted"/>
      <point x="1069" y="791"/>
      <point x="1087" y="644"/>
      <point x="1087" y="562" type="qcurve" smooth="yes"/>
      <point x="1087" y="448"/>
      <point x="1035" y="237"/>
      <point x="979.0" y="156.5" type="qcurve" smooth="yes" name="inserted"/>
      <point x="923" y="76"/>
      <point x="745" y="-20"/>
      <point x="619" y="-20" type="qcurve" smooth="yes"/>
      <point x="509" y="-20"/>
      <point x="338" y="38"/>
      <point x="279.0" y="97.5" type="qcurve" smooth="yes" name="inserted"/>
      <point x="220" y="157"/>
      <point x="158" y="340"/>
      <point x="158" y="465" type="qcurve" smooth="yes"/>
      <point x="158" y="1082" type="line"/>
    </contour>
  </outline>
</glyph>
<glyph name="omega" format="2">
  <advance width="1229"/>
  <unicode hex="03C9"/>
  <outline>
    <contour>
      <point x="369" y="1082" type="line"/>
      <point x="324" y="956"/>
      <point x="266" y="695"/>
      <point x="264" y="560" type="qcurve"/>
      <point x="264" y="476"/>
      <point x="276" y="321"/>
      <point x="291" y="261" type="qcurve" smooth="yes" name="inserted"/>
      <point x="305" y="201"/>
      <point x="351" y="130"/>
      <point x="385" y="130" type="qcurve" smooth="yes"/>
      <point x="411" y="130"/>
      <point x="456" y="156"/>
      <point x="473" y="182" type="qcurve" smooth="yes"/>
      <point x="490" y="207"/>
      <point x="514" y="284"/>
      <point x="520" y="336" type="qcurve" smooth="yes"/>
      <point x="523" y="365"/>
      <point x="527" y="433"/>
      <point x="527" y="471" type="qcurve" smooth="yes"/>
      <point x="527" y="770" type="line"/>
      <point x="713" y="770" type="line"/>
      <point x="713" y="471" type="line" smooth="yes"/>
      <point x="713" y="434"/>
      <point x="716" y="369"/>
      <point x="720" y="340" type="qcurve" smooth="yes"/>
      <point x="726" y="288"/>
      <point x="749" y="210"/>
      <point x="765" y="184" type="qcurve" smooth="yes"/>
      <point x="782" y="157"/>
      <point x="827" y="130"/>
      <point x="854" y="130" type="qcurve" smooth="yes"/>
      <point x="875" y="130"/>
      <point x="909" y="158"/>
      <point x="922" y="183" type="qcurve" smooth="yes"/>
      <point x="937.9149323336435" y="214.8298646672868"/>
      <point x="960.9677567680541" y="305.7098109124869"/>
      <point x="967" y="360" type="qcurve" smooth="yes"/>
      <point x="972" y="405"/>
      <point x="976" y="507"/>
      <point x="976" y="560" type="qcurve" smooth="yes"/>
      <point x="974" y="695"/>
      <point x="916" y="956"/>
      <point x="871" y="1082" type="qcurve"/>
      <point x="1065" y="1082" type="line"/>
      <point x="1086" y="1031"/>
      <point x="1122" y="911"/>
      <point x="1135" y="843" type="qcurve" smooth="yes"/>
      <point x="1147" y="781"/>
      <point x="1161" y="639"/>
      <point x="1161" y="560" type="qcurve" smooth="yes"/>
      <point x="1161" y="502"/>
      <point x="1153" y="387"/>
      <point x="1144" y="334" type="qcurve" smooth="yes"/>
      <point x="1132.252905039951" y="253.44849170252087"/>
      <point x="1081.5933767793942" y="116.49172097424264"/>
      <point x="1042" y="67" type="qcurve" smooth="yes"/>
      <point x="1009" y="26"/>
      <point x="920" y="-20"/>
      <point x="864" y="-20" type="qcurve" smooth="yes"/>
      <point x="806" y="-20"/>
      <point x="715" y="25"/>
      <point x="681" y="68" type="qcurve" smooth="yes"/>
      <point x="662" y="92"/>
      <point x="632" y="154"/>
      <point x="620" y="191" type="qcurve"/>
      <point x="608" y="154"/>
      <point x="577" y="92"/>
      <point x="558" y="68" type="qcurve" smooth="yes"/>
      <point x="525" y="25"/>
      <point x="433" y="-20"/>
      <point x="376" y="-20" type="qcurve" smooth="yes"/>
      <point x="293" y="-20"/>
      <point x="179" y="78"/>
      <point x="144" y="159" type="qcurve" smooth="yes" name="inserted"/>
      <point x="109" y="240"/>
      <point x="79" y="449"/>
      <point x="79" y="560" type="qcurve" smooth="yes"/>
      <point x="79" y="632"/>
      <point x="90" y="763"/>
      <point x="101" y="821" type="qcurve" smooth="yes"/>
      <point x="114" y="897"/>
      <point x="152" y="1027"/>
      <point x="175" y="1082" type="qcurve"/>
    </contour>
  </outline>
</glyph>
<glyph name="uni03D1" format="2">
  <advance width="1229"/>
  <unicode hex="03D1"/>
  <outline>
    <contour>
      <point x="1177" y="627" type="line"/>
      <point x="1144" y="615" name="inserted"/>
      <point x="1072" y="599"/>
      <point x="1033" y="595" type="qcurve"/>
      <point x="1033" y="435" type="line"/>
      <point x="1033" y="326"/>
      <point x="971" y="156"/>
      <point x="915" y="98" type="qcurve" smooth="yes" name="inserted"/>
      <point x="859" y="40"/>
      <point x="700" y="-20"/>
      <point x="602" y="-20" type="qcurve" smooth="yes"/>
      <point x="500" y="-20"/>
      <point x="334" y="45"/>
      <point x="276" y="105" type="qcurve" smooth="yes" name="inserted"/>
      <point x="217" y="164"/>
      <point x="152" y="332"/>
      <point x="152" y="435" type="qcurve" smooth="yes"/>
      <point x="152" y="769" type="line"/>
      <point x="338" y="771" type="line"/>
      <point x="338" y="435" type="line" smooth="yes"/>
      <point x="338" y="366"/>
      <point x="374" y="255"/>
      <point x="408" y="217" type="qcurve" smooth="yes" name="inserted"/>
      <point x="442" y="178"/>
      <point x="540" y="137"/>
      <point x="602" y="137" type="qcurve" smooth="yes"/>
      <point x="662" y="136"/>
      <point x="756" y="175"/>
      <point x="787" y="213" type="qcurve" smooth="yes"/>
      <point x="817" y="250"/>
      <point x="848" y="362"/>
      <point x="848" y="435" type="qcurve" smooth="yes"/>
      <point x="848" y="601" type="line"/>
      <point x="738" y="617"/>
      <point x="559" y="707"/>
      <point x="496" y="775" type="qcurve" smooth="yes" name="inserted"/>
      <point x="432" y="842"/>
      <point x="362" y="1016"/>
      <point x="362" y="1116" type="qcurve" smooth="yes"/>
      <point x="362" y="1131" type="line" smooth="yes"/>
      <point x="362" y="1212"/>
      <point x="412" y="1341"/>
      <point x="456" y="1386" type="qcurve" smooth="yes" name="inserted"/>
      <point x="500" y="1431"/>
      <point x="622" y="1478"/>
      <point x="696" y="1478" type="qcurve" smooth="yes"/>
      <point x="775" y="1478"/>
      <point x="901" y="1427"/>
      <point x="944" y="1379" type="qcurve" smooth="yes" name="inserted"/>
      <point x="987" y="1331"/>
      <point x="1033" y="1193"/>
      <point x="1033" y="1105" type="qcurve" smooth="yes"/>
      <point x="1033" y="752" type="line"/>
      <point x="1068" y="755"/>
      <point x="1136" y="768"/>
      <point x="1168" y="776" type="qcurve"/>
    </contour>
    <contour>
      <point x="548" y="1114" type="line" smooth="yes"/>
      <point x="548" y="1051"/>
      <point x="588" y="937"/>
      <point x="627" y="891" type="qcurve" smooth="yes" name="inserted"/>
      <point x="665" y="845"/>
      <point x="777" y="779"/>
      <point x="848" y="763" type="qcurve"/>
      <point x="848" y="1105" type="line" smooth="yes"/>
      <point x="848" y="1160"/>
      <point x="829" y="1242"/>
      <point x="810" y="1269" type="qcurve" smooth="yes"/>
      <point x="792" y="1294"/>
      <point x="735" y="1320"/>
      <point x="696" y="1320" type="qcurve" smooth="yes"/>
      <point x="662" y="1320"/>
      <point x="607" y="1298"/>
      <point x="588" y="1275" type="qcurve" smooth="yes"/>
      <point x="569" y="1252"/>
      <point x="548" y="1181"/>
      <point x="548" y="1131" type="qcurve" smooth="yes"/>
    </contour>
  </outline>
</glyph>
<glyph name="uni03D2" format="2">
  <advance width="1229"/>
  <unicode hex="03D2"/>
  <outline>
    <contour>
      <point x="825" y="1239" type="line" smooth="yes"/>
      <point x="851" y="1302"/>
      <point x="907" y="1390"/>
      <point x="939" y="1417" type="qcurve" smooth="yes" name="inserted"/>
      <point x="970" y="1444"/>
      <point x="1040" y="1467"/>
      <point x="1080" y="1467" type="qcurve" smooth="yes"/>
      <point x="1108" y="1467"/>
      <point x="1161" y="1460"/>
      <point x="1188" y="1443" type="qcurve"/>
      <point x="1166" y="1294" type="line"/>
      <point x="1159" y="1299" name="inserted"/>
      <point x="1137" y="1303"/>
      <point x="1122" y="1303" type="qcurve" smooth="yes"/>
      <point x="1099" y="1303"/>
      <point x="1058" y="1287"/>
      <point x="1041" y="1271" type="qcurve" smooth="yes"/>
      <point x="1032" y="1262"/>
      <point x="1016" y="1239"/>
      <point x="1010" y="1225" type="qcurve" smooth="yes"/>
      <point x="714" y="580" type="line"/>
      <point x="714" y="0" type="line"/>
      <point x="530" y="0" type="line"/>
      <point x="530" y="576" type="line"/>
      <point x="232" y="1225" type="line" smooth="yes"/>
      <point x="224" y="1243"/>
      <point x="202" y="1271"/>
      <point x="189" y="1281" type="qcurve" smooth="yes"/>
      <point x="174" y="1292"/>
      <point x="139" y="1303"/>
      <point x="120" y="1303" type="qcurve" smooth="yes"/>
      <point x="106" y="1303" name="inserted"/>
      <point x="84" y="1299"/>
      <point x="77" y="1294" type="qcurve"/>
      <point x="54" y="1443" type="line"/>
      <point x="81" y="1460"/>
      <point x="134" y="1467"/>
      <point x="163" y="1467" type="qcurve" smooth="yes"/>
      <point x="202" y="1467"/>
      <point x="272" y="1444"/>
      <point x="304" y="1417" type="qcurve" smooth="yes" name="inserted"/>
      <point x="335" y="1390"/>
      <point x="392" y="1302"/>
      <point x="418" y="1239" type="qcurve" smooth="yes"/>
      <point x="597" y="832" type="line"/>
      <point x="621" y="744" type="line"/>
      <point x="645" y="832" type="line"/>
    </contour>
  </outline>
</glyph>
<glyph name="uni03D6" format="2">
  <advance width="1229"/>
  <unicode hex="03D6"/>
  <outline>
    <contour>
      <point x="1174" y="929" type="line"/>
      <point x="1048" y="929" type="line"/>
      <point x="1064" y="874"/>
      <point x="1092" y="754"/>
      <point x="1102" y="690" type="qcurve" smooth="yes"/>
      <point x="1112" y="630"/>
      <point x="1122" y="500"/>
      <point x="1122" y="432" type="qcurve" smooth="yes"/>
      <point x="1122" y="389"/>
      <point x="1115" y="305"/>
      <point x="1108" y="266" type="qcurve" smooth="yes"/>
      <point x="1101" y="225"/>
      <point x="1077" y="150"/>
      <point x="1061" y="118" type="qcurve" smooth="yes" name="inserted"/>
      <point x="1028" y="55"/>
      <point x="921" y="-20"/>
      <point x="843" y="-20" type="qcurve" smooth="yes"/>
      <point x="788" y="-20"/>
      <point x="699" y="21"/>
      <point x="666" y="61" type="qcurve" smooth="yes"/>
      <point x="645" y="86"/>
      <point x="611" y="152"/>
      <point x="599" y="192" type="qcurve"/>
      <point x="587" y="154"/>
      <point x="556" y="91"/>
      <point x="537" y="67" type="qcurve" smooth="yes"/>
      <point x="503" y="24"/>
      <point x="413" y="-20"/>
      <point x="356" y="-20" type="qcurve" smooth="yes"/>
      <point x="304" y="-20"/>
      <point x="221" y="15"/>
      <point x="190" y="46" type="qcurve" smooth="yes"/>
      <point x="146" y="90"/>
      <point x="93" y="228"/>
      <point x="84" y="310" type="qcurve" smooth="yes"/>
      <point x="80" y="340"/>
      <point x="77" y="401"/>
      <point x="77" y="432" type="qcurve" smooth="yes"/>
      <point x="77" y="572"/>
      <point x="118" y="823"/>
      <point x="151" y="929" type="qcurve"/>
      <point x="46" y="929" type="line"/>
      <point x="46" y="1082" type="line"/>
      <point x="1174" y="1082" type="line"/>
    </contour>
    <contour>
      <point x="936" y="431" type="qcurve" smooth="yes"/>
      <point x="934" y="555"/>
      <point x="887" y="808"/>
      <point x="849" y="929" type="qcurve"/>
      <point x="350" y="929" type="line"/>
      <point x="312" y="808"/>
      <point x="265" y="555"/>
      <point x="263" y="431" type="qcurve"/>
      <point x="263" y="404"/>
      <point x="265" y="350"/>
      <point x="267" y="326" type="qcurve" smooth="yes"/>
      <point x="273" y="272"/>
      <point x="294" y="184"/>
      <point x="313" y="160" type="qcurve" smooth="yes"/>
      <point x="323" y="146"/>
      <point x="350" y="130"/>
      <point x="366" y="130" type="qcurve" smooth="yes"/>
      <point x="395" y="130"/>
      <point x="443" y="161"/>
      <point x="460" y="192" type="qcurve" smooth="yes"/>
      <point x="473" y="215"/>
      <point x="492" y="280"/>
      <point x="498" y="321" type="qcurve" smooth="yes"/>
      <point x="502" y="353"/>
      <point x="507" y="428"/>
      <point x="507" y="471" type="qcurve" smooth="yes"/>
      <point x="507" y="722" type="line"/>
      <point x="693" y="722" type="line"/>
      <point x="693" y="471" type="line" smooth="yes"/>
      <point x="693" y="429"/>
      <point x="697" y="355"/>
      <point x="702" y="324" type="qcurve" smooth="yes"/>
      <point x="708" y="276"/>
      <point x="731" y="203"/>
      <point x="747" y="179" type="qcurve" smooth="yes"/>
      <point x="764" y="154"/>
      <point x="808" y="130"/>
      <point x="834" y="130" type="qcurve" smooth="yes"/>
      <point x="863" y="130"/>
      <point x="902" y="179"/>
      <point x="914" y="220" type="qcurve" smooth="yes" name="inserted"/>
      <point x="919" y="238"/>
      <point x="927" y="279"/>
      <point x="930" y="302" type="qcurve" smooth="yes"/>
      <point x="933" y="331"/>
      <point x="936" y="397"/>
    </contour>
  </outline>
</glyph>
<glyph name="uni0404" format="2">
  <advance width="1229"/>
  <unicode hex="0404"/>
  <outline>
    <contour>
      <point x="1131" y="439" type="line"/>
      <point x="1121" y="338"/>
      <point x="1049" y="169"/>
      <point x="986.5" y="108.0" type="qcurve" smooth="yes" name="inserted"/>
      <point x="924" y="47"/>
      <point x="748" y="-20"/>
      <point x="634" y="-20" type="qcurve" smooth="yes"/>
      <point x="517" y="-20"/>
      <point x="330" y="67"/>
      <point x="264.5" y="145.5" type="qcurve" smooth="yes" name="inserted"/>
      <point x="199" y="224"/>
      <point x="129" y="441"/>
      <point x="129" y="572" type="qcurve" smooth="yes"/>
      <point x="129" y="885" type="line" smooth="yes"/>
      <point x="129" y="1016"/>
      <point x="199" y="1234"/>
      <point x="264.5" y="1312.0" type="qcurve" smooth="yes" name="inserted"/>
      <point x="330" y="1390"/>
      <point x="517" y="1477"/>
      <point x="634" y="1477" type="qcurve" smooth="yes"/>
      <point x="748" y="1477"/>
      <point x="924" y="1414"/>
      <point x="986.5" y="1354.0" type="qcurve" smooth="yes" name="inserted"/>
      <point x="1049" y="1294"/>
      <point x="1121" y="1121"/>
      <point x="1131" y="1011" type="qcurve"/>
      <point x="946" y="1011" type="line"/>
      <point x="936" y="1086"/>
      <point x="892" y="1204"/>
      <point x="855.0" y="1244.0" type="qcurve" smooth="yes" name="inserted"/>
      <point x="818" y="1284"/>
      <point x="709" y="1326"/>
      <point x="634" y="1326" type="qcurve" smooth="yes"/>
      <point x="555" y="1326"/>
      <point x="436" y="1259"/>
      <point x="395.5" y="1200.5" type="qcurve" smooth="yes" name="inserted"/>
      <point x="355" y="1142"/>
      <point x="314" y="981"/>
      <point x="314" y="887" type="qcurve" smooth="yes"/>
      <point x="314" y="812" type="line"/>
      <point x="885" y="812" type="line"/>
      <point x="885" y="660" type="line"/>
      <point x="314" y="660" type="line"/>
      <point x="314" y="572" type="line" smooth="yes"/>
      <point x="314" y="477"/>
      <point x="355" y="316"/>
      <point x="395.5" y="257.0" type="qcurve" smooth="yes" name="inserted"/>
      <point x="436" y="198"/>
      <point x="555" y="131"/>
      <point x="634" y="131" type="qcurve" smooth="yes"/>
      <point x="709" y="131"/>
      <point x="818" y="170"/>
      <point x="855.5" y="208.5" type="qcurve" smooth="yes" name="inserted"/>
      <point x="893" y="247"/>
      <point x="936" y="362"/>
      <point x="946" y="439" type="qcurve"/>
    </contour>
  </outline>
</glyph>
<glyph name="uni0409" format="2">
  <advance width="1229"/>
  <unicode hex="0409"/>
  <outline>
    <contour>
      <point x="747" y="1456" type="line"/>
      <point x="747" y="887" type="line"/>
      <point x="838" y="887" type="line" smooth="yes"/>
      <point x="922" y="887"/>
      <point x="1051" y="818"/>
      <point x="1094" y="759" type="qcurve" smooth="yes" name="inserted"/>
      <point x="1137" y="699"/>
      <point x="1181" y="537"/>
      <point x="1181" y="443" type="qcurve" smooth="yes"/>
      <point x="1181" y="349"/>
      <point x="1137" y="187"/>
      <point x="1094" y="128" type="qcurve" smooth="yes" name="inserted"/>
      <point x="1051" y="68"/>
      <point x="922" y="0"/>
      <point x="838" y="0" type="qcurve" smooth="yes"/>
      <point x="562" y="0" type="line"/>
      <point x="562" y="1304" type="line"/>
      <point x="365" y="1304" type="line"/>
      <point x="364" y="772" type="line" smooth="yes"/>
      <point x="364" y="705"/>
      <point x="360" y="580"/>
      <point x="356" y="524" type="qcurve" smooth="yes"/>
      <point x="351" y="455"/>
      <point x="334" y="334"/>
      <point x="321" y="282" type="qcurve" smooth="yes"/>
      <point x="306.74662223833917" y="222.1358134010244"/>
      <point x="267.18583485829106" y="123.8875509930826"/>
      <point x="241" y="90" type="qcurve" smooth="yes"/>
      <point x="207" y="46"/>
      <point x="118" y="0"/>
      <point x="62" y="0" type="qcurve" smooth="yes"/>
      <point x="30" y="0" type="line"/>
      <point x="30" y="151" type="line"/>
      <point x="52" y="151" type="line" smooth="yes"/>
      <point x="72" y="151"/>
      <point x="106" y="177"/>
      <point x="119" y="202" type="qcurve" smooth="yes"/>
      <point x="130" y="222"/>
      <point x="147" y="281"/>
      <point x="154" y="319" type="qcurve" smooth="yes"/>
      <point x="161" y="360"/>
      <point x="171" y="464"/>
      <point x="174" y="525" type="qcurve" smooth="yes"/>
      <point x="177" y="579"/>
      <point x="180" y="703"/>
      <point x="180" y="772" type="qcurve" smooth="yes"/>
      <point x="183" y="1456" type="line"/>
    </contour>
    <contour>
      <point x="747" y="735" type="line"/>
      <point x="747" y="151" type="line"/>
      <point x="838" y="151" type="line" smooth="yes"/>
      <point x="882" y="151"/>
      <point x="943" y="202"/>
      <point x="961.5" y="243.5" type="qcurve" smooth="yes" name="inserted"/>
      <point x="980" y="285"/>
      <point x="997" y="390"/>
      <point x="997" y="445" type="qcurve" smooth="yes"/>
      <point x="997" y="499"/>
      <point x="980" y="603"/>
      <point x="961.0" y="644.0" type="qcurve" smooth="yes" name="inserted"/>
      <point x="942" y="685"/>
      <point x="881" y="735"/>
      <point x="838" y="735" type="qcurve" smooth="yes"/>
    </contour>
  </outline>
</glyph>
<glyph name="uni040A" format="2">
  <advance width="1229"/>
  <unicode hex="040A"/>
  <outline>
    <contour>
      <point x="131" y="0" type="line"/>
      <point x="131" y="1456" type="line"/>
      <point x="315" y="1456" type="line"/>
      <point x="315" y="825" type="line"/>
      <point x="565" y="825" type="line"/>
      <point x="565" y="1456" type="line"/>
      <point x="749" y="1456" type="line"/>
      <point x="749" y="839" type="line"/>
      <point x="798" y="839" type="line" smooth="yes"/>
      <point x="889" y="839"/>
      <point x="1026" y="777"/>
      <point x="1071.5" y="721.5" type="qcurve" smooth="yes" name="inserted"/>
      <point x="1117" y="666"/>
      <point x="1163" y="514"/>
      <point x="1163" y="424" type="qcurve" smooth="yes"/>
      <point x="1163" y="334"/>
      <point x="1117" y="179"/>
      <point x="1071.5" y="122.0" type="qcurve" smooth="yes" name="inserted"/>
      <point x="1026" y="65"/>
      <point x="889" y="0"/>
      <point x="798" y="0" type="qcurve" smooth="yes"/>
      <point x="565" y="0" type="line"/>
      <point x="565" y="673" type="line"/>
      <point x="315" y="673" type="line"/>
      <point x="315" y="0" type="line"/>
    </contour>
    <contour>
      <point x="749" y="687" type="line"/>
      <point x="749" y="161" type="line"/>
      <point x="798" y="161" type="line" smooth="yes"/>
      <point x="849" y="161"/>
      <point x="918" y="206"/>
      <point x="939.5" y="243.0" type="qcurve" smooth="yes" name="inserted"/>
      <point x="961" y="280"/>
      <point x="979" y="375"/>
      <point x="979" y="426" type="qcurve" smooth="yes"/>
      <point x="979" y="477"/>
      <point x="960" y="571"/>
      <point x="939.0" y="607.0" type="qcurve" smooth="yes" name="inserted"/>
      <point x="918" y="643"/>
      <point x="849" y="687"/>
      <point x="798" y="687" type="qcurve" smooth="yes"/>
    </contour>
  </outline>
</glyph>
<glyph name="uni0414" format="2">
  <advance width="1229"/>
  <unicode hex="0414"/>
  <outline>
    <contour>
      <point x="1126" y="-357" type="line"/>
      <point x="959" y="-357" type="line"/>
      <point x="959" y="0" type="line"/>
      <point x="254" y="0" type="line"/>
      <point x="254" y="-359" type="line"/>
      <point x="97" y="-359" type="line"/>
      <point x="70" y="151" type="line"/>
      <point x="135" y="151" type="line"/>
      <point x="181" y="181"/>
      <point x="251" y="294"/>
      <point x="276" y="382" type="qcurve" smooth="yes" name="inserted"/>
      <point x="289" y="428"/>
      <point x="310" y="541"/>
      <point x="318" y="607" type="qcurve" smooth="yes"/>
      <point x="325" y="664"/>
      <point x="334" y="796"/>
      <point x="336" y="871" type="qcurve" smooth="yes"/>
      <point x="368" y="1456" type="line"/>
      <point x="1017" y="1456" type="line"/>
      <point x="1017" y="151" type="line"/>
      <point x="1144" y="151" type="line"/>
    </contour>
    <contour>
      <point x="523" y="871" type="line" smooth="yes"/>
      <point x="521" y="819"/>
      <point x="515" y="719"/>
      <point x="511" y="673" type="qcurve" smooth="yes"/>
      <point x="504" y="593"/>
      <point x="483" y="448"/>
      <point x="468" y="386" type="qcurve" smooth="yes"/>
      <point x="452" y="316"/>
      <point x="410" y="198"/>
      <point x="384" y="151" type="qcurve"/>
      <point x="832" y="151" type="line"/>
      <point x="832" y="1304" type="line"/>
      <point x="545" y="1304" type="line"/>
    </contour>
  </outline>
</glyph>
<glyph name="uni0416" format="2">
  <advance width="1229"/>
  <unicode hex="0416"/>
  <outline>
    <contour>
      <point x="763" y="651" type="line"/>
      <point x="709" y="651" type="line"/>
      <point x="709" y="0" type="line"/>
      <point x="526" y="0" type="line"/>
      <point x="526" y="651" type="line"/>
      <point x="464" y="651" type="line"/>
      <point x="259" y="0" type="line"/>
      <point x="29" y="0" type="line"/>
      <point x="298" y="727" type="line"/>
      <point x="68" y="1456" type="line"/>
      <point x="283" y="1456" type="line"/>
      <point x="457" y="803" type="line"/>
      <point x="526" y="803" type="line"/>
      <point x="526" y="1456" type="line"/>
      <point x="709" y="1456" type="line"/>
      <point x="709" y="803" type="line"/>
      <point x="771" y="803" type="line"/>
      <point x="944" y="1456" type="line"/>
      <point x="1160" y="1456" type="line"/>
      <point x="928" y="729" type="line"/>
      <point x="1198" y="0" type="line"/>
      <point x="969" y="0" type="line"/>
    </contour>
  </outline>
</glyph>
<glyph name="uni0417" format="2">
  <advance width="1229"/>
  <unicode hex="0417"/>
  <outline>
    <contour>
      <point x="89" y="404" type="qcurve"/>
      <point x="275" y="404" type="line"/>
      <point x="275" y="347"/>
      <point x="323" y="247"/>
      <point x="366" y="210" type="qcurve" smooth="yes" name="inserted"/>
      <point x="409" y="173"/>
      <point x="529" y="130"/>
      <point x="601" y="130" type="qcurve" smooth="yes"/>
      <point x="682" y="130"/>
      <point x="811" y="170"/>
      <point x="857" y="206" type="qcurve" smooth="yes" name="inserted"/>
      <point x="902" y="242"/>
      <point x="950" y="342"/>
      <point x="950" y="402" type="qcurve" smooth="yes"/>
      <point x="950" y="450"/>
      <point x="929" y="527"/>
      <point x="908" y="556" type="qcurve" smooth="yes"/>
      <point x="887" y="586"/>
      <point x="829" y="627"/>
      <point x="791" y="640" type="qcurve" smooth="yes"/>
      <point x="755" y="653"/>
      <point x="666" y="666"/>
      <point x="615" y="666" type="qcurve" smooth="yes"/>
      <point x="432" y="666" type="line"/>
      <point x="432" y="818" type="line"/>
      <point x="615" y="818" type="line" smooth="yes"/>
      <point x="660" y="819"/>
      <point x="737" y="830"/>
      <point x="769" y="841" type="qcurve" smooth="yes"/>
      <point x="797" y="851"/>
      <point x="844" y="878"/>
      <point x="862" y="896" type="qcurve" smooth="yes"/>
      <point x="895" y="927"/>
      <point x="928" y="1014"/>
      <point x="928" y="1066" type="qcurve" smooth="yes"/>
      <point x="928" y="1121"/>
      <point x="887" y="1215"/>
      <point x="846" y="1250" type="qcurve" smooth="yes" name="inserted"/>
      <point x="805" y="1285"/>
      <point x="683" y="1325"/>
      <point x="601" y="1325" type="qcurve" smooth="yes"/>
      <point x="538" y="1325"/>
      <point x="426" y="1288"/>
      <point x="385" y="1255" type="qcurve" smooth="yes" name="inserted"/>
      <point x="344" y="1221"/>
      <point x="295" y="1129"/>
      <point x="295" y="1075" type="qcurve"/>
      <point x="110" y="1075" type="line"/>
      <point x="110" y="1168"/>
      <point x="189" y="1317"/>
      <point x="257" y="1369" type="qcurve" smooth="yes" name="inserted"/>
      <point x="324" y="1420"/>
      <point x="502" y="1476"/>
      <point x="601" y="1476" type="qcurve" smooth="yes"/>
      <point x="716" y="1476"/>
      <point x="905" y="1424"/>
      <point x="973" y="1372" type="qcurve" smooth="yes" name="inserted"/>
      <point x="1040" y="1320"/>
      <point x="1114" y="1164"/>
      <point x="1114" y="1062" type="qcurve"/>
      <point x="1113" y="995"/>
      <point x="1059" y="878"/>
      <point x="1009" y="832" type="qcurve" smooth="yes"/>
      <point x="982" y="807"/>
      <point x="915" y="764"/>
      <point x="876" y="747" type="qcurve"/>
      <point x="927" y="730"/>
      <point x="1010" y="682"/>
      <point x="1042" y="651" type="qcurve" smooth="yes"/>
      <point x="1088" y="605"/>
      <point x="1136" y="483"/>
      <point x="1136" y="406" type="qcurve" smooth="yes"/>
      <point x="1136" y="303"/>
      <point x="1055" y="144"/>
      <point x="984" y="90" type="qcurve" smooth="yes" name="inserted"/>
      <point x="912" y="35"/>
      <point x="716" y="-21"/>
      <point x="601" y="-21" type="qcurve" smooth="yes"/>
      <point x="506" y="-21"/>
      <point x="323" y="28"/>
      <point x="251" y="80" type="qcurve" smooth="yes" name="inserted"/>
      <point x="179" y="132"/>
      <point x="89" y="293"/>
    </contour>
  </outline>
</glyph>
<glyph name="uni0418" format="2">
  <advance width="1229"/>
  <unicode hex="0418"/>
  <outline>
    <contour>
      <point x="881" y="1456" type="line"/>
      <point x="1066" y="1456" type="line"/>
      <point x="1066" y="0" type="line"/>
      <point x="881" y="0" type="line"/>
      <point x="882" y="1073" type="line"/>
      <point x="347" y="0" type="line"/>
      <point x="162" y="0" type="line"/>
      <point x="162" y="1456" type="line"/>
      <point x="347" y="1456" type="line"/>
      <point x="346" y="384" type="line"/>
    </contour>
  </outline>
</glyph>
